<?xml version="1.0" encoding="UTF-8"?>
<svg width="24px" height="16px" viewBox="0 0 24 16" version="1.1" xmlns="http://www.w3.org/2000/svg" xmlns:xlink="http://www.w3.org/1999/xlink">
    <!-- Generator: Sketch 54.1 (76490) - https://sketchapp.com -->
    <title>tabicon-usmap</title>
    <desc>Created with Sketch.</desc>
    <defs>
        <polygon id="path-1" points="0.386719 0.546875 23.613281 0.546875 23.613281 14.339844 0.386719 14.339844"></polygon>
        <polygon id="path-3" points="0 0 8 0 8 3.28125 0 3.28125"></polygon>
        <polygon id="path-5" points="0 0 3.613281 0 3.613281 2 0 2"></polygon>
        <polygon id="path-7" points="0 0 3 0 3 3.28125 0 3.28125"></polygon>
        <polygon id="path-9" points="0.386719 0.765625 15 0.765625 15 12 0.386719 12"></polygon>
    </defs>
    <g id="Page-1" stroke="none" stroke-width="1" fill="none" fill-rule="evenodd">
        <g id="tabicon-usmap">
            <g id="Clipped" transform="translate(0.000000, 1.000000)">
                <mask id="mask-2" fill="white">
                    <use xlink:href="#path-1"></use>
                </mask>
                <g id="Path"></g>
                <path d="M23.605469,2.082031 L22.574219,0.546875 L21.542969,0.546875 L21.542969,2.082031 L20.511719,2.589844 L19.996094,3.613281 L18.964844,4.125 L18.964844,4.632812 L17.929688,5.144531 L17.929688,4.125 L16.898438,3.101562 L16.898438,2.589844 L16.382812,2.589844 L16.382812,4.125 L15.867188,4.125 L15.867188,2.589844 L14.835938,2.589844 L14.835938,2.082031 L12.773438,1.570312 L8.648438,1.570312 L2.457031,0.546875 L2.457031,1.570312 L1.941406,0.546875 L1.425781,0.546875 L1.425781,2.082031 L0.910156,3.613281 L0.910156,4.125 L0.394531,4.632812 L0.910156,6.675781 L1.425781,8.210938 L2.457031,9.230469 L2.457031,9.742188 L4.003906,9.742188 L5.035156,10.761719 L7.617188,10.761719 L8.132812,11.785156 L9.164062,12.804688 L9.164062,12.296875 L10.195312,12.296875 L10.195312,12.804688 L11.226562,14.339844 L11.742188,14.339844 L11.742188,13.316406 L13.289062,12.296875 L15.867188,12.296875 L15.867188,11.785156 L18.449219,11.785156 L18.964844,12.296875 L18.964844,12.804688 L19.996094,13.828125 L19.996094,14.339844 L20.511719,14.339844 L20.511719,12.804688 L19.480469,11.273438 L19.480469,10.253906 L20.511719,9.230469 L21.542969,7.1875 L21.542969,5.65625 L23.089844,3.613281 L22.574219,3.613281 L23.605469,2.082031 Z M19.996094,12.960938 L19.996094,13.105469 L19.480469,12.59375 L19.480469,12.195312 L19.996094,12.960938 Z M21.027344,5.484375 L21.027344,7.066406 L20.085938,8.929688 L18.964844,10.042969 L18.964844,11.429688 L19.253906,11.863281 L18.660156,11.273438 L15.351562,11.273438 L15.351562,11.785156 L13.132812,11.785156 L11.226562,13.042969 L11.226562,13.417969 L10.710938,12.652344 L10.710938,11.785156 L8.859375,11.785156 L8.554688,11.480469 L7.933594,10.253906 L5.25,10.253906 L4.21875,9.230469 L2.972656,9.230469 L2.972656,9.019531 L1.878906,7.933594 L1.398438,6.515625 L0.964844,4.792969 L1.425781,4.335938 L1.425781,3.695312 L1.941406,2.164062 L1.941406,1.691406 L1.996094,1.796875 L2.972656,1.570312 L2.972656,1.152344 L8.605469,2.082031 L12.710938,2.082031 L14.320312,2.480469 L14.320312,3.101562 L15.351562,3.101562 L15.351562,4.632812 L16.898438,4.632812 L16.898438,3.824219 L17.414062,4.335938 L17.414062,5.972656 L19.480469,4.949219 L19.480469,4.4375 L20.378906,3.992188 L20.894531,2.972656 L22.058594,2.394531 L22.058594,1.058594 L22.296875,1.058594 L22.984375,2.082031 L21.609375,4.125 L22.058594,4.125 L21.027344,5.484375 Z" id="Shape" fill="#FFFFFF" fill-rule="nonzero" mask="url(#mask-2)"></path>
            </g>
            <path d="M17.410156,12.871094 C17.4375,12.90625 17.476562,12.914062 17.492188,12.917969 C17.574219,12.933594 17.664062,12.910156 17.730469,12.859375 L17.40625,12.859375 C17.40625,12.863281 17.410156,12.867188 17.410156,12.871094" id="Path" fill="#FFFFFF" fill-rule="nonzero"></path>
            <g id="Clipped" transform="translate(8.000000, 12.000000)">
                <mask id="mask-4" fill="white">
                    <use xlink:href="#path-3"></use>
                </mask>
                <g id="Path"></g>
                <path d="M7.75,1.226562 C7.707031,1.203125 7.664062,1.175781 7.609375,1.164062 C7.589844,1.160156 7.574219,1.15625 7.554688,1.152344 C7.535156,1.152344 7.519531,1.148438 7.503906,1.144531 C7.5,1.140625 7.496094,1.140625 7.492188,1.140625 C7.503906,1.132812 7.515625,1.125 7.523438,1.113281 C7.527344,1.113281 7.53125,1.113281 7.535156,1.113281 C7.566406,1.113281 7.59375,1.097656 7.613281,1.070312 C7.628906,1.050781 7.632812,1.027344 7.636719,1.011719 C7.648438,0.964844 7.644531,0.914062 7.625,0.867188 C7.625,0.863281 7.625,0.859375 7.625,0.859375 L0,0.859375 C0.011719,0.945312 0.070312,1.015625 0.109375,1.070312 C0.140625,1.105469 0.171875,1.144531 0.214844,1.179688 C0.246094,1.203125 0.28125,1.222656 0.316406,1.242188 L0.335938,1.253906 C0.390625,1.285156 0.445312,1.320312 0.492188,1.359375 L0.503906,1.367188 C0.53125,1.386719 0.558594,1.410156 0.597656,1.425781 C0.648438,1.453125 0.707031,1.457031 0.753906,1.4375 C0.820312,1.410156 0.855469,1.347656 0.875,1.308594 C0.890625,1.277344 0.902344,1.246094 0.914062,1.222656 C0.9375,1.167969 0.957031,1.117188 0.992188,1.082031 C1.039062,1.039062 1.105469,1.011719 1.167969,1.011719 L1.179688,1.007812 C1.195312,1.007812 1.207031,1.011719 1.21875,1.015625 C1.226562,1.019531 1.234375,1.023438 1.242188,1.03125 C1.253906,1.035156 1.261719,1.039062 1.269531,1.042969 C1.3125,1.066406 1.367188,1.078125 1.433594,1.082031 C1.464844,1.082031 1.507812,1.078125 1.550781,1.074219 C1.648438,1.125 1.722656,1.1875 1.773438,1.261719 L1.863281,1.390625 C1.875,1.414062 1.890625,1.433594 1.902344,1.457031 C1.90625,1.460938 1.914062,1.46875 1.917969,1.476562 C1.925781,1.496094 1.933594,1.515625 1.945312,1.539062 C1.953125,1.570312 1.96875,1.605469 1.988281,1.636719 C2.003906,1.667969 2.011719,1.710938 2.015625,1.757812 C2.023438,1.816406 2.039062,1.878906 2.074219,1.929688 C2.085938,1.945312 2.105469,1.957031 2.125,1.957031 C2.152344,1.957031 2.175781,1.972656 2.1875,2 C2.191406,2.003906 2.195312,2.011719 2.199219,2.019531 C2.203125,2.03125 2.207031,2.046875 2.21875,2.058594 C2.230469,2.082031 2.246094,2.097656 2.261719,2.113281 C2.269531,2.125 2.28125,2.132812 2.285156,2.144531 C2.292969,2.152344 2.292969,2.160156 2.296875,2.171875 C2.300781,2.179688 2.304688,2.1875 2.308594,2.199219 C2.324219,2.242188 2.355469,2.269531 2.390625,2.28125 C2.410156,2.285156 2.425781,2.289062 2.449219,2.285156 C2.441406,2.316406 2.4375,2.347656 2.429688,2.378906 C2.425781,2.421875 2.433594,2.457031 2.460938,2.480469 C2.46875,2.488281 2.476562,2.492188 2.484375,2.496094 L2.46875,2.542969 C2.464844,2.554688 2.457031,2.578125 2.460938,2.601562 C2.46875,2.632812 2.488281,2.65625 2.515625,2.671875 C2.523438,2.675781 2.53125,2.679688 2.542969,2.683594 C2.546875,2.683594 2.546875,2.683594 2.550781,2.6875 C2.5625,2.691406 2.570312,2.699219 2.574219,2.710938 C2.585938,2.726562 2.585938,2.75 2.585938,2.773438 L2.585938,2.78125 C2.585938,2.792969 2.589844,2.808594 2.589844,2.824219 C2.59375,2.839844 2.59375,2.859375 2.601562,2.878906 C2.621094,2.933594 2.65625,2.972656 2.703125,2.984375 C2.707031,2.984375 2.710938,2.988281 2.722656,2.984375 C2.726562,2.984375 2.730469,2.988281 2.734375,2.992188 C2.742188,2.996094 2.746094,3 2.753906,3.007812 C2.761719,3.011719 2.765625,3.015625 2.773438,3.019531 C2.835938,3.070312 2.917969,3.09375 2.996094,3.085938 C3.042969,3.152344 3.128906,3.191406 3.210938,3.179688 C3.226562,3.179688 3.242188,3.175781 3.257812,3.171875 C3.273438,3.167969 3.285156,3.167969 3.300781,3.167969 C3.324219,3.167969 3.347656,3.1875 3.355469,3.195312 C3.363281,3.199219 3.371094,3.203125 3.378906,3.210938 C3.398438,3.226562 3.417969,3.242188 3.441406,3.253906 C3.472656,3.269531 3.507812,3.28125 3.535156,3.28125 C3.554688,3.28125 3.574219,3.277344 3.589844,3.269531 C3.648438,3.25 3.695312,3.183594 3.671875,3.113281 C3.660156,3.089844 3.644531,3.070312 3.628906,3.054688 C3.625,3.050781 3.625,3.046875 3.621094,3.046875 C3.613281,3.03125 3.613281,3.003906 3.613281,2.972656 L3.613281,2.953125 C3.613281,2.910156 3.609375,2.867188 3.597656,2.824219 C3.589844,2.785156 3.574219,2.75 3.558594,2.71875 C3.558594,2.601562 3.582031,2.480469 3.632812,2.375 C3.636719,2.371094 3.640625,2.367188 3.644531,2.359375 C3.660156,2.332031 3.683594,2.289062 3.667969,2.242188 C3.660156,2.226562 3.652344,2.214844 3.644531,2.203125 C3.644531,2.203125 3.648438,2.203125 3.648438,2.203125 L3.660156,2.203125 C3.699219,2.203125 3.75,2.179688 3.769531,2.125 C3.773438,2.117188 3.773438,2.109375 3.773438,2.101562 C3.777344,2.097656 3.78125,2.09375 3.785156,2.089844 L3.808594,2.042969 C3.882812,2.03125 3.9375,1.988281 3.988281,1.949219 C4.019531,1.925781 4.050781,1.902344 4.085938,1.890625 L4.300781,1.792969 C4.324219,1.78125 4.347656,1.769531 4.371094,1.757812 C4.386719,1.753906 4.402344,1.746094 4.417969,1.742188 C4.457031,1.726562 4.507812,1.710938 4.542969,1.667969 C4.59375,1.605469 4.65625,1.550781 4.722656,1.5 C4.734375,1.496094 4.742188,1.488281 4.753906,1.480469 L4.738281,1.460938 L4.757812,1.480469 C4.769531,1.472656 4.78125,1.464844 4.792969,1.457031 C4.804688,1.445312 4.820312,1.433594 4.835938,1.421875 C4.863281,1.398438 4.886719,1.371094 4.90625,1.347656 C4.910156,1.339844 4.914062,1.332031 4.917969,1.324219 C4.921875,1.324219 4.921875,1.320312 4.925781,1.320312 C4.988281,1.300781 5.046875,1.277344 5.105469,1.242188 C5.117188,1.238281 5.125,1.234375 5.136719,1.226562 C5.15625,1.214844 5.175781,1.199219 5.199219,1.191406 C5.222656,1.179688 5.246094,1.175781 5.261719,1.179688 C5.261719,1.179688 5.269531,1.179688 5.269531,1.179688 C5.28125,1.179688 5.289062,1.179688 5.296875,1.171875 C5.304688,1.175781 5.316406,1.175781 5.324219,1.171875 C5.449219,1.144531 5.578125,1.136719 5.703125,1.152344 L5.710938,1.15625 C5.742188,1.15625 5.769531,1.160156 5.785156,1.171875 C5.859375,1.222656 5.949219,1.242188 6.023438,1.257812 L6.105469,1.273438 C6.125,1.277344 6.164062,1.285156 6.195312,1.273438 C6.210938,1.269531 6.21875,1.261719 6.226562,1.257812 L6.230469,1.257812 C6.25,1.257812 6.265625,1.257812 6.285156,1.265625 C6.289062,1.265625 6.292969,1.265625 6.296875,1.269531 C6.3125,1.273438 6.328125,1.28125 6.34375,1.285156 C6.355469,1.285156 6.367188,1.285156 6.375,1.285156 C6.441406,1.285156 6.460938,1.242188 6.464844,1.230469 C6.46875,1.222656 6.472656,1.210938 6.472656,1.203125 C6.480469,1.21875 6.496094,1.234375 6.511719,1.25 C6.523438,1.257812 6.535156,1.261719 6.546875,1.265625 C6.570312,1.265625 6.589844,1.265625 6.605469,1.273438 C6.609375,1.277344 6.613281,1.28125 6.613281,1.28125 C6.613281,1.28125 6.613281,1.289062 6.613281,1.292969 C6.605469,1.316406 6.597656,1.347656 6.609375,1.382812 C6.621094,1.410156 6.648438,1.433594 6.683594,1.445312 C6.695312,1.449219 6.707031,1.449219 6.71875,1.453125 C6.722656,1.453125 6.726562,1.453125 6.730469,1.457031 C6.742188,1.460938 6.757812,1.464844 6.773438,1.476562 L6.789062,1.484375 C6.8125,1.496094 6.84375,1.511719 6.882812,1.511719 C6.886719,1.511719 6.894531,1.511719 6.898438,1.511719 C6.9375,1.507812 6.96875,1.488281 7.003906,1.457031 C7.007812,1.453125 7.011719,1.449219 7.015625,1.445312 C7.019531,1.4375 7.027344,1.433594 7.035156,1.425781 C7.046875,1.410156 7.058594,1.398438 7.066406,1.390625 C7.074219,1.386719 7.078125,1.382812 7.085938,1.378906 C7.085938,1.386719 7.085938,1.398438 7.089844,1.410156 C7.09375,1.429688 7.105469,1.445312 7.121094,1.457031 C7.136719,1.46875 7.152344,1.472656 7.175781,1.476562 L7.183594,1.476562 C7.203125,1.476562 7.226562,1.46875 7.246094,1.457031 C7.246094,1.453125 7.25,1.453125 7.253906,1.449219 C7.289062,1.417969 7.304688,1.371094 7.300781,1.3125 C7.300781,1.304688 7.300781,1.296875 7.300781,1.285156 C7.3125,1.308594 7.332031,1.324219 7.355469,1.332031 C7.375,1.339844 7.390625,1.339844 7.417969,1.335938 C7.4375,1.335938 7.457031,1.335938 7.46875,1.339844 C7.480469,1.34375 7.492188,1.347656 7.496094,1.355469 C7.5,1.359375 7.5,1.359375 7.503906,1.367188 C7.507812,1.375 7.515625,1.382812 7.523438,1.394531 C7.5625,1.441406 7.628906,1.449219 7.664062,1.449219 C7.671875,1.453125 7.683594,1.453125 7.695312,1.453125 C7.734375,1.453125 7.765625,1.441406 7.789062,1.421875 C7.828125,1.382812 7.835938,1.316406 7.800781,1.269531 C7.785156,1.25 7.761719,1.234375 7.75,1.226562" id="Path" fill="#FFFFFF" fill-rule="nonzero" mask="url(#mask-4)"></path>
            </g>
            <g id="Clipped" transform="translate(20.000000, 2.000000)">
                <mask id="mask-6" fill="white">
                    <use xlink:href="#path-5"></use>
                </mask>
                <g id="Path"></g>
                <path d="M3.558594,1.199219 C3.53125,1.152344 3.492188,1.113281 3.449219,1.078125 C3.4375,1.070312 3.425781,1.0625 3.40625,1.054688 C3.382812,1.046875 3.351562,1.046875 3.328125,1.058594 C3.320312,1.0625 3.3125,1.070312 3.304688,1.078125 C3.304688,1.070312 3.304688,1.0625 3.300781,1.050781 C3.300781,1.042969 3.300781,1.035156 3.300781,1.027344 C3.300781,1.011719 3.300781,0.996094 3.300781,0.984375 C3.300781,0.96875 3.296875,0.941406 3.285156,0.921875 C3.269531,0.898438 3.242188,0.871094 3.203125,0.871094 C3.191406,0.871094 3.179688,0.875 3.171875,0.878906 C3.148438,0.886719 3.113281,0.878906 3.101562,0.859375 C3.089844,0.84375 3.082031,0.820312 3.078125,0.800781 C3.0625,0.75 3.050781,0.699219 3.035156,0.644531 L3.035156,0.640625 C3.019531,0.574219 3,0.507812 2.980469,0.441406 C2.964844,0.382812 2.945312,0.324219 2.925781,0.265625 C2.886719,0.15625 2.785156,0.074219 2.667969,0.054688 C2.601562,0.046875 2.542969,0.058594 2.5,0.089844 C2.476562,0.109375 2.460938,0.128906 2.445312,0.152344 C2.441406,0.15625 2.4375,0.160156 2.433594,0.167969 C2.425781,0.175781 2.421875,0.179688 2.417969,0.183594 C2.398438,0.175781 2.394531,0.167969 2.394531,0.164062 C2.390625,0.15625 2.386719,0.144531 2.378906,0.128906 C2.363281,0.097656 2.328125,0.078125 2.289062,0.078125 C2.273438,0.078125 2.253906,0.082031 2.238281,0.089844 C2.1875,0.113281 2.148438,0.164062 2.136719,0.234375 C2.132812,0.253906 2.128906,0.277344 2.128906,0.296875 C2.125,0.316406 2.125,0.335938 2.121094,0.351562 C2.113281,0.371094 2.101562,0.398438 2.085938,0.421875 C2.082031,0.429688 2.078125,0.4375 2.074219,0.441406 C2.042969,0.492188 2.015625,0.554688 2.042969,0.621094 C2.066406,0.664062 2.0625,0.71875 2.042969,0.761719 C2.039062,0.769531 2.035156,0.777344 2.027344,0.789062 C2.015625,0.8125 2,0.839844 1.992188,0.871094 C1.984375,0.921875 2,0.96875 2.011719,1 C2.015625,1.011719 2.019531,1.019531 2.023438,1.027344 C2.03125,1.046875 2.039062,1.066406 2.042969,1.082031 C2.046875,1.105469 2.046875,1.117188 2.042969,1.121094 C1.976562,1.1875 1.933594,1.277344 1.925781,1.371094 L1.925781,1.378906 C1.925781,1.386719 1.925781,1.394531 1.921875,1.402344 C1.921875,1.402344 1.917969,1.402344 1.914062,1.402344 C1.910156,1.402344 1.902344,1.40625 1.898438,1.40625 C1.894531,1.402344 1.886719,1.402344 1.882812,1.402344 C1.871094,1.402344 1.859375,1.402344 1.851562,1.402344 C1.835938,1.402344 1.796875,1.402344 1.761719,1.425781 C1.738281,1.441406 1.722656,1.464844 1.710938,1.496094 C1.707031,1.511719 1.707031,1.527344 1.71875,1.542969 C1.71875,1.546875 1.71875,1.546875 1.71875,1.550781 C1.71875,1.566406 1.71875,1.578125 1.722656,1.59375 C1.597656,1.613281 1.472656,1.644531 1.355469,1.675781 C1.28125,1.695312 1.203125,1.714844 1.125,1.730469 C1.117188,1.734375 1.109375,1.734375 1.101562,1.738281 C1.097656,1.738281 1.089844,1.738281 1.082031,1.742188 L0.652344,1.824219 C0.601562,1.832031 0.546875,1.84375 0.496094,1.867188 C0.460938,1.886719 0.421875,1.910156 0.382812,1.9375 L2.875,1.9375 C2.875,1.925781 2.875,1.917969 2.875,1.90625 L2.871094,1.769531 C2.871094,1.773438 2.871094,1.777344 2.875,1.78125 C2.878906,1.804688 2.890625,1.84375 2.929688,1.863281 C2.972656,1.886719 3.03125,1.871094 3.058594,1.828125 C3.082031,1.796875 3.082031,1.757812 3.078125,1.730469 C3.074219,1.71875 3.070312,1.703125 3.066406,1.691406 C3.0625,1.6875 3.0625,1.679688 3.0625,1.675781 C3.058594,1.667969 3.058594,1.660156 3.058594,1.660156 C3.058594,1.660156 3.0625,1.65625 3.066406,1.652344 C3.070312,1.652344 3.078125,1.648438 3.082031,1.644531 C3.105469,1.667969 3.132812,1.683594 3.167969,1.683594 L3.171875,1.6875 C3.214844,1.6875 3.253906,1.664062 3.285156,1.628906 C3.296875,1.613281 3.304688,1.597656 3.316406,1.582031 C3.320312,1.574219 3.324219,1.566406 3.328125,1.558594 C3.332031,1.558594 3.335938,1.554688 3.339844,1.550781 C3.359375,1.527344 3.386719,1.507812 3.414062,1.488281 C3.449219,1.460938 3.492188,1.433594 3.523438,1.390625 C3.59375,1.296875 3.582031,1.234375 3.558594,1.199219" id="Path" fill="#FFFFFF" fill-rule="nonzero" mask="url(#mask-6)"></path>
            </g>
            <path d="M6.144531,11.917969 C6.246094,11.933594 6.339844,11.945312 6.433594,11.964844 C6.433594,11.964844 6.441406,11.964844 6.445312,11.964844 C6.457031,11.964844 6.472656,11.960938 6.484375,11.953125 C6.496094,11.941406 6.503906,11.929688 6.507812,11.914062 L6.328125,11.800781 L6.144531,11.917969" id="Path" fill="#FFFFFF" fill-rule="nonzero"></path>
            <path d="M1.113281,9.246094 C1.117188,9.300781 1.148438,9.351562 1.195312,9.375 C1.210938,9.386719 1.226562,9.386719 1.246094,9.390625 L1.277344,9.265625 L1.128906,9.148438 C1.121094,9.175781 1.113281,9.210938 1.113281,9.246094" id="Path" fill="#FFFFFF" fill-rule="nonzero"></path>
            <g id="Clipped" transform="translate(18.000000, 12.000000)">
                <mask id="mask-8" fill="white">
                    <use xlink:href="#path-7"></use>
                </mask>
                <g id="Path"></g>
                <path d="M2.34375,2.144531 C2.339844,2.089844 2.335938,2.019531 2.289062,1.964844 C2.199219,1.871094 2.132812,1.757812 2.089844,1.636719 L2.089844,1.628906 C2.078125,1.601562 2.070312,1.570312 2.042969,1.539062 C2.03125,1.527344 2.019531,1.515625 2.007812,1.507812 C2.003906,1.503906 2,1.503906 1.996094,1.5 C1.976562,1.484375 1.960938,1.46875 1.953125,1.457031 C1.9375,1.4375 1.933594,1.425781 1.933594,1.417969 C1.941406,1.347656 1.953125,1.246094 1.902344,1.164062 C1.878906,1.117188 1.839844,1.085938 1.804688,1.058594 L1.785156,1.042969 C1.726562,0.992188 1.675781,0.925781 1.632812,0.859375 L0.351562,0.859375 C0.371094,0.878906 0.394531,0.898438 0.417969,0.917969 C0.425781,0.925781 0.433594,0.933594 0.445312,0.945312 C0.457031,0.957031 0.46875,0.96875 0.488281,0.984375 C0.515625,1.003906 0.542969,1.023438 0.578125,1.035156 C0.59375,1.042969 0.609375,1.050781 0.625,1.054688 C0.652344,1.066406 0.675781,1.074219 0.691406,1.085938 C0.714844,1.097656 0.785156,1.148438 0.785156,1.203125 C0.785156,1.246094 0.785156,1.285156 0.785156,1.324219 L0.789062,1.335938 C0.789062,1.363281 0.789062,1.390625 0.789062,1.421875 C0.777344,1.429688 0.769531,1.441406 0.761719,1.457031 C0.753906,1.464844 0.75,1.476562 0.746094,1.484375 C0.734375,1.519531 0.738281,1.554688 0.742188,1.578125 C0.746094,1.59375 0.753906,1.621094 0.785156,1.710938 L0.789062,1.722656 C0.789062,1.722656 0.789062,1.730469 0.789062,1.738281 C0.792969,1.75 0.792969,1.761719 0.796875,1.773438 L0.800781,1.78125 C0.800781,1.789062 0.800781,1.796875 0.804688,1.804688 C0.8125,1.828125 0.824219,1.839844 0.832031,1.847656 C0.835938,1.851562 0.839844,1.855469 0.84375,1.859375 C0.847656,1.863281 0.855469,1.867188 0.863281,1.871094 C0.84375,1.910156 0.859375,1.945312 0.878906,1.964844 C0.921875,2 0.957031,2.050781 0.992188,2.101562 L1.058594,2.203125 C1.070312,2.21875 1.082031,2.238281 1.09375,2.253906 C1.121094,2.289062 1.148438,2.320312 1.152344,2.351562 C1.15625,2.375 1.160156,2.410156 1.179688,2.4375 C1.207031,2.480469 1.257812,2.503906 1.300781,2.492188 C1.324219,2.488281 1.34375,2.476562 1.355469,2.464844 C1.355469,2.46875 1.359375,2.46875 1.359375,2.472656 C1.394531,2.519531 1.417969,2.578125 1.429688,2.636719 L1.429688,2.640625 C1.433594,2.65625 1.4375,2.679688 1.449219,2.703125 C1.472656,2.742188 1.507812,2.757812 1.5625,2.75 C1.574219,2.75 1.589844,2.75 1.605469,2.75 C1.636719,2.753906 1.667969,2.765625 1.691406,2.785156 C1.707031,2.792969 1.722656,2.808594 1.734375,2.824219 C1.753906,2.847656 1.765625,2.875 1.773438,2.90625 C1.777344,2.917969 1.777344,2.929688 1.777344,2.941406 C1.78125,2.96875 1.785156,2.992188 1.792969,3.019531 C1.808594,3.066406 1.851562,3.125 1.921875,3.128906 C1.925781,3.128906 1.929688,3.128906 1.929688,3.128906 C1.980469,3.128906 2.015625,3.101562 2.042969,3.082031 C2.054688,3.070312 2.070312,3.0625 2.078125,3.058594 C2.085938,3.058594 2.089844,3.058594 2.101562,3.058594 C2.128906,3.0625 2.152344,3.0625 2.171875,3.054688 C2.195312,3.046875 2.214844,3.035156 2.226562,3.023438 L2.253906,3.003906 C2.261719,2.996094 2.28125,2.984375 2.292969,2.964844 C2.3125,2.933594 2.3125,2.898438 2.3125,2.875 C2.3125,2.859375 2.3125,2.84375 2.3125,2.824219 C2.3125,2.8125 2.3125,2.804688 2.3125,2.792969 C2.3125,2.777344 2.3125,2.761719 2.3125,2.75 C2.332031,2.738281 2.34375,2.722656 2.351562,2.703125 C2.363281,2.679688 2.363281,2.652344 2.363281,2.636719 L2.34375,2.144531" id="Path" fill="#FFFFFF" fill-rule="nonzero" mask="url(#mask-8)"></path>
            </g>
            <path d="M22.917969,5.164062 C22.917969,5.140625 22.917969,5.113281 22.902344,5.09375 C22.894531,5.074219 22.882812,5.042969 22.855469,5.015625 C22.8125,4.976562 22.75,4.960938 22.730469,4.960938 C22.722656,4.960938 22.71875,4.960938 22.710938,4.964844 C22.691406,4.96875 22.675781,4.984375 22.667969,5 C22.65625,5.035156 22.667969,5.054688 22.703125,5.117188 L22.71875,5.140625 C22.722656,5.144531 22.722656,5.152344 22.726562,5.15625 C22.726562,5.15625 22.726562,5.160156 22.722656,5.160156 C22.71875,5.160156 22.714844,5.160156 22.710938,5.160156 C22.6875,5.164062 22.664062,5.160156 22.644531,5.15625 C22.617188,5.128906 22.59375,5.097656 22.578125,5.066406 L22.574219,5.058594 C22.558594,5.027344 22.535156,4.988281 22.492188,4.96875 C22.464844,4.957031 22.433594,4.953125 22.402344,4.953125 C22.394531,4.945312 22.394531,4.9375 22.390625,4.925781 C22.394531,4.925781 22.394531,4.921875 22.398438,4.917969 C22.433594,4.882812 22.453125,4.835938 22.457031,4.789062 L20.132812,4.789062 C20.132812,4.789062 20.132812,4.789062 20.132812,4.792969 C20.085938,4.796875 20.039062,4.800781 20,4.835938 C19.972656,4.859375 19.957031,4.894531 19.949219,4.917969 C19.945312,4.921875 19.945312,4.925781 19.945312,4.929688 L19.9375,4.945312 C19.933594,4.953125 19.933594,4.960938 19.929688,4.964844 C19.894531,4.957031 19.859375,4.957031 19.820312,4.972656 C19.792969,4.980469 19.769531,4.996094 19.742188,5.007812 L19.726562,5.019531 C19.707031,5.027344 19.683594,5.039062 19.664062,5.039062 C19.644531,5.039062 19.621094,5.027344 19.59375,5.015625 C19.558594,5 19.519531,4.984375 19.46875,4.984375 C19.421875,4.984375 19.378906,5.003906 19.34375,5.019531 C19.339844,5.023438 19.332031,5.027344 19.324219,5.027344 C19.265625,5.054688 19.195312,5.0625 19.132812,5.066406 C19.070312,5.070312 19.03125,5.117188 19.015625,5.160156 C19.003906,5.199219 19.007812,5.238281 19.011719,5.265625 C19.015625,5.292969 19.019531,5.347656 19.0625,5.382812 C19.078125,5.398438 19.097656,5.40625 19.113281,5.410156 L19.121094,5.414062 C19.125,5.414062 19.125,5.414062 19.125,5.417969 C19.128906,5.433594 19.125,5.457031 19.113281,5.476562 C19.097656,5.503906 19.066406,5.527344 19.042969,5.550781 L19.011719,5.570312 C18.988281,5.589844 18.960938,5.609375 18.933594,5.632812 C18.914062,5.652344 18.894531,5.675781 18.878906,5.691406 C18.871094,5.699219 18.867188,5.707031 18.867188,5.71875 C18.855469,5.722656 18.847656,5.726562 18.84375,5.734375 C18.78125,5.800781 18.722656,5.847656 18.664062,5.875 C18.652344,5.878906 18.644531,5.886719 18.636719,5.890625 L18.625,5.894531 C18.617188,5.898438 18.609375,5.902344 18.605469,5.910156 C18.597656,5.910156 18.589844,5.914062 18.585938,5.914062 C18.5625,5.929688 18.539062,5.941406 18.515625,5.957031 L22.054688,5.957031 C22.058594,5.953125 22.066406,5.949219 22.074219,5.949219 L22.085938,5.945312 C22.140625,5.921875 22.171875,5.886719 22.175781,5.839844 C22.179688,5.792969 22.144531,5.746094 22.089844,5.730469 C22.050781,5.722656 22.007812,5.738281 21.984375,5.753906 C21.960938,5.765625 21.945312,5.78125 21.933594,5.792969 L21.925781,5.800781 C21.878906,5.847656 21.8125,5.890625 21.734375,5.925781 C21.714844,5.917969 21.691406,5.914062 21.667969,5.914062 C21.640625,5.914062 21.617188,5.921875 21.597656,5.929688 C21.640625,5.898438 21.683594,5.863281 21.722656,5.824219 C21.726562,5.820312 21.730469,5.816406 21.738281,5.808594 C21.765625,5.785156 21.804688,5.773438 21.847656,5.761719 C21.867188,5.757812 21.886719,5.753906 21.90625,5.746094 L22.15625,5.660156 C22.164062,5.65625 22.167969,5.652344 22.175781,5.648438 C22.183594,5.648438 22.1875,5.648438 22.195312,5.644531 L22.203125,5.640625 C22.253906,5.625 22.308594,5.601562 22.335938,5.550781 C22.339844,5.542969 22.34375,5.539062 22.347656,5.53125 C22.347656,5.53125 22.351562,5.527344 22.351562,5.523438 C22.355469,5.523438 22.359375,5.523438 22.367188,5.519531 C22.386719,5.515625 22.414062,5.511719 22.4375,5.492188 L22.449219,5.480469 C22.457031,5.472656 22.460938,5.46875 22.464844,5.460938 C22.472656,5.457031 22.480469,5.449219 22.488281,5.445312 C22.503906,5.425781 22.515625,5.40625 22.519531,5.382812 C22.582031,5.4375 22.667969,5.429688 22.742188,5.355469 C22.753906,5.34375 22.777344,5.332031 22.800781,5.316406 C22.84375,5.292969 22.886719,5.265625 22.910156,5.226562 C22.921875,5.210938 22.925781,5.191406 22.917969,5.175781 L22.917969,5.164062" id="Path" fill="#FFFFFF" fill-rule="nonzero"></path>
            <path d="M21.210938,7.207031 C21.246094,7.234375 21.300781,7.230469 21.335938,7.199219 C21.355469,7.183594 21.371094,7.160156 21.375,7.132812 C21.378906,7.109375 21.378906,7.09375 21.382812,7.078125 C21.382812,7.074219 21.382812,7.066406 21.382812,7.0625 C21.382812,7.054688 21.386719,7.050781 21.386719,7.042969 C21.433594,6.96875 21.476562,6.886719 21.515625,6.804688 L11.28125,6.804688 C11.476562,6.519531 11.679688,6.238281 11.886719,5.957031 L17.585938,5.957031 C17.589844,5.9375 17.59375,5.921875 17.589844,5.898438 C17.589844,5.894531 17.589844,5.886719 17.589844,5.878906 C17.585938,5.871094 17.585938,5.863281 17.585938,5.859375 C17.585938,5.855469 17.585938,5.855469 17.585938,5.855469 C17.597656,5.859375 17.613281,5.863281 17.628906,5.867188 C17.664062,5.867188 17.699219,5.84375 17.714844,5.808594 C17.726562,5.789062 17.726562,5.765625 17.730469,5.746094 C17.730469,5.730469 17.730469,5.710938 17.734375,5.691406 C17.742188,5.625 17.753906,5.542969 17.703125,5.472656 C17.664062,5.414062 17.640625,5.34375 17.617188,5.269531 C17.597656,5.207031 17.574219,5.144531 17.542969,5.085938 C17.527344,5.054688 17.507812,5.023438 17.46875,5 C17.4375,4.984375 17.402344,4.980469 17.378906,4.980469 C17.371094,4.980469 17.359375,4.980469 17.351562,4.980469 C17.328125,4.984375 17.304688,4.984375 17.277344,5 C17.246094,5.011719 17.210938,5.042969 17.207031,5.085938 C17.203125,5.113281 17.199219,5.136719 17.1875,5.160156 C17.183594,5.175781 17.171875,5.191406 17.160156,5.207031 C17.148438,5.222656 17.136719,5.238281 17.125,5.246094 C17.121094,5.25 17.113281,5.25 17.101562,5.25 C17.085938,5.25 17.074219,5.242188 17.066406,5.234375 C17.058594,5.222656 17.050781,5.210938 17.054688,5.195312 C17.054688,5.191406 17.054688,5.1875 17.054688,5.183594 C17.058594,5.183594 17.0625,5.175781 17.070312,5.171875 C17.082031,5.160156 17.089844,5.148438 17.101562,5.136719 C17.109375,5.128906 17.113281,5.125 17.117188,5.121094 C17.148438,5.109375 17.175781,5.082031 17.191406,5.054688 C17.207031,5.019531 17.203125,4.980469 17.199219,4.957031 C17.203125,4.953125 17.207031,4.949219 17.207031,4.945312 C17.210938,4.945312 17.210938,4.945312 17.210938,4.945312 C17.222656,4.9375 17.234375,4.929688 17.246094,4.917969 C17.257812,4.90625 17.265625,4.894531 17.269531,4.875 C17.277344,4.851562 17.277344,4.832031 17.277344,4.816406 C17.277344,4.808594 17.277344,4.796875 17.277344,4.789062 L12.777344,4.789062 C13.007812,4.503906 13.238281,4.21875 13.472656,3.9375 L16.851562,3.9375 C16.84375,3.933594 16.839844,3.925781 16.835938,3.921875 L16.828125,3.914062 C16.792969,3.878906 16.78125,3.816406 16.804688,3.773438 C16.8125,3.753906 16.8125,3.730469 16.804688,3.710938 C16.792969,3.695312 16.773438,3.683594 16.75,3.679688 C16.722656,3.679688 16.695312,3.683594 16.660156,3.695312 C16.636719,3.707031 16.613281,3.714844 16.59375,3.726562 C16.578125,3.734375 16.5625,3.742188 16.546875,3.746094 C16.515625,3.761719 16.488281,3.765625 16.46875,3.757812 C16.453125,3.757812 16.4375,3.746094 16.4375,3.734375 C16.4375,3.730469 16.4375,3.726562 16.4375,3.722656 C16.4375,3.699219 16.441406,3.667969 16.417969,3.640625 C16.398438,3.609375 16.367188,3.59375 16.332031,3.59375 C16.304688,3.59375 16.277344,3.605469 16.253906,3.617188 C16.238281,3.628906 16.226562,3.640625 16.214844,3.652344 C16.207031,3.660156 16.199219,3.667969 16.195312,3.671875 C16.183594,3.679688 16.167969,3.679688 16.148438,3.679688 C16.132812,3.679688 16.117188,3.679688 16.101562,3.675781 L16.097656,3.675781 C16.078125,3.675781 16.050781,3.671875 16.023438,3.671875 C15.988281,3.671875 15.960938,3.675781 15.933594,3.6875 C15.902344,3.699219 15.878906,3.722656 15.859375,3.738281 C15.847656,3.75 15.839844,3.757812 15.828125,3.769531 C15.808594,3.789062 15.785156,3.808594 15.769531,3.816406 L15.78125,3.839844 L15.761719,3.820312 C15.75,3.828125 15.726562,3.839844 15.710938,3.839844 C15.707031,3.839844 15.699219,3.832031 15.695312,3.828125 C15.6875,3.824219 15.683594,3.820312 15.675781,3.816406 C15.664062,3.804688 15.632812,3.789062 15.597656,3.789062 C15.574219,3.789062 15.550781,3.796875 15.535156,3.8125 C15.527344,3.816406 15.523438,3.820312 15.519531,3.824219 L15.480469,3.792969 C15.46875,3.785156 15.457031,3.777344 15.453125,3.769531 C15.453125,3.765625 15.449219,3.757812 15.449219,3.75 C15.445312,3.742188 15.441406,3.734375 15.441406,3.722656 C15.421875,3.679688 15.386719,3.644531 15.34375,3.628906 C15.316406,3.617188 15.285156,3.613281 15.246094,3.617188 C15.234375,3.605469 15.21875,3.597656 15.203125,3.59375 C15.1875,3.589844 15.175781,3.589844 15.160156,3.59375 C15.164062,3.585938 15.167969,3.578125 15.171875,3.570312 C15.171875,3.566406 15.175781,3.558594 15.179688,3.550781 C15.179688,3.546875 15.179688,3.542969 15.183594,3.542969 C15.183594,3.539062 15.191406,3.53125 15.199219,3.523438 L15.222656,3.496094 C15.226562,3.496094 15.230469,3.492188 15.234375,3.492188 C15.238281,3.488281 15.246094,3.484375 15.25,3.480469 C15.253906,3.480469 15.253906,3.480469 15.257812,3.480469 C15.265625,3.480469 15.273438,3.480469 15.277344,3.480469 C15.324219,3.480469 15.355469,3.460938 15.371094,3.425781 C15.390625,3.378906 15.363281,3.332031 15.328125,3.3125 C15.300781,3.300781 15.273438,3.300781 15.257812,3.300781 L15.246094,3.300781 C15.203125,3.300781 15.15625,3.300781 15.113281,3.324219 C15.082031,3.335938 15.058594,3.355469 15.039062,3.375 L14.945312,3.457031 C14.917969,3.476562 14.894531,3.5 14.871094,3.53125 C14.867188,3.535156 14.863281,3.542969 14.855469,3.550781 C14.84375,3.570312 14.832031,3.59375 14.824219,3.621094 C14.789062,3.648438 14.746094,3.671875 14.703125,3.6875 C14.675781,3.695312 14.648438,3.699219 14.625,3.703125 C14.570312,3.707031 14.527344,3.722656 14.496094,3.757812 C14.492188,3.761719 14.488281,3.769531 14.480469,3.777344 C14.480469,3.777344 14.476562,3.78125 14.476562,3.78125 C14.472656,3.789062 14.457031,3.796875 14.445312,3.800781 L14.339844,3.851562 C14.335938,3.855469 14.332031,3.859375 14.328125,3.863281 C14.320312,3.863281 14.316406,3.863281 14.308594,3.863281 L14.296875,3.867188 C14.28125,3.871094 14.257812,3.871094 14.234375,3.867188 C14.230469,3.867188 14.222656,3.867188 14.214844,3.863281 L14.222656,3.859375 C14.269531,3.824219 14.289062,3.777344 14.273438,3.730469 C14.257812,3.691406 14.21875,3.667969 14.171875,3.667969 C14.164062,3.667969 14.15625,3.667969 14.148438,3.667969 C14.117188,3.675781 14.09375,3.695312 14.070312,3.710938 C14.011719,3.753906 13.941406,3.789062 13.871094,3.8125 C13.886719,3.800781 13.902344,3.789062 13.917969,3.777344 C13.929688,3.761719 13.941406,3.746094 13.957031,3.730469 L13.964844,3.71875 C13.992188,3.6875 14.023438,3.660156 14.066406,3.636719 C14.105469,3.613281 14.125,3.582031 14.136719,3.550781 C14.140625,3.542969 14.144531,3.535156 14.148438,3.527344 C14.152344,3.515625 14.15625,3.503906 14.164062,3.496094 C14.1875,3.457031 14.226562,3.425781 14.285156,3.394531 C14.3125,3.378906 14.34375,3.367188 14.371094,3.355469 C14.390625,3.347656 14.410156,3.335938 14.429688,3.324219 C14.460938,3.308594 14.492188,3.292969 14.523438,3.285156 C14.578125,3.277344 14.632812,3.257812 14.679688,3.230469 C14.691406,3.222656 14.707031,3.214844 14.71875,3.199219 C14.734375,3.175781 14.742188,3.148438 14.738281,3.125 C14.734375,3.105469 14.722656,3.089844 14.707031,3.082031 C14.679688,3.066406 14.644531,3.058594 14.609375,3.066406 C14.59375,3.070312 14.578125,3.078125 14.566406,3.082031 C14.554688,3.0625 14.539062,3.046875 14.519531,3.035156 C14.488281,3.015625 14.453125,3.015625 14.429688,3.015625 L14.304688,3.015625 C14.296875,3.015625 14.285156,3.015625 14.273438,3.015625 C14.820312,2.40625 15.335938,1.761719 15.894531,1.148438 C12.964844,4.046875 10.550781,7.300781 8.726562,10.808594 C8.679688,10.898438 8.632812,10.992188 8.585938,11.082031 C8.429688,11.390625 8.28125,11.699219 8.132812,12.007812 L19.292969,12.007812 C19.292969,11.921875 19.296875,11.835938 19.308594,11.753906 C19.316406,11.710938 19.335938,11.671875 19.359375,11.625 C19.390625,11.570312 19.421875,11.511719 19.425781,11.4375 C19.425781,11.425781 19.425781,11.414062 19.429688,11.402344 C19.429688,11.398438 19.429688,11.390625 19.429688,11.386719 C19.429688,11.386719 19.433594,11.382812 19.433594,11.378906 C19.4375,11.375 19.4375,11.371094 19.4375,11.371094 C19.445312,11.363281 19.460938,11.351562 19.476562,11.34375 C19.488281,11.335938 19.5,11.328125 19.515625,11.316406 C19.542969,11.296875 19.632812,11.21875 19.59375,11.128906 C19.609375,11.128906 19.621094,11.125 19.636719,11.121094 C19.671875,11.109375 19.691406,11.082031 19.703125,11.066406 C19.707031,11.058594 19.714844,11.050781 19.71875,11.050781 C19.71875,11.046875 19.726562,11.046875 19.730469,11.042969 C19.742188,11.039062 19.757812,11.03125 19.773438,11.019531 C19.789062,11.007812 19.800781,10.992188 19.808594,10.980469 C19.8125,10.96875 19.820312,10.960938 19.824219,10.949219 L19.824219,10.945312 C19.839844,10.910156 19.867188,10.875 19.890625,10.839844 L8.84375,10.839844 C8.992188,10.554688 9.144531,10.273438 9.300781,9.992188 L20.605469,9.992188 C20.605469,9.988281 20.605469,9.984375 20.605469,9.980469 C20.609375,9.941406 20.636719,9.902344 20.660156,9.871094 C20.660156,9.867188 20.664062,9.867188 20.667969,9.863281 C20.738281,9.777344 20.828125,9.6875 20.929688,9.664062 C20.945312,9.660156 20.960938,9.660156 20.976562,9.660156 L21.027344,9.660156 C21.058594,9.660156 21.097656,9.65625 21.136719,9.640625 C21.199219,9.613281 21.242188,9.550781 21.246094,9.484375 C21.25,9.449219 21.242188,9.417969 21.222656,9.394531 C21.195312,9.363281 21.144531,9.351562 21.097656,9.359375 C21.09375,9.359375 21.089844,9.359375 21.085938,9.363281 C21.089844,9.355469 21.097656,9.347656 21.101562,9.335938 C21.109375,9.316406 21.117188,9.28125 21.109375,9.25 C21.136719,9.257812 21.164062,9.257812 21.191406,9.25 C21.25,9.238281 21.296875,9.1875 21.300781,9.132812 C21.300781,9.117188 21.300781,9.101562 21.300781,9.09375 C21.300781,9.089844 21.296875,9.089844 21.296875,9.089844 C21.296875,9.089844 21.300781,9.085938 21.300781,9.085938 C21.308594,9.082031 21.324219,9.074219 21.335938,9.070312 C21.355469,9.066406 21.371094,9.054688 21.378906,9.035156 C21.390625,9.007812 21.398438,8.976562 21.390625,8.945312 C21.402344,8.9375 21.421875,8.921875 21.425781,8.894531 C21.433594,8.871094 21.433594,8.847656 21.421875,8.824219 L9.972656,8.824219 C10.144531,8.539062 10.324219,8.253906 10.503906,7.972656 L21.195312,7.972656 C21.195312,7.960938 21.195312,7.949219 21.195312,7.9375 C21.199219,7.882812 21.210938,7.84375 21.234375,7.820312 C21.25,7.804688 21.269531,7.785156 21.28125,7.757812 C21.285156,7.746094 21.285156,7.738281 21.289062,7.730469 L21.289062,7.722656 C21.292969,7.714844 21.292969,7.707031 21.292969,7.699219 C21.296875,7.691406 21.300781,7.683594 21.300781,7.675781 C21.308594,7.632812 21.3125,7.589844 21.3125,7.550781 C21.3125,7.535156 21.316406,7.519531 21.316406,7.503906 L21.316406,7.46875 C21.316406,7.460938 21.316406,7.457031 21.3125,7.449219 C21.316406,7.441406 21.316406,7.433594 21.316406,7.425781 C21.320312,7.417969 21.320312,7.40625 21.320312,7.394531 C21.320312,7.382812 21.320312,7.371094 21.320312,7.355469 C21.328125,7.3125 21.304688,7.269531 21.261719,7.242188 C21.238281,7.226562 21.214844,7.21875 21.195312,7.214844 L21.183594,7.210938 C21.164062,7.203125 21.15625,7.199219 21.15625,7.195312 C21.148438,7.191406 21.144531,7.171875 21.144531,7.15625 L21.140625,7.144531 C21.140625,7.132812 21.136719,7.121094 21.132812,7.109375 C21.148438,7.109375 21.164062,7.113281 21.179688,7.113281 C21.171875,7.152344 21.183594,7.183594 21.210938,7.207031" id="Path" fill="#FFFFFF" fill-rule="nonzero"></path>
            <g id="Clipped">
                <mask id="mask-10" fill="white">
                    <use xlink:href="#path-9"></use>
                </mask>
                <g id="Path"></g>
                <path d="M5.832031,10.59375 L5.589844,10.75 L5.664062,10.472656 L5.4375,10.292969 L5.523438,10.289062 C5.636719,10.382812 5.746094,10.480469 5.855469,10.582031 C5.921875,10.640625 5.996094,10.695312 6.078125,10.75 L5.832031,10.59375 Z M4.78125,10.472656 L4.859375,10.75 L4.613281,10.59375 L4.367188,10.75 L4.445312,10.472656 L4.21875,10.292969 L4.507812,10.277344 L4.613281,10.007812 L4.71875,10.277344 L5.011719,10.292969 L4.78125,10.472656 Z M3.886719,9.386719 L3.640625,9.542969 L3.71875,9.265625 L3.492188,9.085938 L3.78125,9.070312 L3.808594,9.007812 L4.113281,9.21875 L4.054688,9.265625 L4.132812,9.542969 L3.886719,9.386719 Z M3.148438,8.335938 L3.226562,8.058594 L2.996094,7.878906 L3.289062,7.863281 L3.394531,7.59375 L3.5,7.863281 L3.789062,7.878906 L3.5625,8.058594 L3.640625,8.335938 L3.394531,8.179688 L3.148438,8.335938 Z M2.835938,9.265625 L2.910156,9.542969 L2.667969,9.386719 L2.421875,9.542969 L2.5,9.265625 L2.269531,9.085938 L2.5625,9.070312 L2.667969,8.800781 L2.769531,9.070312 L3.0625,9.085938 L2.835938,9.265625 Z M2.175781,8.179688 L1.929688,8.335938 L2.003906,8.058594 L1.777344,7.878906 L2.070312,7.863281 L2.175781,7.59375 L2.277344,7.863281 L2.570312,7.878906 L2.34375,8.058594 L2.417969,8.335938 L2.175781,8.179688 Z M1.445312,6.972656 L1.203125,7.132812 L1.277344,6.851562 L1.050781,6.671875 L1.34375,6.65625 L1.445312,6.386719 L1.550781,6.65625 L1.84375,6.671875 L1.617188,6.851562 L1.691406,7.132812 L1.445312,6.972656 Z M0.710938,5.925781 L0.785156,5.644531 L0.558594,5.464844 L0.851562,5.449219 L0.953125,5.179688 L1.058594,5.449219 L1.351562,5.464844 L1.121094,5.644531 L1.199219,5.925781 L0.953125,5.765625 L0.710938,5.925781 Z M1.34375,4.242188 L1.445312,3.972656 L1.550781,4.242188 L1.84375,4.257812 L1.617188,4.4375 L1.691406,4.71875 L1.445312,4.558594 L1.203125,4.71875 L1.277344,4.4375 L1.050781,4.257812 L1.34375,4.242188 Z M2.070312,3.035156 L2.175781,2.765625 L2.277344,3.035156 L2.570312,3.050781 L2.34375,3.230469 L2.417969,3.511719 L2.175781,3.351562 L1.929688,3.511719 L2.003906,3.230469 L1.777344,3.050781 L2.070312,3.035156 Z M2.5625,1.828125 L2.667969,1.558594 L2.769531,1.828125 L3.0625,1.84375 L2.835938,2.023438 L2.910156,2.304688 L2.667969,2.144531 L2.421875,2.304688 L2.5,2.023438 L2.269531,1.84375 L2.5625,1.828125 Z M3.394531,2.765625 L3.5,3.035156 L3.789062,3.050781 L3.5625,3.230469 L3.640625,3.511719 L3.394531,3.351562 L3.148438,3.511719 L3.226562,3.230469 L2.996094,3.050781 L3.289062,3.035156 L3.394531,2.765625 Z M3.992188,4.242188 L4.285156,4.257812 L4.054688,4.4375 L4.132812,4.71875 L3.886719,4.558594 L3.640625,4.71875 L3.71875,4.4375 L3.492188,4.257812 L3.78125,4.242188 L3.886719,3.972656 L3.992188,4.242188 Z M4.507812,3.035156 L4.613281,2.765625 L4.71875,3.035156 L5.011719,3.050781 L4.78125,3.230469 L4.859375,3.511719 L4.613281,3.351562 L4.367188,3.511719 L4.445312,3.230469 L4.21875,3.050781 L4.507812,3.035156 Z M5.210938,4.242188 L5.503906,4.257812 L5.273438,4.4375 L5.351562,4.71875 L5.105469,4.558594 L4.863281,4.71875 L4.9375,4.4375 L4.710938,4.257812 L5.003906,4.242188 L5.105469,3.972656 L5.210938,4.242188 Z M5.730469,3.035156 L5.832031,2.765625 L5.9375,3.035156 L6.230469,3.050781 L6.003906,3.230469 L6.078125,3.511719 L5.832031,3.351562 L5.589844,3.511719 L5.664062,3.230469 L5.4375,3.050781 L5.730469,3.035156 Z M6.429688,4.242188 L6.722656,4.257812 L6.496094,4.4375 L6.570312,4.71875 L6.328125,4.558594 L6.082031,4.71875 L6.15625,4.4375 L5.929688,4.257812 L6.222656,4.242188 L6.328125,3.972656 L6.429688,4.242188 Z M6.949219,3.035156 L7.054688,2.765625 L7.15625,3.035156 L7.449219,3.050781 L7.222656,3.230469 L7.296875,3.511719 L7.054688,3.351562 L6.808594,3.511719 L6.886719,3.230469 L6.65625,3.050781 L6.949219,3.035156 Z M7.652344,4.242188 L7.941406,4.257812 L7.714844,4.4375 L7.792969,4.71875 L7.546875,4.558594 L7.300781,4.71875 L7.378906,4.4375 L7.148438,4.257812 L7.441406,4.242188 L7.546875,3.972656 L7.652344,4.242188 Z M8.167969,3.035156 L8.273438,2.765625 L8.378906,3.035156 L8.667969,3.050781 L8.441406,3.230469 L8.519531,3.511719 L8.273438,3.351562 L8.027344,3.511719 L8.105469,3.230469 L7.878906,3.050781 L8.167969,3.035156 Z M8.871094,4.242188 L9.164062,4.257812 L8.933594,4.4375 L9.011719,4.71875 L8.765625,4.558594 L8.519531,4.71875 L8.597656,4.4375 L8.371094,4.257812 L8.660156,4.242188 L8.765625,3.972656 L8.871094,4.242188 Z M9.390625,3.035156 L9.492188,2.765625 L9.597656,3.035156 L9.890625,3.050781 L9.660156,3.230469 L9.738281,3.511719 L9.492188,3.351562 L9.25,3.511719 L9.324219,3.230469 L9.097656,3.050781 L9.390625,3.035156 Z M10.089844,4.242188 L10.382812,4.257812 L10.15625,4.4375 L10.230469,4.71875 L9.984375,4.558594 L9.742188,4.71875 L9.816406,4.4375 L9.589844,4.257812 L9.882812,4.242188 L9.984375,3.972656 L10.089844,4.242188 Z M10.609375,3.035156 L10.714844,2.765625 L10.816406,3.035156 L11.109375,3.050781 L10.882812,3.230469 L10.957031,3.511719 L10.714844,3.351562 L10.46875,3.511719 L10.542969,3.230469 L10.316406,3.050781 L10.609375,3.035156 Z M9.261719,5.878906 L9.324219,5.644531 L9.097656,5.464844 L9.390625,5.449219 L9.492188,5.179688 L9.597656,5.449219 L9.636719,5.453125 C9.511719,5.59375 9.386719,5.734375 9.261719,5.878906 Z M8.714844,6.523438 L8.765625,6.386719 L8.785156,6.4375 C8.761719,6.464844 8.738281,6.496094 8.714844,6.523438 Z M8.441406,5.644531 L8.519531,5.925781 L8.273438,5.765625 L8.027344,5.925781 L8.105469,5.644531 L7.878906,5.464844 L8.167969,5.449219 L8.273438,5.179688 L8.378906,5.449219 L8.667969,5.464844 L8.441406,5.644531 Z M8.503906,6.777344 L8.371094,6.671875 L8.601562,6.660156 C8.570312,6.699219 8.535156,6.738281 8.503906,6.777344 Z M7.792969,7.132812 L7.546875,6.972656 L7.300781,7.132812 L7.378906,6.851562 L7.148438,6.671875 L7.441406,6.65625 L7.546875,6.386719 L7.652344,6.65625 L7.941406,6.671875 L7.714844,6.851562 L7.792969,7.132812 Z M7.296875,8.328125 C7.296875,8.332031 7.292969,8.332031 7.292969,8.332031 L7.054688,8.179688 L6.808594,8.335938 L6.886719,8.058594 L6.65625,7.878906 L6.949219,7.863281 L7.054688,7.59375 L7.15625,7.863281 L7.449219,7.878906 L7.222656,8.058594 L7.296875,8.328125 Z M7.296875,5.925781 L7.054688,5.765625 L6.808594,5.925781 L6.886719,5.644531 L6.65625,5.464844 L6.949219,5.449219 L7.054688,5.179688 L7.15625,5.449219 L7.449219,5.464844 L7.222656,5.644531 L7.296875,5.925781 Z M6.328125,6.972656 L6.082031,7.132812 L6.15625,6.851562 L5.929688,6.671875 L6.222656,6.65625 L6.328125,6.386719 L6.429688,6.65625 L6.722656,6.671875 L6.496094,6.851562 L6.570312,7.132812 L6.328125,6.972656 Z M6.078125,8.335938 L5.832031,8.179688 L5.589844,8.335938 L5.664062,8.058594 L5.4375,7.878906 L5.730469,7.863281 L5.832031,7.59375 L5.9375,7.863281 L6.230469,7.878906 L6.003906,8.058594 L6.078125,8.335938 Z M6.078125,5.925781 L5.832031,5.765625 L5.589844,5.925781 L5.664062,5.644531 L5.4375,5.464844 L5.730469,5.449219 L5.832031,5.179688 L5.9375,5.449219 L6.230469,5.464844 L6.003906,5.644531 L6.078125,5.925781 Z M5.105469,6.972656 L4.863281,7.132812 L4.9375,6.851562 L4.710938,6.671875 L5.003906,6.65625 L5.105469,6.386719 L5.210938,6.65625 L5.503906,6.671875 L5.273438,6.851562 L5.351562,7.132812 L5.105469,6.972656 Z M4.824219,8.207031 L4.734375,8.257812 L4.613281,8.179688 L4.367188,8.335938 L4.445312,8.058594 L4.21875,7.878906 L4.507812,7.863281 L4.613281,7.59375 L4.71875,7.863281 L5.011719,7.878906 L4.78125,8.058594 L4.824219,8.207031 Z M4.859375,5.925781 L4.613281,5.765625 L4.367188,5.925781 L4.445312,5.644531 L4.21875,5.464844 L4.507812,5.449219 L4.613281,5.179688 L4.71875,5.449219 L5.011719,5.464844 L4.78125,5.644531 L4.859375,5.925781 Z M2.910156,4.71875 L2.667969,4.558594 L2.421875,4.71875 L2.5,4.4375 L2.269531,4.257812 L2.5625,4.242188 L2.667969,3.972656 L2.769531,4.242188 L3.0625,4.257812 L2.835938,4.4375 L2.910156,4.71875 Z M1.777344,5.464844 L2.070312,5.449219 L2.175781,5.179688 L2.277344,5.449219 L2.570312,5.464844 L2.34375,5.644531 L2.417969,5.925781 L2.175781,5.765625 L1.929688,5.925781 L2.003906,5.644531 L1.777344,5.464844 Z M2.910156,7.132812 L2.667969,6.972656 L2.421875,7.132812 L2.5,6.851562 L2.269531,6.671875 L2.5625,6.65625 L2.667969,6.386719 L2.769531,6.65625 L3.0625,6.671875 L2.835938,6.851562 L2.910156,7.132812 Z M2.996094,5.464844 L3.289062,5.449219 L3.394531,5.179688 L3.5,5.449219 L3.789062,5.464844 L3.5625,5.644531 L3.640625,5.925781 L3.394531,5.765625 L3.148438,5.925781 L3.226562,5.644531 L2.996094,5.464844 Z M3.886719,6.972656 L3.640625,7.132812 L3.71875,6.851562 L3.492188,6.671875 L3.78125,6.65625 L3.886719,6.386719 L3.992188,6.65625 L4.285156,6.671875 L4.054688,6.851562 L4.132812,7.132812 L3.886719,6.972656 Z M11.828125,3.035156 L11.933594,2.765625 L12.019531,2.988281 C11.933594,3.066406 11.847656,3.148438 11.765625,3.230469 L11.535156,3.050781 L11.828125,3.035156 Z M5.933594,10.496094 C5.488281,10.089844 5,9.699219 4.46875,9.332031 L3.871094,8.914062 L5.066406,8.191406 L5.3125,8.332031 C5.828125,8.617188 6.316406,8.921875 6.78125,9.238281 C9,6.078125 11.675781,3.234375 14.714844,0.765625 C13.992188,1.285156 13.28125,1.8125 12.636719,2.40625 C12.625,2.40625 12.617188,2.40625 12.609375,2.402344 L12.601562,2.402344 C12.578125,2.402344 12.554688,2.40625 12.535156,2.414062 C12.515625,2.417969 12.5,2.429688 12.492188,2.441406 C12.488281,2.453125 12.484375,2.464844 12.484375,2.476562 C12.484375,2.5 12.484375,2.523438 12.488281,2.546875 C12.460938,2.566406 12.4375,2.589844 12.414062,2.613281 C12.292969,2.613281 12.171875,2.613281 12.050781,2.617188 L11.785156,2.617188 C11.777344,2.617188 11.769531,2.621094 11.765625,2.621094 C11.757812,2.621094 11.75,2.621094 11.742188,2.621094 C11.644531,2.621094 11.546875,2.621094 11.449219,2.621094 C11.394531,2.621094 11.339844,2.621094 11.289062,2.621094 C10.949219,2.621094 10.574219,2.617188 10.183594,2.597656 C10.148438,2.59375 10.117188,2.59375 10.085938,2.589844 C10,2.585938 9.910156,2.578125 9.824219,2.570312 C9.785156,2.570312 9.746094,2.566406 9.707031,2.5625 C9.582031,2.550781 9.457031,2.539062 9.332031,2.519531 C9.332031,2.519531 9.3125,2.519531 9.3125,2.519531 C9.308594,2.519531 9.304688,2.519531 9.300781,2.519531 C9.292969,2.519531 9.289062,2.515625 9.28125,2.515625 C9.136719,2.496094 8.992188,2.480469 8.851562,2.464844 C8.714844,2.449219 8.582031,2.433594 8.453125,2.421875 C8.414062,2.417969 8.378906,2.414062 8.34375,2.410156 C8.09375,2.382812 7.839844,2.351562 7.585938,2.324219 C7.496094,2.3125 7.410156,2.300781 7.320312,2.289062 L7.300781,2.304688 L7.304688,2.289062 C7.210938,2.277344 7.117188,2.261719 7.019531,2.25 C6.859375,2.226562 6.695312,2.203125 6.535156,2.171875 L6.570312,2.304688 L6.328125,2.144531 L6.082031,2.304688 L6.136719,2.101562 C6.085938,2.089844 6.03125,2.078125 5.976562,2.070312 C5.851562,2.042969 5.726562,2.019531 5.597656,1.996094 L5.59375,1.996094 C5.519531,1.980469 5.445312,1.964844 5.367188,1.949219 L5.273438,2.023438 L5.351562,2.304688 L5.105469,2.144531 L4.863281,2.304688 L4.9375,2.023438 L4.710938,1.84375 L4.800781,1.839844 C4.726562,1.824219 4.652344,1.808594 4.578125,1.792969 C4.570312,1.792969 4.5625,1.792969 4.558594,1.792969 C4.550781,1.789062 4.546875,1.789062 4.539062,1.785156 C4.464844,1.769531 4.394531,1.757812 4.324219,1.742188 L4.304688,1.738281 C4.179688,1.710938 4.050781,1.683594 3.925781,1.65625 L3.992188,1.828125 L4.285156,1.84375 L4.054688,2.023438 L4.132812,2.304688 L3.886719,2.144531 L3.640625,2.304688 L3.71875,2.023438 L3.492188,1.84375 L3.78125,1.828125 L3.855469,1.644531 C3.441406,1.550781 3.027344,1.449219 2.636719,1.296875 C2.613281,1.285156 2.574219,1.273438 2.53125,1.277344 C2.480469,1.28125 2.425781,1.316406 2.417969,1.375 C2.410156,1.421875 2.433594,1.457031 2.449219,1.476562 L2.453125,1.484375 C2.484375,1.527344 2.492188,1.585938 2.480469,1.640625 C2.476562,1.628906 2.472656,1.621094 2.464844,1.613281 C2.453125,1.601562 2.4375,1.59375 2.421875,1.59375 C2.40625,1.59375 2.394531,1.59375 2.378906,1.59375 C2.351562,1.601562 2.328125,1.613281 2.316406,1.632812 C2.296875,1.652344 2.292969,1.679688 2.292969,1.695312 C2.207031,1.703125 2.121094,1.6875 2.042969,1.648438 C1.949219,1.601562 1.886719,1.546875 1.847656,1.484375 C1.835938,1.464844 1.820312,1.433594 1.792969,1.414062 C1.753906,1.382812 1.699219,1.375 1.65625,1.398438 C1.613281,1.421875 1.597656,1.46875 1.59375,1.492188 C1.574219,1.554688 1.558594,1.625 1.578125,1.699219 C1.582031,1.71875 1.597656,1.734375 1.613281,1.742188 C1.613281,1.746094 1.613281,1.753906 1.613281,1.761719 L1.613281,1.777344 C1.613281,1.792969 1.613281,1.8125 1.617188,1.832031 L1.84375,1.84375 L1.617188,2.023438 L1.691406,2.304688 L1.609375,2.25 C1.609375,2.253906 1.605469,2.253906 1.605469,2.257812 C1.578125,2.296875 1.578125,2.347656 1.605469,2.386719 C1.617188,2.402344 1.632812,2.410156 1.644531,2.417969 L1.648438,2.421875 C1.65625,2.425781 1.660156,2.4375 1.660156,2.445312 C1.660156,2.449219 1.660156,2.449219 1.660156,2.453125 C1.601562,2.449219 1.546875,2.496094 1.542969,2.550781 C1.539062,2.585938 1.554688,2.613281 1.566406,2.632812 C1.570312,2.636719 1.574219,2.640625 1.574219,2.644531 C1.574219,2.648438 1.574219,2.648438 1.574219,2.652344 C1.570312,2.65625 1.570312,2.65625 1.566406,2.660156 C1.5625,2.667969 1.558594,2.675781 1.550781,2.683594 L1.546875,2.691406 C1.492188,2.769531 1.472656,2.855469 1.457031,2.9375 L1.445312,2.988281 C1.429688,3.050781 1.417969,3.117188 1.375,3.144531 C1.34375,3.171875 1.316406,3.207031 1.304688,3.257812 C1.296875,3.277344 1.292969,3.300781 1.289062,3.320312 C1.289062,3.332031 1.285156,3.34375 1.285156,3.355469 C1.277344,3.386719 1.265625,3.417969 1.253906,3.449219 C1.25,3.453125 1.25,3.457031 1.25,3.460938 C1.242188,3.480469 1.234375,3.5 1.230469,3.519531 C1.226562,3.527344 1.226562,3.53125 1.226562,3.539062 C1.21875,3.554688 1.214844,3.574219 1.207031,3.585938 C1.175781,3.632812 1.15625,3.683594 1.136719,3.730469 C1.117188,3.773438 1.097656,3.820312 1.074219,3.859375 C1,3.972656 0.929688,4.085938 0.855469,4.199219 C0.847656,4.210938 0.839844,4.226562 0.828125,4.242188 L0.808594,4.273438 C0.789062,4.289062 0.773438,4.3125 0.765625,4.335938 C0.757812,4.359375 0.757812,4.382812 0.757812,4.402344 C0.757812,4.476562 0.757812,4.554688 0.757812,4.632812 C0.757812,4.664062 0.757812,4.695312 0.757812,4.722656 C0.757812,4.761719 0.757812,4.800781 0.757812,4.84375 C0.75,4.847656 0.746094,4.851562 0.742188,4.859375 C0.738281,4.867188 0.734375,4.878906 0.730469,4.890625 C0.726562,4.914062 0.722656,4.9375 0.722656,4.957031 C0.722656,4.980469 0.722656,5 0.726562,5.023438 C0.726562,5.066406 0.730469,5.113281 0.71875,5.144531 C0.714844,5.152344 0.714844,5.15625 0.710938,5.164062 C0.675781,5.257812 0.640625,5.347656 0.601562,5.429688 C0.53125,5.460938 0.480469,5.5 0.453125,5.550781 C0.421875,5.597656 0.414062,5.652344 0.40625,5.699219 C0.402344,5.730469 0.40625,5.761719 0.40625,5.792969 C0.410156,5.808594 0.414062,5.820312 0.421875,5.828125 C0.457031,5.871094 0.488281,5.910156 0.511719,5.953125 C0.519531,5.964844 0.527344,5.988281 0.539062,6.015625 C0.546875,6.042969 0.554688,6.078125 0.558594,6.109375 C0.558594,6.144531 0.550781,6.175781 0.53125,6.203125 C0.503906,6.246094 0.480469,6.296875 0.464844,6.351562 C0.457031,6.382812 0.449219,6.417969 0.449219,6.453125 C0.449219,6.460938 0.449219,6.464844 0.449219,6.472656 C0.449219,6.511719 0.453125,6.550781 0.464844,6.585938 C0.46875,6.609375 0.476562,6.636719 0.492188,6.664062 L0.625,6.671875 L0.542969,6.734375 C0.550781,6.742188 0.558594,6.746094 0.566406,6.753906 C0.574219,6.757812 0.582031,6.761719 0.585938,6.769531 C0.589844,6.769531 0.589844,6.773438 0.589844,6.773438 C0.574219,6.808594 0.582031,6.851562 0.597656,6.882812 C0.609375,6.90625 0.625,6.921875 0.640625,6.9375 C0.644531,6.941406 0.648438,6.945312 0.652344,6.949219 C0.65625,6.953125 0.65625,6.953125 0.660156,6.957031 C0.636719,6.992188 0.625,7.03125 0.625,7.074219 C0.628906,7.121094 0.648438,7.171875 0.6875,7.203125 C0.699219,7.21875 0.714844,7.226562 0.730469,7.238281 C0.738281,7.242188 0.746094,7.25 0.753906,7.257812 C0.757812,7.261719 0.761719,7.265625 0.761719,7.265625 C0.761719,7.273438 0.761719,7.28125 0.761719,7.285156 C0.761719,7.292969 0.761719,7.304688 0.765625,7.308594 C0.765625,7.308594 0.765625,7.3125 0.765625,7.316406 C0.761719,7.324219 0.757812,7.332031 0.753906,7.339844 L0.75,7.351562 C0.707031,7.460938 0.703125,7.585938 0.746094,7.691406 C0.746094,7.695312 0.746094,7.699219 0.75,7.703125 C0.761719,7.71875 0.777344,7.730469 0.796875,7.734375 C0.800781,7.734375 0.804688,7.738281 0.808594,7.746094 L0.8125,7.753906 C0.824219,7.777344 0.839844,7.800781 0.867188,7.820312 L0.953125,7.59375 L1.058594,7.863281 L1.351562,7.878906 L1.121094,8.058594 L1.199219,8.335938 L0.953125,8.179688 L0.851562,8.246094 C0.863281,8.261719 0.875,8.273438 0.886719,8.285156 C0.894531,8.292969 0.902344,8.300781 0.910156,8.308594 C0.917969,8.320312 0.921875,8.328125 0.925781,8.332031 C0.910156,8.382812 0.925781,8.429688 0.941406,8.46875 C0.972656,8.554688 1.003906,8.640625 1.058594,8.722656 C1.066406,8.730469 1.074219,8.738281 1.078125,8.75 C1.097656,8.777344 1.117188,8.800781 1.121094,8.824219 C1.125,8.835938 1.128906,8.847656 1.136719,8.855469 C1.179688,8.90625 1.191406,8.976562 1.164062,9.035156 L1.15625,9.050781 C1.152344,9.058594 1.148438,9.070312 1.144531,9.078125 L1.34375,9.070312 L1.445312,8.800781 L1.550781,9.070312 L1.84375,9.085938 L1.617188,9.265625 L1.691406,9.542969 L1.445312,9.386719 L1.402344,9.414062 C1.429688,9.425781 1.453125,9.445312 1.46875,9.464844 C1.484375,9.480469 1.5,9.488281 1.519531,9.488281 C1.519531,9.488281 1.527344,9.488281 1.53125,9.488281 C1.542969,9.484375 1.558594,9.484375 1.574219,9.484375 C1.589844,9.484375 1.59375,9.488281 1.597656,9.488281 C1.605469,9.492188 1.613281,9.507812 1.621094,9.519531 C1.625,9.527344 1.628906,9.53125 1.632812,9.539062 C1.640625,9.550781 1.648438,9.5625 1.65625,9.574219 C1.667969,9.589844 1.679688,9.605469 1.683594,9.617188 C1.6875,9.621094 1.6875,9.628906 1.691406,9.636719 C1.695312,9.65625 1.703125,9.679688 1.722656,9.703125 C1.75,9.734375 1.78125,9.746094 1.808594,9.753906 L1.820312,9.757812 C1.828125,9.761719 1.835938,9.765625 1.835938,9.769531 C1.839844,9.78125 1.847656,9.792969 1.859375,9.800781 C1.890625,9.820312 1.921875,9.820312 1.933594,9.820312 C1.9375,9.820312 1.957031,9.820312 1.960938,9.820312 C1.972656,9.820312 1.984375,9.828125 1.992188,9.839844 C1.996094,9.847656 1.996094,9.855469 1.996094,9.859375 C1.992188,9.863281 1.988281,9.867188 1.988281,9.871094 C1.964844,9.898438 1.957031,9.933594 1.976562,9.964844 C1.988281,9.984375 2.007812,9.996094 2.03125,10 C2.054688,10 2.078125,10 2.101562,10 L2.136719,10 C2.160156,10 2.179688,10 2.207031,10 C2.222656,10 2.238281,9.992188 2.25,9.980469 C2.253906,9.980469 2.257812,9.984375 2.257812,9.984375 C2.277344,9.996094 2.289062,10.015625 2.304688,10.039062 L2.324219,10.0625 C2.363281,10.113281 2.402344,10.167969 2.402344,10.222656 C2.402344,10.242188 2.402344,10.261719 2.402344,10.28125 L2.570312,10.292969 L2.402344,10.425781 C2.402344,10.464844 2.402344,10.503906 2.402344,10.542969 C2.398438,10.574219 2.425781,10.601562 2.457031,10.605469 L3.167969,10.6875 L3.226562,10.472656 L2.996094,10.292969 L3.289062,10.277344 L3.394531,10.007812 L3.5,10.277344 L3.789062,10.292969 L3.5625,10.472656 L3.640625,10.75 L3.394531,10.59375 L3.234375,10.695312 L3.382812,10.714844 C3.390625,10.714844 3.398438,10.714844 3.414062,10.714844 C3.433594,10.71875 3.449219,10.71875 3.464844,10.722656 C3.457031,10.746094 3.449219,10.777344 3.460938,10.8125 C3.476562,10.851562 3.511719,10.867188 3.527344,10.875 L3.625,10.925781 C3.660156,10.945312 3.691406,10.960938 3.722656,10.980469 C3.773438,11.007812 3.820312,11.035156 3.863281,11.058594 C3.898438,11.082031 3.933594,11.101562 3.96875,11.121094 L4.222656,11.273438 C4.265625,11.296875 4.308594,11.320312 4.351562,11.339844 C4.402344,11.367188 4.453125,11.394531 4.5,11.425781 L4.828125,11.628906 C4.851562,11.644531 4.871094,11.660156 4.894531,11.675781 C4.90625,11.683594 4.917969,11.691406 4.933594,11.699219 L4.9375,11.679688 L4.710938,11.5 L5.003906,11.484375 L5.105469,11.214844 L5.210938,11.484375 L5.503906,11.5 L5.273438,11.679688 L5.3125,11.820312 C5.34375,11.824219 5.371094,11.828125 5.402344,11.832031 L5.414062,11.832031 C5.535156,11.851562 5.660156,11.867188 5.785156,11.878906 C5.863281,11.886719 5.945312,11.894531 6.039062,11.90625 L6.046875,11.90625 C6.050781,11.90625 6.054688,11.90625 6.058594,11.902344 C6.0625,11.90625 6.070312,11.910156 6.078125,11.910156 C6.082031,11.910156 6.089844,11.910156 6.09375,11.910156 L6.15625,11.679688 L5.929688,11.5 L6.222656,11.484375 L6.328125,11.214844 L6.429688,11.484375 L6.722656,11.5 L6.496094,11.679688 L6.523438,11.777344 L6.527344,11.714844 C6.574219,11.714844 6.617188,11.71875 6.660156,11.71875 C6.78125,11.726562 6.878906,11.734375 6.964844,11.742188 C7.019531,11.75 7.074219,11.757812 7.132812,11.769531 L7.148438,11.773438 C6.902344,11.472656 6.640625,11.183594 6.355469,10.898438 C6.21875,10.765625 6.078125,10.628906 5.933594,10.496094 L5.933594,10.496094 Z" id="Shape" fill="#FFFFFF" fill-rule="nonzero" mask="url(#mask-10)"></path>
            </g>
        </g>
    </g>
</svg>