<?xml version="1.0" encoding="UTF-8"?>
<svg xmlns="http://www.w3.org/2000/svg" xmlns:xlink="http://www.w3.org/1999/xlink" width="30pt" height="30.000001pt" viewBox="0 0 30 30.000001" version="1.2">
<defs>
<clipPath id="clip1">
  <path d="M 3.386719 7.546875 L 26.613281 7.546875 L 26.613281 21.339844 L 3.386719 21.339844 Z M 3.386719 7.546875 "/>
</clipPath>
<clipPath id="clip2">
  <path d="M 11 18 L 19 18 L 19 21.28125 L 11 21.28125 Z M 11 18 "/>
</clipPath>
<clipPath id="clip3">
  <path d="M 23 8 L 26.613281 8 L 26.613281 10 L 23 10 Z M 23 8 "/>
</clipPath>
<clipPath id="clip4">
  <path d="M 21 18 L 24 18 L 24 21.28125 L 21 21.28125 Z M 21 18 "/>
</clipPath>
<clipPath id="clip5">
  <path d="M 3.386719 6.765625 L 18 6.765625 L 18 18 L 3.386719 18 Z M 3.386719 6.765625 "/>
</clipPath>
</defs>
<g id="surface1">
<g clip-path="url(#clip1)" clip-rule="nonzero">
<path style=" stroke:none;fill-rule:nonzero;fill:rgb(100%,83.918762%,3.529358%);fill-opacity:1;" d="M 26.605469 9.082031 L 25.574219 7.546875 L 24.542969 7.546875 L 24.542969 9.082031 L 23.511719 9.589844 L 22.996094 10.613281 L 21.964844 11.125 L 21.964844 11.632812 L 20.929688 12.144531 L 20.929688 11.125 L 19.898438 10.101562 L 19.898438 9.589844 L 19.382812 9.589844 L 19.382812 11.125 L 18.867188 11.125 L 18.867188 9.589844 L 17.835938 9.589844 L 17.835938 9.082031 L 15.773438 8.570312 L 11.648438 8.570312 L 5.457031 7.546875 L 5.457031 8.570312 L 4.941406 7.546875 L 4.425781 7.546875 L 4.425781 9.082031 L 3.910156 10.613281 L 3.910156 11.125 L 3.394531 11.632812 L 3.910156 13.675781 L 4.425781 15.210938 L 5.457031 16.230469 L 5.457031 16.742188 L 7.003906 16.742188 L 8.035156 17.761719 L 10.617188 17.761719 L 11.132812 18.785156 L 12.164062 19.804688 L 12.164062 19.296875 L 13.195312 19.296875 L 13.195312 19.804688 L 14.226562 21.339844 L 14.742188 21.339844 L 14.742188 20.316406 L 16.289062 19.296875 L 18.867188 19.296875 L 18.867188 18.785156 L 21.449219 18.785156 L 21.964844 19.296875 L 21.964844 19.804688 L 22.996094 20.828125 L 22.996094 21.339844 L 23.511719 21.339844 L 23.511719 19.804688 L 22.480469 18.273438 L 22.480469 17.253906 L 23.511719 16.230469 L 24.542969 14.1875 L 24.542969 12.65625 L 26.089844 10.613281 L 25.574219 10.613281 Z M 22.996094 19.960938 L 22.996094 20.105469 L 22.480469 19.59375 L 22.480469 19.195312 Z M 24.027344 12.484375 L 24.027344 14.066406 L 23.085938 15.929688 L 21.964844 17.042969 L 21.964844 18.429688 L 22.253906 18.863281 L 21.660156 18.273438 L 18.351562 18.273438 L 18.351562 18.785156 L 16.132812 18.785156 L 14.226562 20.042969 L 14.226562 20.417969 L 13.710938 19.652344 L 13.710938 18.785156 L 11.859375 18.785156 L 11.554688 18.480469 L 10.933594 17.253906 L 8.25 17.253906 L 7.21875 16.230469 L 5.972656 16.230469 L 5.972656 16.019531 L 4.878906 14.933594 L 4.398438 13.515625 L 3.964844 11.792969 L 4.425781 11.335938 L 4.425781 10.695312 L 4.941406 9.164062 L 4.941406 8.691406 L 4.996094 8.796875 L 5.972656 8.570312 L 5.972656 8.152344 L 11.605469 9.082031 L 15.710938 9.082031 L 17.320312 9.480469 L 17.320312 10.101562 L 18.351562 10.101562 L 18.351562 11.632812 L 19.898438 11.632812 L 19.898438 10.824219 L 20.414062 11.335938 L 20.414062 12.972656 L 22.480469 11.949219 L 22.480469 11.4375 L 23.378906 10.992188 L 23.894531 9.972656 L 25.058594 9.394531 L 25.058594 8.058594 L 25.296875 8.058594 L 25.984375 9.082031 L 24.609375 11.125 L 25.058594 11.125 Z M 24.027344 12.484375 "/>
</g>
<path style=" stroke:none;fill-rule:nonzero;fill:rgb(100%,83.918762%,3.529358%);fill-opacity:1;" d="M 20.410156 18.871094 C 20.4375 18.90625 20.476562 18.914062 20.492188 18.917969 C 20.574219 18.933594 20.664062 18.910156 20.730469 18.859375 L 20.40625 18.859375 C 20.40625 18.863281 20.410156 18.867188 20.410156 18.871094 "/>
<g clip-path="url(#clip2)" clip-rule="nonzero">
<path style=" stroke:none;fill-rule:nonzero;fill:rgb(100%,83.918762%,3.529358%);fill-opacity:1;" d="M 18.75 19.226562 C 18.707031 19.203125 18.664062 19.175781 18.609375 19.164062 C 18.589844 19.160156 18.574219 19.15625 18.554688 19.152344 C 18.535156 19.152344 18.519531 19.148438 18.503906 19.144531 C 18.5 19.140625 18.496094 19.140625 18.492188 19.140625 C 18.503906 19.132812 18.515625 19.125 18.523438 19.113281 C 18.527344 19.113281 18.53125 19.113281 18.535156 19.113281 C 18.566406 19.113281 18.59375 19.097656 18.613281 19.070312 C 18.628906 19.050781 18.632812 19.027344 18.636719 19.011719 C 18.648438 18.964844 18.644531 18.914062 18.625 18.867188 C 18.625 18.863281 18.625 18.859375 18.625 18.859375 L 11 18.859375 C 11.011719 18.945312 11.070312 19.015625 11.109375 19.070312 C 11.140625 19.105469 11.171875 19.144531 11.214844 19.179688 C 11.246094 19.203125 11.28125 19.222656 11.316406 19.242188 L 11.335938 19.253906 C 11.390625 19.285156 11.445312 19.320312 11.492188 19.359375 L 11.503906 19.367188 C 11.53125 19.386719 11.558594 19.410156 11.597656 19.425781 C 11.648438 19.453125 11.707031 19.457031 11.753906 19.4375 C 11.820312 19.410156 11.855469 19.347656 11.875 19.308594 C 11.890625 19.277344 11.902344 19.246094 11.914062 19.222656 C 11.9375 19.167969 11.957031 19.117188 11.992188 19.082031 C 12.039062 19.039062 12.105469 19.011719 12.167969 19.011719 L 12.179688 19.007812 C 12.195312 19.007812 12.207031 19.011719 12.21875 19.015625 C 12.226562 19.019531 12.234375 19.023438 12.242188 19.03125 C 12.253906 19.035156 12.261719 19.039062 12.269531 19.042969 C 12.3125 19.066406 12.367188 19.078125 12.433594 19.082031 C 12.464844 19.082031 12.507812 19.078125 12.550781 19.074219 C 12.648438 19.125 12.722656 19.1875 12.773438 19.261719 L 12.863281 19.390625 C 12.875 19.414062 12.890625 19.433594 12.902344 19.457031 C 12.90625 19.460938 12.914062 19.46875 12.917969 19.476562 C 12.925781 19.496094 12.933594 19.515625 12.945312 19.539062 C 12.953125 19.570312 12.96875 19.605469 12.988281 19.636719 C 13.003906 19.667969 13.011719 19.710938 13.015625 19.757812 C 13.023438 19.816406 13.039062 19.878906 13.074219 19.929688 C 13.085938 19.945312 13.105469 19.957031 13.125 19.957031 C 13.152344 19.957031 13.175781 19.972656 13.1875 20 C 13.191406 20.003906 13.195312 20.011719 13.199219 20.019531 C 13.203125 20.03125 13.207031 20.046875 13.21875 20.058594 C 13.230469 20.082031 13.246094 20.097656 13.261719 20.113281 C 13.269531 20.125 13.28125 20.132812 13.285156 20.144531 C 13.292969 20.152344 13.292969 20.160156 13.296875 20.171875 C 13.300781 20.179688 13.304688 20.1875 13.308594 20.199219 C 13.324219 20.242188 13.355469 20.269531 13.390625 20.28125 C 13.410156 20.285156 13.425781 20.289062 13.449219 20.285156 C 13.441406 20.316406 13.4375 20.347656 13.429688 20.378906 C 13.425781 20.421875 13.433594 20.457031 13.460938 20.480469 C 13.46875 20.488281 13.476562 20.492188 13.484375 20.496094 L 13.46875 20.542969 C 13.464844 20.554688 13.457031 20.578125 13.460938 20.601562 C 13.46875 20.632812 13.488281 20.65625 13.515625 20.671875 C 13.523438 20.675781 13.53125 20.679688 13.542969 20.683594 C 13.546875 20.683594 13.546875 20.683594 13.550781 20.6875 C 13.5625 20.691406 13.570312 20.699219 13.574219 20.710938 C 13.585938 20.726562 13.585938 20.75 13.585938 20.773438 L 13.585938 20.78125 C 13.585938 20.792969 13.589844 20.808594 13.589844 20.824219 C 13.59375 20.839844 13.59375 20.859375 13.601562 20.878906 C 13.621094 20.933594 13.65625 20.972656 13.703125 20.984375 C 13.707031 20.984375 13.710938 20.988281 13.722656 20.984375 C 13.726562 20.984375 13.730469 20.988281 13.734375 20.992188 C 13.742188 20.996094 13.746094 21 13.753906 21.007812 C 13.761719 21.011719 13.765625 21.015625 13.773438 21.019531 C 13.835938 21.070312 13.917969 21.09375 13.996094 21.085938 C 14.042969 21.152344 14.128906 21.191406 14.210938 21.179688 C 14.226562 21.179688 14.242188 21.175781 14.257812 21.171875 C 14.273438 21.167969 14.285156 21.167969 14.300781 21.167969 C 14.324219 21.167969 14.347656 21.1875 14.355469 21.195312 C 14.363281 21.199219 14.371094 21.203125 14.378906 21.210938 C 14.398438 21.226562 14.417969 21.242188 14.441406 21.253906 C 14.472656 21.269531 14.507812 21.28125 14.535156 21.28125 C 14.554688 21.28125 14.574219 21.277344 14.589844 21.269531 C 14.648438 21.25 14.695312 21.183594 14.671875 21.113281 C 14.660156 21.089844 14.644531 21.070312 14.628906 21.054688 C 14.625 21.050781 14.625 21.046875 14.621094 21.046875 C 14.613281 21.03125 14.613281 21.003906 14.613281 20.972656 L 14.613281 20.953125 C 14.613281 20.910156 14.609375 20.867188 14.597656 20.824219 C 14.589844 20.785156 14.574219 20.75 14.558594 20.71875 C 14.558594 20.601562 14.582031 20.480469 14.632812 20.375 C 14.636719 20.371094 14.640625 20.367188 14.644531 20.359375 C 14.660156 20.332031 14.683594 20.289062 14.667969 20.242188 C 14.660156 20.226562 14.652344 20.214844 14.644531 20.203125 C 14.644531 20.203125 14.648438 20.203125 14.648438 20.203125 L 14.660156 20.203125 C 14.699219 20.203125 14.75 20.179688 14.769531 20.125 C 14.773438 20.117188 14.773438 20.109375 14.773438 20.101562 C 14.777344 20.097656 14.78125 20.09375 14.785156 20.089844 L 14.808594 20.042969 C 14.882812 20.03125 14.9375 19.988281 14.988281 19.949219 C 15.019531 19.925781 15.050781 19.902344 15.085938 19.890625 L 15.300781 19.792969 C 15.324219 19.78125 15.347656 19.769531 15.371094 19.757812 C 15.386719 19.753906 15.402344 19.746094 15.417969 19.742188 C 15.457031 19.726562 15.507812 19.710938 15.542969 19.667969 C 15.59375 19.605469 15.65625 19.550781 15.722656 19.5 C 15.734375 19.496094 15.742188 19.488281 15.753906 19.480469 L 15.738281 19.460938 L 15.757812 19.480469 C 15.769531 19.472656 15.78125 19.464844 15.792969 19.457031 C 15.804688 19.445312 15.820312 19.433594 15.835938 19.421875 C 15.863281 19.398438 15.886719 19.371094 15.90625 19.347656 C 15.910156 19.339844 15.914062 19.332031 15.917969 19.324219 C 15.921875 19.324219 15.921875 19.320312 15.925781 19.320312 C 15.988281 19.300781 16.046875 19.277344 16.105469 19.242188 C 16.117188 19.238281 16.125 19.234375 16.136719 19.226562 C 16.15625 19.214844 16.175781 19.199219 16.199219 19.191406 C 16.222656 19.179688 16.246094 19.175781 16.261719 19.179688 C 16.261719 19.179688 16.269531 19.179688 16.269531 19.179688 C 16.28125 19.179688 16.289062 19.179688 16.296875 19.171875 C 16.304688 19.175781 16.316406 19.175781 16.324219 19.171875 C 16.449219 19.144531 16.578125 19.136719 16.703125 19.152344 L 16.710938 19.15625 C 16.742188 19.15625 16.769531 19.160156 16.785156 19.171875 C 16.859375 19.222656 16.949219 19.242188 17.023438 19.257812 L 17.105469 19.273438 C 17.125 19.277344 17.164062 19.285156 17.195312 19.273438 C 17.210938 19.269531 17.21875 19.261719 17.226562 19.257812 L 17.230469 19.257812 C 17.25 19.257812 17.265625 19.257812 17.285156 19.265625 C 17.289062 19.265625 17.292969 19.265625 17.296875 19.269531 C 17.3125 19.273438 17.328125 19.28125 17.34375 19.285156 C 17.355469 19.285156 17.367188 19.285156 17.375 19.285156 C 17.441406 19.285156 17.460938 19.242188 17.464844 19.230469 C 17.46875 19.222656 17.472656 19.210938 17.472656 19.203125 C 17.480469 19.21875 17.496094 19.234375 17.511719 19.25 C 17.523438 19.257812 17.535156 19.261719 17.546875 19.265625 C 17.570312 19.265625 17.589844 19.265625 17.605469 19.273438 C 17.609375 19.277344 17.613281 19.28125 17.613281 19.28125 C 17.613281 19.28125 17.613281 19.289062 17.613281 19.292969 C 17.605469 19.316406 17.597656 19.347656 17.609375 19.382812 C 17.621094 19.410156 17.648438 19.433594 17.683594 19.445312 C 17.695312 19.449219 17.707031 19.449219 17.71875 19.453125 C 17.722656 19.453125 17.726562 19.453125 17.730469 19.457031 C 17.742188 19.460938 17.757812 19.464844 17.773438 19.476562 L 17.789062 19.484375 C 17.8125 19.496094 17.84375 19.511719 17.882812 19.511719 C 17.886719 19.511719 17.894531 19.511719 17.898438 19.511719 C 17.9375 19.507812 17.96875 19.488281 18.003906 19.457031 C 18.007812 19.453125 18.011719 19.449219 18.015625 19.445312 C 18.019531 19.4375 18.027344 19.433594 18.035156 19.425781 C 18.046875 19.410156 18.058594 19.398438 18.066406 19.390625 C 18.074219 19.386719 18.078125 19.382812 18.085938 19.378906 C 18.085938 19.386719 18.085938 19.398438 18.089844 19.410156 C 18.09375 19.429688 18.105469 19.445312 18.121094 19.457031 C 18.136719 19.46875 18.152344 19.472656 18.175781 19.476562 L 18.183594 19.476562 C 18.203125 19.476562 18.226562 19.46875 18.246094 19.457031 C 18.246094 19.453125 18.25 19.453125 18.253906 19.449219 C 18.289062 19.417969 18.304688 19.371094 18.300781 19.3125 C 18.300781 19.304688 18.300781 19.296875 18.300781 19.285156 C 18.3125 19.308594 18.332031 19.324219 18.355469 19.332031 C 18.375 19.339844 18.390625 19.339844 18.417969 19.335938 C 18.4375 19.335938 18.457031 19.335938 18.46875 19.339844 C 18.480469 19.34375 18.492188 19.347656 18.496094 19.355469 C 18.5 19.359375 18.5 19.359375 18.503906 19.367188 C 18.507812 19.375 18.515625 19.382812 18.523438 19.394531 C 18.5625 19.441406 18.628906 19.449219 18.664062 19.449219 C 18.671875 19.453125 18.683594 19.453125 18.695312 19.453125 C 18.734375 19.453125 18.765625 19.441406 18.789062 19.421875 C 18.828125 19.382812 18.835938 19.316406 18.800781 19.269531 C 18.785156 19.25 18.761719 19.234375 18.75 19.226562 "/>
</g>
<g clip-path="url(#clip3)" clip-rule="nonzero">
<path style=" stroke:none;fill-rule:nonzero;fill:rgb(100%,83.918762%,3.529358%);fill-opacity:1;" d="M 26.558594 9.199219 C 26.53125 9.152344 26.492188 9.113281 26.449219 9.078125 C 26.4375 9.070312 26.425781 9.0625 26.40625 9.054688 C 26.382812 9.046875 26.351562 9.046875 26.328125 9.058594 C 26.320312 9.0625 26.3125 9.070312 26.304688 9.078125 C 26.304688 9.070312 26.304688 9.0625 26.300781 9.050781 C 26.300781 9.042969 26.300781 9.035156 26.300781 9.027344 C 26.300781 9.011719 26.300781 8.996094 26.300781 8.984375 C 26.300781 8.96875 26.296875 8.941406 26.285156 8.921875 C 26.269531 8.898438 26.242188 8.871094 26.203125 8.871094 C 26.191406 8.871094 26.179688 8.875 26.171875 8.878906 C 26.148438 8.886719 26.113281 8.878906 26.101562 8.859375 C 26.089844 8.84375 26.082031 8.820312 26.078125 8.800781 C 26.0625 8.75 26.050781 8.699219 26.035156 8.644531 L 26.035156 8.640625 C 26.019531 8.574219 26 8.507812 25.980469 8.441406 C 25.964844 8.382812 25.945312 8.324219 25.925781 8.265625 C 25.886719 8.15625 25.785156 8.074219 25.667969 8.054688 C 25.601562 8.046875 25.542969 8.058594 25.5 8.089844 C 25.476562 8.109375 25.460938 8.128906 25.445312 8.152344 C 25.441406 8.15625 25.4375 8.160156 25.433594 8.167969 C 25.425781 8.175781 25.421875 8.179688 25.417969 8.183594 C 25.398438 8.175781 25.394531 8.167969 25.394531 8.164062 C 25.390625 8.15625 25.386719 8.144531 25.378906 8.128906 C 25.363281 8.097656 25.328125 8.078125 25.289062 8.078125 C 25.273438 8.078125 25.253906 8.082031 25.238281 8.089844 C 25.1875 8.113281 25.148438 8.164062 25.136719 8.234375 C 25.132812 8.253906 25.128906 8.277344 25.128906 8.296875 C 25.125 8.316406 25.125 8.335938 25.121094 8.351562 C 25.113281 8.371094 25.101562 8.398438 25.085938 8.421875 C 25.082031 8.429688 25.078125 8.4375 25.074219 8.441406 C 25.042969 8.492188 25.015625 8.554688 25.042969 8.621094 C 25.066406 8.664062 25.0625 8.71875 25.042969 8.761719 C 25.039062 8.769531 25.035156 8.777344 25.027344 8.789062 C 25.015625 8.8125 25 8.839844 24.992188 8.871094 C 24.984375 8.921875 25 8.96875 25.011719 9 C 25.015625 9.011719 25.019531 9.019531 25.023438 9.027344 C 25.03125 9.046875 25.039062 9.066406 25.042969 9.082031 C 25.046875 9.105469 25.046875 9.117188 25.042969 9.121094 C 24.976562 9.1875 24.933594 9.277344 24.925781 9.371094 L 24.925781 9.378906 C 24.925781 9.386719 24.925781 9.394531 24.921875 9.402344 C 24.921875 9.402344 24.917969 9.402344 24.914062 9.402344 C 24.910156 9.402344 24.902344 9.40625 24.898438 9.40625 C 24.894531 9.402344 24.886719 9.402344 24.882812 9.402344 C 24.871094 9.402344 24.859375 9.402344 24.851562 9.402344 C 24.835938 9.402344 24.796875 9.402344 24.761719 9.425781 C 24.738281 9.441406 24.722656 9.464844 24.710938 9.496094 C 24.707031 9.511719 24.707031 9.527344 24.71875 9.542969 C 24.71875 9.546875 24.71875 9.546875 24.71875 9.550781 C 24.71875 9.566406 24.71875 9.578125 24.722656 9.59375 C 24.597656 9.613281 24.472656 9.644531 24.355469 9.675781 C 24.28125 9.695312 24.203125 9.714844 24.125 9.730469 C 24.117188 9.734375 24.109375 9.734375 24.101562 9.738281 C 24.097656 9.738281 24.089844 9.738281 24.082031 9.742188 L 23.652344 9.824219 C 23.601562 9.832031 23.546875 9.84375 23.496094 9.867188 C 23.460938 9.886719 23.421875 9.910156 23.382812 9.9375 L 25.875 9.9375 C 25.875 9.925781 25.875 9.917969 25.875 9.90625 L 25.871094 9.769531 C 25.871094 9.773438 25.871094 9.777344 25.875 9.78125 C 25.878906 9.804688 25.890625 9.84375 25.929688 9.863281 C 25.972656 9.886719 26.03125 9.871094 26.058594 9.828125 C 26.082031 9.796875 26.082031 9.757812 26.078125 9.730469 C 26.074219 9.71875 26.070312 9.703125 26.066406 9.691406 C 26.0625 9.6875 26.0625 9.679688 26.0625 9.675781 C 26.058594 9.667969 26.058594 9.660156 26.058594 9.660156 C 26.058594 9.660156 26.0625 9.65625 26.066406 9.652344 C 26.070312 9.652344 26.078125 9.648438 26.082031 9.644531 C 26.105469 9.667969 26.132812 9.683594 26.167969 9.683594 L 26.171875 9.6875 C 26.214844 9.6875 26.253906 9.664062 26.285156 9.628906 C 26.296875 9.613281 26.304688 9.597656 26.316406 9.582031 C 26.320312 9.574219 26.324219 9.566406 26.328125 9.558594 C 26.332031 9.558594 26.335938 9.554688 26.339844 9.550781 C 26.359375 9.527344 26.386719 9.507812 26.414062 9.488281 C 26.449219 9.460938 26.492188 9.433594 26.523438 9.390625 C 26.59375 9.296875 26.582031 9.234375 26.558594 9.199219 "/>
</g>
<path style=" stroke:none;fill-rule:nonzero;fill:rgb(100%,83.918762%,3.529358%);fill-opacity:1;" d="M 9.144531 17.917969 C 9.246094 17.933594 9.339844 17.945312 9.433594 17.964844 C 9.433594 17.964844 9.441406 17.964844 9.445312 17.964844 C 9.457031 17.964844 9.472656 17.960938 9.484375 17.953125 C 9.496094 17.941406 9.503906 17.929688 9.507812 17.914062 L 9.328125 17.800781 L 9.144531 17.917969 "/>
<path style=" stroke:none;fill-rule:nonzero;fill:rgb(100%,83.918762%,3.529358%);fill-opacity:1;" d="M 4.113281 15.246094 C 4.117188 15.300781 4.148438 15.351562 4.195312 15.375 C 4.210938 15.386719 4.226562 15.386719 4.246094 15.390625 L 4.277344 15.265625 L 4.128906 15.148438 C 4.121094 15.175781 4.113281 15.210938 4.113281 15.246094 "/>
<g clip-path="url(#clip4)" clip-rule="nonzero">
<path style=" stroke:none;fill-rule:nonzero;fill:rgb(100%,83.918762%,3.529358%);fill-opacity:1;" d="M 23.34375 20.144531 C 23.339844 20.089844 23.335938 20.019531 23.289062 19.964844 C 23.199219 19.871094 23.132812 19.757812 23.089844 19.636719 L 23.089844 19.628906 C 23.078125 19.601562 23.070312 19.570312 23.042969 19.539062 C 23.03125 19.527344 23.019531 19.515625 23.007812 19.507812 C 23.003906 19.503906 23 19.503906 22.996094 19.5 C 22.976562 19.484375 22.960938 19.46875 22.953125 19.457031 C 22.9375 19.4375 22.933594 19.425781 22.933594 19.417969 C 22.941406 19.347656 22.953125 19.246094 22.902344 19.164062 C 22.878906 19.117188 22.839844 19.085938 22.804688 19.058594 L 22.785156 19.042969 C 22.726562 18.992188 22.675781 18.925781 22.632812 18.859375 L 21.351562 18.859375 C 21.371094 18.878906 21.394531 18.898438 21.417969 18.917969 C 21.425781 18.925781 21.433594 18.933594 21.445312 18.945312 C 21.457031 18.957031 21.46875 18.96875 21.488281 18.984375 C 21.515625 19.003906 21.542969 19.023438 21.578125 19.035156 C 21.59375 19.042969 21.609375 19.050781 21.625 19.054688 C 21.652344 19.066406 21.675781 19.074219 21.691406 19.085938 C 21.714844 19.097656 21.785156 19.148438 21.785156 19.203125 C 21.785156 19.246094 21.785156 19.285156 21.785156 19.324219 L 21.789062 19.335938 C 21.789062 19.363281 21.789062 19.390625 21.789062 19.421875 C 21.777344 19.429688 21.769531 19.441406 21.761719 19.457031 C 21.753906 19.464844 21.75 19.476562 21.746094 19.484375 C 21.734375 19.519531 21.738281 19.554688 21.742188 19.578125 C 21.746094 19.59375 21.753906 19.621094 21.785156 19.710938 L 21.789062 19.722656 C 21.789062 19.722656 21.789062 19.730469 21.789062 19.738281 C 21.792969 19.75 21.792969 19.761719 21.796875 19.773438 L 21.800781 19.78125 C 21.800781 19.789062 21.800781 19.796875 21.804688 19.804688 C 21.8125 19.828125 21.824219 19.839844 21.832031 19.847656 C 21.835938 19.851562 21.839844 19.855469 21.84375 19.859375 C 21.847656 19.863281 21.855469 19.867188 21.863281 19.871094 C 21.84375 19.910156 21.859375 19.945312 21.878906 19.964844 C 21.921875 20 21.957031 20.050781 21.992188 20.101562 L 22.058594 20.203125 C 22.070312 20.21875 22.082031 20.238281 22.09375 20.253906 C 22.121094 20.289062 22.148438 20.320312 22.152344 20.351562 C 22.15625 20.375 22.160156 20.410156 22.179688 20.4375 C 22.207031 20.480469 22.257812 20.503906 22.300781 20.492188 C 22.324219 20.488281 22.34375 20.476562 22.355469 20.464844 C 22.355469 20.46875 22.359375 20.46875 22.359375 20.472656 C 22.394531 20.519531 22.417969 20.578125 22.429688 20.636719 L 22.429688 20.640625 C 22.433594 20.65625 22.4375 20.679688 22.449219 20.703125 C 22.472656 20.742188 22.507812 20.757812 22.5625 20.75 C 22.574219 20.75 22.589844 20.75 22.605469 20.75 C 22.636719 20.753906 22.667969 20.765625 22.691406 20.785156 C 22.707031 20.792969 22.722656 20.808594 22.734375 20.824219 C 22.753906 20.847656 22.765625 20.875 22.773438 20.90625 C 22.777344 20.917969 22.777344 20.929688 22.777344 20.941406 C 22.78125 20.96875 22.785156 20.992188 22.792969 21.019531 C 22.808594 21.066406 22.851562 21.125 22.921875 21.128906 C 22.925781 21.128906 22.929688 21.128906 22.929688 21.128906 C 22.980469 21.128906 23.015625 21.101562 23.042969 21.082031 C 23.054688 21.070312 23.070312 21.0625 23.078125 21.058594 C 23.085938 21.058594 23.089844 21.058594 23.101562 21.058594 C 23.128906 21.0625 23.152344 21.0625 23.171875 21.054688 C 23.195312 21.046875 23.214844 21.035156 23.226562 21.023438 L 23.253906 21.003906 C 23.261719 20.996094 23.28125 20.984375 23.292969 20.964844 C 23.3125 20.933594 23.3125 20.898438 23.3125 20.875 C 23.3125 20.859375 23.3125 20.84375 23.3125 20.824219 C 23.3125 20.8125 23.3125 20.804688 23.3125 20.792969 C 23.3125 20.777344 23.3125 20.761719 23.3125 20.75 C 23.332031 20.738281 23.34375 20.722656 23.351562 20.703125 C 23.363281 20.679688 23.363281 20.652344 23.363281 20.636719 L 23.34375 20.144531 "/>
</g>
<path style=" stroke:none;fill-rule:nonzero;fill:rgb(100%,83.918762%,3.529358%);fill-opacity:1;" d="M 25.917969 11.164062 C 25.917969 11.140625 25.917969 11.113281 25.902344 11.09375 C 25.894531 11.074219 25.882812 11.042969 25.855469 11.015625 C 25.8125 10.976562 25.75 10.960938 25.730469 10.960938 C 25.722656 10.960938 25.71875 10.960938 25.710938 10.964844 C 25.691406 10.96875 25.675781 10.984375 25.667969 11 C 25.65625 11.035156 25.667969 11.054688 25.703125 11.117188 L 25.71875 11.140625 C 25.722656 11.144531 25.722656 11.152344 25.726562 11.15625 C 25.726562 11.15625 25.726562 11.160156 25.722656 11.160156 C 25.71875 11.160156 25.714844 11.160156 25.710938 11.160156 C 25.6875 11.164062 25.664062 11.160156 25.644531 11.15625 C 25.617188 11.128906 25.59375 11.097656 25.578125 11.066406 L 25.574219 11.058594 C 25.558594 11.027344 25.535156 10.988281 25.492188 10.96875 C 25.464844 10.957031 25.433594 10.953125 25.402344 10.953125 C 25.394531 10.945312 25.394531 10.9375 25.390625 10.925781 C 25.394531 10.925781 25.394531 10.921875 25.398438 10.917969 C 25.433594 10.882812 25.453125 10.835938 25.457031 10.789062 L 23.132812 10.789062 C 23.132812 10.789062 23.132812 10.789062 23.132812 10.792969 C 23.085938 10.796875 23.039062 10.800781 23 10.835938 C 22.972656 10.859375 22.957031 10.894531 22.949219 10.917969 C 22.945312 10.921875 22.945312 10.925781 22.945312 10.929688 L 22.9375 10.945312 C 22.933594 10.953125 22.933594 10.960938 22.929688 10.964844 C 22.894531 10.957031 22.859375 10.957031 22.820312 10.972656 C 22.792969 10.980469 22.769531 10.996094 22.742188 11.007812 L 22.726562 11.019531 C 22.707031 11.027344 22.683594 11.039062 22.664062 11.039062 C 22.644531 11.039062 22.621094 11.027344 22.59375 11.015625 C 22.558594 11 22.519531 10.984375 22.46875 10.984375 C 22.421875 10.984375 22.378906 11.003906 22.34375 11.019531 C 22.339844 11.023438 22.332031 11.027344 22.324219 11.027344 C 22.265625 11.054688 22.195312 11.0625 22.132812 11.066406 C 22.070312 11.070312 22.03125 11.117188 22.015625 11.160156 C 22.003906 11.199219 22.007812 11.238281 22.011719 11.265625 C 22.015625 11.292969 22.019531 11.347656 22.0625 11.382812 C 22.078125 11.398438 22.097656 11.40625 22.113281 11.410156 L 22.121094 11.414062 C 22.125 11.414062 22.125 11.414062 22.125 11.417969 C 22.128906 11.433594 22.125 11.457031 22.113281 11.476562 C 22.097656 11.503906 22.066406 11.527344 22.042969 11.550781 L 22.011719 11.570312 C 21.988281 11.589844 21.960938 11.609375 21.933594 11.632812 C 21.914062 11.652344 21.894531 11.675781 21.878906 11.691406 C 21.871094 11.699219 21.867188 11.707031 21.867188 11.71875 C 21.855469 11.722656 21.847656 11.726562 21.84375 11.734375 C 21.78125 11.800781 21.722656 11.847656 21.664062 11.875 C 21.652344 11.878906 21.644531 11.886719 21.636719 11.890625 L 21.625 11.894531 C 21.617188 11.898438 21.609375 11.902344 21.605469 11.910156 C 21.597656 11.910156 21.589844 11.914062 21.585938 11.914062 C 21.5625 11.929688 21.539062 11.941406 21.515625 11.957031 L 25.054688 11.957031 C 25.058594 11.953125 25.066406 11.949219 25.074219 11.949219 L 25.085938 11.945312 C 25.140625 11.921875 25.171875 11.886719 25.175781 11.839844 C 25.179688 11.792969 25.144531 11.746094 25.089844 11.730469 C 25.050781 11.722656 25.007812 11.738281 24.984375 11.753906 C 24.960938 11.765625 24.945312 11.78125 24.933594 11.792969 L 24.925781 11.800781 C 24.878906 11.847656 24.8125 11.890625 24.734375 11.925781 C 24.714844 11.917969 24.691406 11.914062 24.667969 11.914062 C 24.640625 11.914062 24.617188 11.921875 24.597656 11.929688 C 24.640625 11.898438 24.683594 11.863281 24.722656 11.824219 C 24.726562 11.820312 24.730469 11.816406 24.738281 11.808594 C 24.765625 11.785156 24.804688 11.773438 24.847656 11.761719 C 24.867188 11.757812 24.886719 11.753906 24.90625 11.746094 L 25.15625 11.660156 C 25.164062 11.65625 25.167969 11.652344 25.175781 11.648438 C 25.183594 11.648438 25.1875 11.648438 25.195312 11.644531 L 25.203125 11.640625 C 25.253906 11.625 25.308594 11.601562 25.335938 11.550781 C 25.339844 11.542969 25.34375 11.539062 25.347656 11.53125 C 25.347656 11.53125 25.351562 11.527344 25.351562 11.523438 C 25.355469 11.523438 25.359375 11.523438 25.367188 11.519531 C 25.386719 11.515625 25.414062 11.511719 25.4375 11.492188 L 25.449219 11.480469 C 25.457031 11.472656 25.460938 11.46875 25.464844 11.460938 C 25.472656 11.457031 25.480469 11.449219 25.488281 11.445312 C 25.503906 11.425781 25.515625 11.40625 25.519531 11.382812 C 25.582031 11.4375 25.667969 11.429688 25.742188 11.355469 C 25.753906 11.34375 25.777344 11.332031 25.800781 11.316406 C 25.84375 11.292969 25.886719 11.265625 25.910156 11.226562 C 25.921875 11.210938 25.925781 11.191406 25.917969 11.175781 L 25.917969 11.164062 "/>
<path style=" stroke:none;fill-rule:nonzero;fill:rgb(100%,83.918762%,3.529358%);fill-opacity:1;" d="M 24.210938 13.207031 C 24.246094 13.234375 24.300781 13.230469 24.335938 13.199219 C 24.355469 13.183594 24.371094 13.160156 24.375 13.132812 C 24.378906 13.109375 24.378906 13.09375 24.382812 13.078125 C 24.382812 13.074219 24.382812 13.066406 24.382812 13.0625 C 24.382812 13.054688 24.386719 13.050781 24.386719 13.042969 C 24.433594 12.96875 24.476562 12.886719 24.515625 12.804688 L 14.28125 12.804688 C 14.476562 12.519531 14.679688 12.238281 14.886719 11.957031 L 20.585938 11.957031 C 20.589844 11.9375 20.59375 11.921875 20.589844 11.898438 C 20.589844 11.894531 20.589844 11.886719 20.589844 11.878906 C 20.585938 11.871094 20.585938 11.863281 20.585938 11.859375 C 20.585938 11.855469 20.585938 11.855469 20.585938 11.855469 C 20.597656 11.859375 20.613281 11.863281 20.628906 11.867188 C 20.664062 11.867188 20.699219 11.84375 20.714844 11.808594 C 20.726562 11.789062 20.726562 11.765625 20.730469 11.746094 C 20.730469 11.730469 20.730469 11.710938 20.734375 11.691406 C 20.742188 11.625 20.753906 11.542969 20.703125 11.472656 C 20.664062 11.414062 20.640625 11.34375 20.617188 11.269531 C 20.597656 11.207031 20.574219 11.144531 20.542969 11.085938 C 20.527344 11.054688 20.507812 11.023438 20.46875 11 C 20.4375 10.984375 20.402344 10.980469 20.378906 10.980469 C 20.371094 10.980469 20.359375 10.980469 20.351562 10.980469 C 20.328125 10.984375 20.304688 10.984375 20.277344 11 C 20.246094 11.011719 20.210938 11.042969 20.207031 11.085938 C 20.203125 11.113281 20.199219 11.136719 20.1875 11.160156 C 20.183594 11.175781 20.171875 11.191406 20.160156 11.207031 C 20.148438 11.222656 20.136719 11.238281 20.125 11.246094 C 20.121094 11.25 20.113281 11.25 20.101562 11.25 C 20.085938 11.25 20.074219 11.242188 20.066406 11.234375 C 20.058594 11.222656 20.050781 11.210938 20.054688 11.195312 C 20.054688 11.191406 20.054688 11.1875 20.054688 11.183594 C 20.058594 11.183594 20.0625 11.175781 20.070312 11.171875 C 20.082031 11.160156 20.089844 11.148438 20.101562 11.136719 C 20.109375 11.128906 20.113281 11.125 20.117188 11.121094 C 20.148438 11.109375 20.175781 11.082031 20.191406 11.054688 C 20.207031 11.019531 20.203125 10.980469 20.199219 10.957031 C 20.203125 10.953125 20.207031 10.949219 20.207031 10.945312 C 20.210938 10.945312 20.210938 10.945312 20.210938 10.945312 C 20.222656 10.9375 20.234375 10.929688 20.246094 10.917969 C 20.257812 10.90625 20.265625 10.894531 20.269531 10.875 C 20.277344 10.851562 20.277344 10.832031 20.277344 10.816406 C 20.277344 10.808594 20.277344 10.796875 20.277344 10.789062 L 15.777344 10.789062 C 16.007812 10.503906 16.238281 10.21875 16.472656 9.9375 L 19.851562 9.9375 C 19.84375 9.933594 19.839844 9.925781 19.835938 9.921875 L 19.828125 9.914062 C 19.792969 9.878906 19.78125 9.816406 19.804688 9.773438 C 19.8125 9.753906 19.8125 9.730469 19.804688 9.710938 C 19.792969 9.695312 19.773438 9.683594 19.75 9.679688 C 19.722656 9.679688 19.695312 9.683594 19.660156 9.695312 C 19.636719 9.707031 19.613281 9.714844 19.59375 9.726562 C 19.578125 9.734375 19.5625 9.742188 19.546875 9.746094 C 19.515625 9.761719 19.488281 9.765625 19.46875 9.757812 C 19.453125 9.757812 19.4375 9.746094 19.4375 9.734375 C 19.4375 9.730469 19.4375 9.726562 19.4375 9.722656 C 19.4375 9.699219 19.441406 9.667969 19.417969 9.640625 C 19.398438 9.609375 19.367188 9.59375 19.332031 9.59375 C 19.304688 9.59375 19.277344 9.605469 19.253906 9.617188 C 19.238281 9.628906 19.226562 9.640625 19.214844 9.652344 C 19.207031 9.660156 19.199219 9.667969 19.195312 9.671875 C 19.183594 9.679688 19.167969 9.679688 19.148438 9.679688 C 19.132812 9.679688 19.117188 9.679688 19.101562 9.675781 L 19.097656 9.675781 C 19.078125 9.675781 19.050781 9.671875 19.023438 9.671875 C 18.988281 9.671875 18.960938 9.675781 18.933594 9.6875 C 18.902344 9.699219 18.878906 9.722656 18.859375 9.738281 C 18.847656 9.75 18.839844 9.757812 18.828125 9.769531 C 18.808594 9.789062 18.785156 9.808594 18.769531 9.816406 L 18.78125 9.839844 L 18.761719 9.820312 C 18.75 9.828125 18.726562 9.839844 18.710938 9.839844 C 18.707031 9.839844 18.699219 9.832031 18.695312 9.828125 C 18.6875 9.824219 18.683594 9.820312 18.675781 9.816406 C 18.664062 9.804688 18.632812 9.789062 18.597656 9.789062 C 18.574219 9.789062 18.550781 9.796875 18.535156 9.8125 C 18.527344 9.816406 18.523438 9.820312 18.519531 9.824219 L 18.480469 9.792969 C 18.46875 9.785156 18.457031 9.777344 18.453125 9.769531 C 18.453125 9.765625 18.449219 9.757812 18.449219 9.75 C 18.445312 9.742188 18.441406 9.734375 18.441406 9.722656 C 18.421875 9.679688 18.386719 9.644531 18.34375 9.628906 C 18.316406 9.617188 18.285156 9.613281 18.246094 9.617188 C 18.234375 9.605469 18.21875 9.597656 18.203125 9.59375 C 18.1875 9.589844 18.175781 9.589844 18.160156 9.59375 C 18.164062 9.585938 18.167969 9.578125 18.171875 9.570312 C 18.171875 9.566406 18.175781 9.558594 18.179688 9.550781 C 18.179688 9.546875 18.179688 9.542969 18.183594 9.542969 C 18.183594 9.539062 18.191406 9.53125 18.199219 9.523438 L 18.222656 9.496094 C 18.226562 9.496094 18.230469 9.492188 18.234375 9.492188 C 18.238281 9.488281 18.246094 9.484375 18.25 9.480469 C 18.253906 9.480469 18.253906 9.480469 18.257812 9.480469 C 18.265625 9.480469 18.273438 9.480469 18.277344 9.480469 C 18.324219 9.480469 18.355469 9.460938 18.371094 9.425781 C 18.390625 9.378906 18.363281 9.332031 18.328125 9.3125 C 18.300781 9.300781 18.273438 9.300781 18.257812 9.300781 L 18.246094 9.300781 C 18.203125 9.300781 18.15625 9.300781 18.113281 9.324219 C 18.082031 9.335938 18.058594 9.355469 18.039062 9.375 L 17.945312 9.457031 C 17.917969 9.476562 17.894531 9.5 17.871094 9.53125 C 17.867188 9.535156 17.863281 9.542969 17.855469 9.550781 C 17.84375 9.570312 17.832031 9.59375 17.824219 9.621094 C 17.789062 9.648438 17.746094 9.671875 17.703125 9.6875 C 17.675781 9.695312 17.648438 9.699219 17.625 9.703125 C 17.570312 9.707031 17.527344 9.722656 17.496094 9.757812 C 17.492188 9.761719 17.488281 9.769531 17.480469 9.777344 C 17.480469 9.777344 17.476562 9.78125 17.476562 9.78125 C 17.472656 9.789062 17.457031 9.796875 17.445312 9.800781 L 17.339844 9.851562 C 17.335938 9.855469 17.332031 9.859375 17.328125 9.863281 C 17.320312 9.863281 17.316406 9.863281 17.308594 9.863281 L 17.296875 9.867188 C 17.28125 9.871094 17.257812 9.871094 17.234375 9.867188 C 17.230469 9.867188 17.222656 9.867188 17.214844 9.863281 L 17.222656 9.859375 C 17.269531 9.824219 17.289062 9.777344 17.273438 9.730469 C 17.257812 9.691406 17.21875 9.667969 17.171875 9.667969 C 17.164062 9.667969 17.15625 9.667969 17.148438 9.667969 C 17.117188 9.675781 17.09375 9.695312 17.070312 9.710938 C 17.011719 9.753906 16.941406 9.789062 16.871094 9.8125 C 16.886719 9.800781 16.902344 9.789062 16.917969 9.777344 C 16.929688 9.761719 16.941406 9.746094 16.957031 9.730469 L 16.964844 9.71875 C 16.992188 9.6875 17.023438 9.660156 17.066406 9.636719 C 17.105469 9.613281 17.125 9.582031 17.136719 9.550781 C 17.140625 9.542969 17.144531 9.535156 17.148438 9.527344 C 17.152344 9.515625 17.15625 9.503906 17.164062 9.496094 C 17.1875 9.457031 17.226562 9.425781 17.285156 9.394531 C 17.3125 9.378906 17.34375 9.367188 17.371094 9.355469 C 17.390625 9.347656 17.410156 9.335938 17.429688 9.324219 C 17.460938 9.308594 17.492188 9.292969 17.523438 9.285156 C 17.578125 9.277344 17.632812 9.257812 17.679688 9.230469 C 17.691406 9.222656 17.707031 9.214844 17.71875 9.199219 C 17.734375 9.175781 17.742188 9.148438 17.738281 9.125 C 17.734375 9.105469 17.722656 9.089844 17.707031 9.082031 C 17.679688 9.066406 17.644531 9.058594 17.609375 9.066406 C 17.59375 9.070312 17.578125 9.078125 17.566406 9.082031 C 17.554688 9.0625 17.539062 9.046875 17.519531 9.035156 C 17.488281 9.015625 17.453125 9.015625 17.429688 9.015625 L 17.304688 9.015625 C 17.296875 9.015625 17.285156 9.015625 17.273438 9.015625 C 17.820312 8.40625 18.335938 7.761719 18.894531 7.148438 C 15.964844 10.046875 13.550781 13.300781 11.726562 16.808594 C 11.679688 16.898438 11.632812 16.992188 11.585938 17.082031 C 11.429688 17.390625 11.28125 17.699219 11.132812 18.007812 L 22.292969 18.007812 C 22.292969 17.921875 22.296875 17.835938 22.308594 17.753906 C 22.316406 17.710938 22.335938 17.671875 22.359375 17.625 C 22.390625 17.570312 22.421875 17.511719 22.425781 17.4375 C 22.425781 17.425781 22.425781 17.414062 22.429688 17.402344 C 22.429688 17.398438 22.429688 17.390625 22.429688 17.386719 C 22.429688 17.386719 22.433594 17.382812 22.433594 17.378906 C 22.4375 17.375 22.4375 17.371094 22.4375 17.371094 C 22.445312 17.363281 22.460938 17.351562 22.476562 17.34375 C 22.488281 17.335938 22.5 17.328125 22.515625 17.316406 C 22.542969 17.296875 22.632812 17.21875 22.59375 17.128906 C 22.609375 17.128906 22.621094 17.125 22.636719 17.121094 C 22.671875 17.109375 22.691406 17.082031 22.703125 17.066406 C 22.707031 17.058594 22.714844 17.050781 22.71875 17.050781 C 22.71875 17.046875 22.726562 17.046875 22.730469 17.042969 C 22.742188 17.039062 22.757812 17.03125 22.773438 17.019531 C 22.789062 17.007812 22.800781 16.992188 22.808594 16.980469 C 22.8125 16.96875 22.820312 16.960938 22.824219 16.949219 L 22.824219 16.945312 C 22.839844 16.910156 22.867188 16.875 22.890625 16.839844 L 11.84375 16.839844 C 11.992188 16.554688 12.144531 16.273438 12.300781 15.992188 L 23.605469 15.992188 C 23.605469 15.988281 23.605469 15.984375 23.605469 15.980469 C 23.609375 15.941406 23.636719 15.902344 23.660156 15.871094 C 23.660156 15.867188 23.664062 15.867188 23.667969 15.863281 C 23.738281 15.777344 23.828125 15.6875 23.929688 15.664062 C 23.945312 15.660156 23.960938 15.660156 23.976562 15.660156 L 24.027344 15.660156 C 24.058594 15.660156 24.097656 15.65625 24.136719 15.640625 C 24.199219 15.613281 24.242188 15.550781 24.246094 15.484375 C 24.25 15.449219 24.242188 15.417969 24.222656 15.394531 C 24.195312 15.363281 24.144531 15.351562 24.097656 15.359375 C 24.09375 15.359375 24.089844 15.359375 24.085938 15.363281 C 24.089844 15.355469 24.097656 15.347656 24.101562 15.335938 C 24.109375 15.316406 24.117188 15.28125 24.109375 15.25 C 24.136719 15.257812 24.164062 15.257812 24.191406 15.25 C 24.25 15.238281 24.296875 15.1875 24.300781 15.132812 C 24.300781 15.117188 24.300781 15.101562 24.300781 15.09375 C 24.300781 15.089844 24.296875 15.089844 24.296875 15.089844 C 24.296875 15.089844 24.300781 15.085938 24.300781 15.085938 C 24.308594 15.082031 24.324219 15.074219 24.335938 15.070312 C 24.355469 15.066406 24.371094 15.054688 24.378906 15.035156 C 24.390625 15.007812 24.398438 14.976562 24.390625 14.945312 C 24.402344 14.9375 24.421875 14.921875 24.425781 14.894531 C 24.433594 14.871094 24.433594 14.847656 24.421875 14.824219 L 12.972656 14.824219 C 13.144531 14.539062 13.324219 14.253906 13.503906 13.972656 L 24.195312 13.972656 C 24.195312 13.960938 24.195312 13.949219 24.195312 13.9375 C 24.199219 13.882812 24.210938 13.84375 24.234375 13.820312 C 24.25 13.804688 24.269531 13.785156 24.28125 13.757812 C 24.285156 13.746094 24.285156 13.738281 24.289062 13.730469 L 24.289062 13.722656 C 24.292969 13.714844 24.292969 13.707031 24.292969 13.699219 C 24.296875 13.691406 24.300781 13.683594 24.300781 13.675781 C 24.308594 13.632812 24.3125 13.589844 24.3125 13.550781 C 24.3125 13.535156 24.316406 13.519531 24.316406 13.503906 L 24.316406 13.46875 C 24.316406 13.460938 24.316406 13.457031 24.3125 13.449219 C 24.316406 13.441406 24.316406 13.433594 24.316406 13.425781 C 24.320312 13.417969 24.320312 13.40625 24.320312 13.394531 C 24.320312 13.382812 24.320312 13.371094 24.320312 13.355469 C 24.328125 13.3125 24.304688 13.269531 24.261719 13.242188 C 24.238281 13.226562 24.214844 13.21875 24.195312 13.214844 L 24.183594 13.210938 C 24.164062 13.203125 24.15625 13.199219 24.15625 13.195312 C 24.148438 13.191406 24.144531 13.171875 24.144531 13.15625 L 24.140625 13.144531 C 24.140625 13.132812 24.136719 13.121094 24.132812 13.109375 C 24.148438 13.109375 24.164062 13.113281 24.179688 13.113281 C 24.171875 13.152344 24.183594 13.183594 24.210938 13.207031 "/>
<g clip-path="url(#clip5)" clip-rule="nonzero">
<path style=" stroke:none;fill-rule:nonzero;fill:rgb(100%,83.918762%,3.529358%);fill-opacity:1;" d="M 8.832031 16.59375 L 8.589844 16.75 L 8.664062 16.472656 L 8.4375 16.292969 L 8.523438 16.289062 C 8.636719 16.382812 8.746094 16.480469 8.855469 16.582031 C 8.921875 16.640625 8.996094 16.695312 9.078125 16.75 Z M 7.78125 16.472656 L 7.859375 16.75 L 7.613281 16.59375 L 7.367188 16.75 L 7.445312 16.472656 L 7.21875 16.292969 L 7.507812 16.277344 L 7.613281 16.007812 L 7.71875 16.277344 L 8.011719 16.292969 Z M 6.886719 15.386719 L 6.640625 15.542969 L 6.71875 15.265625 L 6.492188 15.085938 L 6.78125 15.070312 L 6.808594 15.007812 L 7.113281 15.21875 L 7.054688 15.265625 L 7.132812 15.542969 Z M 6.148438 14.335938 L 6.226562 14.058594 L 5.996094 13.878906 L 6.289062 13.863281 L 6.394531 13.59375 L 6.5 13.863281 L 6.789062 13.878906 L 6.5625 14.058594 L 6.640625 14.335938 L 6.394531 14.179688 Z M 5.835938 15.265625 L 5.910156 15.542969 L 5.667969 15.386719 L 5.421875 15.542969 L 5.5 15.265625 L 5.269531 15.085938 L 5.5625 15.070312 L 5.667969 14.800781 L 5.769531 15.070312 L 6.0625 15.085938 Z M 5.175781 14.179688 L 4.929688 14.335938 L 5.003906 14.058594 L 4.777344 13.878906 L 5.070312 13.863281 L 5.175781 13.59375 L 5.277344 13.863281 L 5.570312 13.878906 L 5.34375 14.058594 L 5.417969 14.335938 Z M 4.445312 12.972656 L 4.203125 13.132812 L 4.277344 12.851562 L 4.050781 12.671875 L 4.34375 12.65625 L 4.445312 12.386719 L 4.550781 12.65625 L 4.84375 12.671875 L 4.617188 12.851562 L 4.691406 13.132812 Z M 3.710938 11.925781 L 3.785156 11.644531 L 3.558594 11.464844 L 3.851562 11.449219 L 3.953125 11.179688 L 4.058594 11.449219 L 4.351562 11.464844 L 4.121094 11.644531 L 4.199219 11.925781 L 3.953125 11.765625 Z M 4.34375 10.242188 L 4.445312 9.972656 L 4.550781 10.242188 L 4.84375 10.257812 L 4.617188 10.4375 L 4.691406 10.71875 L 4.445312 10.558594 L 4.203125 10.71875 L 4.277344 10.4375 L 4.050781 10.257812 Z M 5.070312 9.035156 L 5.175781 8.765625 L 5.277344 9.035156 L 5.570312 9.050781 L 5.34375 9.230469 L 5.417969 9.511719 L 5.175781 9.351562 L 4.929688 9.511719 L 5.003906 9.230469 L 4.777344 9.050781 Z M 5.5625 7.828125 L 5.667969 7.558594 L 5.769531 7.828125 L 6.0625 7.84375 L 5.835938 8.023438 L 5.910156 8.304688 L 5.667969 8.144531 L 5.421875 8.304688 L 5.5 8.023438 L 5.269531 7.84375 Z M 6.394531 8.765625 L 6.5 9.035156 L 6.789062 9.050781 L 6.5625 9.230469 L 6.640625 9.511719 L 6.394531 9.351562 L 6.148438 9.511719 L 6.226562 9.230469 L 5.996094 9.050781 L 6.289062 9.035156 Z M 6.992188 10.242188 L 7.285156 10.257812 L 7.054688 10.4375 L 7.132812 10.71875 L 6.886719 10.558594 L 6.640625 10.71875 L 6.71875 10.4375 L 6.492188 10.257812 L 6.78125 10.242188 L 6.886719 9.972656 Z M 7.507812 9.035156 L 7.613281 8.765625 L 7.71875 9.035156 L 8.011719 9.050781 L 7.78125 9.230469 L 7.859375 9.511719 L 7.613281 9.351562 L 7.367188 9.511719 L 7.445312 9.230469 L 7.21875 9.050781 Z M 8.210938 10.242188 L 8.503906 10.257812 L 8.273438 10.4375 L 8.351562 10.71875 L 8.105469 10.558594 L 7.863281 10.71875 L 7.9375 10.4375 L 7.710938 10.257812 L 8.003906 10.242188 L 8.105469 9.972656 Z M 8.730469 9.035156 L 8.832031 8.765625 L 8.9375 9.035156 L 9.230469 9.050781 L 9.003906 9.230469 L 9.078125 9.511719 L 8.832031 9.351562 L 8.589844 9.511719 L 8.664062 9.230469 L 8.4375 9.050781 Z M 9.429688 10.242188 L 9.722656 10.257812 L 9.496094 10.4375 L 9.570312 10.71875 L 9.328125 10.558594 L 9.082031 10.71875 L 9.15625 10.4375 L 8.929688 10.257812 L 9.222656 10.242188 L 9.328125 9.972656 Z M 9.949219 9.035156 L 10.054688 8.765625 L 10.15625 9.035156 L 10.449219 9.050781 L 10.222656 9.230469 L 10.296875 9.511719 L 10.054688 9.351562 L 9.808594 9.511719 L 9.886719 9.230469 L 9.65625 9.050781 Z M 10.652344 10.242188 L 10.941406 10.257812 L 10.714844 10.4375 L 10.792969 10.71875 L 10.546875 10.558594 L 10.300781 10.71875 L 10.378906 10.4375 L 10.148438 10.257812 L 10.441406 10.242188 L 10.546875 9.972656 Z M 11.167969 9.035156 L 11.273438 8.765625 L 11.378906 9.035156 L 11.667969 9.050781 L 11.441406 9.230469 L 11.519531 9.511719 L 11.273438 9.351562 L 11.027344 9.511719 L 11.105469 9.230469 L 10.878906 9.050781 Z M 11.871094 10.242188 L 12.164062 10.257812 L 11.933594 10.4375 L 12.011719 10.71875 L 11.765625 10.558594 L 11.519531 10.71875 L 11.597656 10.4375 L 11.371094 10.257812 L 11.660156 10.242188 L 11.765625 9.972656 Z M 12.390625 9.035156 L 12.492188 8.765625 L 12.597656 9.035156 L 12.890625 9.050781 L 12.660156 9.230469 L 12.738281 9.511719 L 12.492188 9.351562 L 12.25 9.511719 L 12.324219 9.230469 L 12.097656 9.050781 Z M 13.089844 10.242188 L 13.382812 10.257812 L 13.15625 10.4375 L 13.230469 10.71875 L 12.984375 10.558594 L 12.742188 10.71875 L 12.816406 10.4375 L 12.589844 10.257812 L 12.882812 10.242188 L 12.984375 9.972656 Z M 13.609375 9.035156 L 13.714844 8.765625 L 13.816406 9.035156 L 14.109375 9.050781 L 13.882812 9.230469 L 13.957031 9.511719 L 13.714844 9.351562 L 13.46875 9.511719 L 13.542969 9.230469 L 13.316406 9.050781 Z M 12.261719 11.878906 L 12.324219 11.644531 L 12.097656 11.464844 L 12.390625 11.449219 L 12.492188 11.179688 L 12.597656 11.449219 L 12.636719 11.453125 C 12.511719 11.59375 12.386719 11.734375 12.261719 11.878906 Z M 11.714844 12.523438 L 11.765625 12.386719 L 11.785156 12.4375 C 11.761719 12.464844 11.738281 12.496094 11.714844 12.523438 Z M 11.441406 11.644531 L 11.519531 11.925781 L 11.273438 11.765625 L 11.027344 11.925781 L 11.105469 11.644531 L 10.878906 11.464844 L 11.167969 11.449219 L 11.273438 11.179688 L 11.378906 11.449219 L 11.667969 11.464844 Z M 11.503906 12.777344 L 11.371094 12.671875 L 11.601562 12.660156 C 11.570312 12.699219 11.535156 12.738281 11.503906 12.777344 Z M 10.792969 13.132812 L 10.546875 12.972656 L 10.300781 13.132812 L 10.378906 12.851562 L 10.148438 12.671875 L 10.441406 12.65625 L 10.546875 12.386719 L 10.652344 12.65625 L 10.941406 12.671875 L 10.714844 12.851562 Z M 10.296875 14.328125 C 10.296875 14.332031 10.292969 14.332031 10.292969 14.332031 L 10.054688 14.179688 L 9.808594 14.335938 L 9.886719 14.058594 L 9.65625 13.878906 L 9.949219 13.863281 L 10.054688 13.59375 L 10.15625 13.863281 L 10.449219 13.878906 L 10.222656 14.058594 Z M 10.296875 11.925781 L 10.054688 11.765625 L 9.808594 11.925781 L 9.886719 11.644531 L 9.65625 11.464844 L 9.949219 11.449219 L 10.054688 11.179688 L 10.15625 11.449219 L 10.449219 11.464844 L 10.222656 11.644531 Z M 9.328125 12.972656 L 9.082031 13.132812 L 9.15625 12.851562 L 8.929688 12.671875 L 9.222656 12.65625 L 9.328125 12.386719 L 9.429688 12.65625 L 9.722656 12.671875 L 9.496094 12.851562 L 9.570312 13.132812 Z M 9.328125 14.800781 Z M 9.078125 14.335938 L 8.832031 14.179688 L 8.589844 14.335938 L 8.664062 14.058594 L 8.4375 13.878906 L 8.730469 13.863281 L 8.832031 13.59375 L 8.9375 13.863281 L 9.230469 13.878906 L 9.003906 14.058594 Z M 9.078125 11.925781 L 8.832031 11.765625 L 8.589844 11.925781 L 8.664062 11.644531 L 8.4375 11.464844 L 8.730469 11.449219 L 8.832031 11.179688 L 8.9375 11.449219 L 9.230469 11.464844 L 9.003906 11.644531 Z M 8.105469 12.972656 L 7.863281 13.132812 L 7.9375 12.851562 L 7.710938 12.671875 L 8.003906 12.65625 L 8.105469 12.386719 L 8.210938 12.65625 L 8.503906 12.671875 L 8.273438 12.851562 L 8.351562 13.132812 Z M 7.824219 14.207031 L 7.734375 14.257812 L 7.613281 14.179688 L 7.367188 14.335938 L 7.445312 14.058594 L 7.21875 13.878906 L 7.507812 13.863281 L 7.613281 13.59375 L 7.71875 13.863281 L 8.011719 13.878906 L 7.78125 14.058594 Z M 7.859375 11.925781 L 7.613281 11.765625 L 7.367188 11.925781 L 7.445312 11.644531 L 7.21875 11.464844 L 7.507812 11.449219 L 7.613281 11.179688 L 7.71875 11.449219 L 8.011719 11.464844 L 7.78125 11.644531 Z M 5.910156 10.71875 L 5.667969 10.558594 L 5.421875 10.71875 L 5.5 10.4375 L 5.269531 10.257812 L 5.5625 10.242188 L 5.667969 9.972656 L 5.769531 10.242188 L 6.0625 10.257812 L 5.835938 10.4375 Z M 4.777344 11.464844 L 5.070312 11.449219 L 5.175781 11.179688 L 5.277344 11.449219 L 5.570312 11.464844 L 5.34375 11.644531 L 5.417969 11.925781 L 5.175781 11.765625 L 4.929688 11.925781 L 5.003906 11.644531 Z M 5.910156 13.132812 L 5.667969 12.972656 L 5.421875 13.132812 L 5.5 12.851562 L 5.269531 12.671875 L 5.5625 12.65625 L 5.667969 12.386719 L 5.769531 12.65625 L 6.0625 12.671875 L 5.835938 12.851562 Z M 5.996094 11.464844 L 6.289062 11.449219 L 6.394531 11.179688 L 6.5 11.449219 L 6.789062 11.464844 L 6.5625 11.644531 L 6.640625 11.925781 L 6.394531 11.765625 L 6.148438 11.925781 L 6.226562 11.644531 Z M 6.886719 12.972656 L 6.640625 13.132812 L 6.71875 12.851562 L 6.492188 12.671875 L 6.78125 12.65625 L 6.886719 12.386719 L 6.992188 12.65625 L 7.285156 12.671875 L 7.054688 12.851562 L 7.132812 13.132812 Z M 14.828125 9.035156 L 14.933594 8.765625 L 15.019531 8.988281 C 14.933594 9.066406 14.847656 9.148438 14.765625 9.230469 L 14.535156 9.050781 Z M 8.933594 16.496094 C 8.488281 16.089844 8 15.699219 7.46875 15.332031 L 6.871094 14.914062 L 8.066406 14.191406 L 8.3125 14.332031 C 8.828125 14.617188 9.316406 14.921875 9.78125 15.238281 C 12 12.078125 14.675781 9.234375 17.714844 6.765625 C 16.992188 7.285156 16.28125 7.8125 15.636719 8.40625 C 15.625 8.40625 15.617188 8.40625 15.609375 8.402344 L 15.601562 8.402344 C 15.578125 8.402344 15.554688 8.40625 15.535156 8.414062 C 15.515625 8.417969 15.5 8.429688 15.492188 8.441406 C 15.488281 8.453125 15.484375 8.464844 15.484375 8.476562 C 15.484375 8.5 15.484375 8.523438 15.488281 8.546875 C 15.460938 8.566406 15.4375 8.589844 15.414062 8.613281 C 15.292969 8.613281 15.171875 8.613281 15.050781 8.617188 L 14.785156 8.617188 C 14.777344 8.617188 14.769531 8.621094 14.765625 8.621094 C 14.757812 8.621094 14.75 8.621094 14.742188 8.621094 C 14.644531 8.621094 14.546875 8.621094 14.449219 8.621094 C 14.394531 8.621094 14.339844 8.621094 14.289062 8.621094 C 13.949219 8.621094 13.574219 8.617188 13.183594 8.597656 C 13.148438 8.59375 13.117188 8.59375 13.085938 8.589844 C 13 8.585938 12.910156 8.578125 12.824219 8.570312 C 12.785156 8.570312 12.746094 8.566406 12.707031 8.5625 C 12.582031 8.550781 12.457031 8.539062 12.332031 8.519531 C 12.332031 8.519531 12.3125 8.519531 12.3125 8.519531 C 12.308594 8.519531 12.304688 8.519531 12.300781 8.519531 C 12.292969 8.519531 12.289062 8.515625 12.28125 8.515625 C 12.136719 8.496094 11.992188 8.480469 11.851562 8.464844 C 11.714844 8.449219 11.582031 8.433594 11.453125 8.421875 C 11.414062 8.417969 11.378906 8.414062 11.34375 8.410156 C 11.09375 8.382812 10.839844 8.351562 10.585938 8.324219 C 10.496094 8.3125 10.410156 8.300781 10.320312 8.289062 L 10.300781 8.304688 L 10.304688 8.289062 C 10.210938 8.277344 10.117188 8.261719 10.019531 8.25 C 9.859375 8.226562 9.695312 8.203125 9.535156 8.171875 L 9.570312 8.304688 L 9.328125 8.144531 L 9.082031 8.304688 L 9.136719 8.101562 C 9.085938 8.089844 9.03125 8.078125 8.976562 8.070312 C 8.851562 8.042969 8.726562 8.019531 8.597656 7.996094 L 8.59375 7.996094 C 8.519531 7.980469 8.445312 7.964844 8.367188 7.949219 L 8.273438 8.023438 L 8.351562 8.304688 L 8.105469 8.144531 L 7.863281 8.304688 L 7.9375 8.023438 L 7.710938 7.84375 L 7.800781 7.839844 C 7.726562 7.824219 7.652344 7.808594 7.578125 7.792969 C 7.570312 7.792969 7.5625 7.792969 7.558594 7.792969 C 7.550781 7.789062 7.546875 7.789062 7.539062 7.785156 C 7.464844 7.769531 7.394531 7.757812 7.324219 7.742188 L 7.304688 7.738281 C 7.179688 7.710938 7.050781 7.683594 6.925781 7.65625 L 6.992188 7.828125 L 7.285156 7.84375 L 7.054688 8.023438 L 7.132812 8.304688 L 6.886719 8.144531 L 6.640625 8.304688 L 6.71875 8.023438 L 6.492188 7.84375 L 6.78125 7.828125 L 6.855469 7.644531 C 6.441406 7.550781 6.027344 7.449219 5.636719 7.296875 C 5.613281 7.285156 5.574219 7.273438 5.53125 7.277344 C 5.480469 7.28125 5.425781 7.316406 5.417969 7.375 C 5.410156 7.421875 5.433594 7.457031 5.449219 7.476562 L 5.453125 7.484375 C 5.484375 7.527344 5.492188 7.585938 5.480469 7.640625 C 5.476562 7.628906 5.472656 7.621094 5.464844 7.613281 C 5.453125 7.601562 5.4375 7.59375 5.421875 7.59375 C 5.40625 7.59375 5.394531 7.59375 5.378906 7.59375 C 5.351562 7.601562 5.328125 7.613281 5.316406 7.632812 C 5.296875 7.652344 5.292969 7.679688 5.292969 7.695312 C 5.207031 7.703125 5.121094 7.6875 5.042969 7.648438 C 4.949219 7.601562 4.886719 7.546875 4.847656 7.484375 C 4.835938 7.464844 4.820312 7.433594 4.792969 7.414062 C 4.753906 7.382812 4.699219 7.375 4.65625 7.398438 C 4.613281 7.421875 4.597656 7.46875 4.59375 7.492188 C 4.574219 7.554688 4.558594 7.625 4.578125 7.699219 C 4.582031 7.71875 4.597656 7.734375 4.613281 7.742188 C 4.613281 7.746094 4.613281 7.753906 4.613281 7.761719 L 4.613281 7.777344 C 4.613281 7.792969 4.613281 7.8125 4.617188 7.832031 L 4.84375 7.84375 L 4.617188 8.023438 L 4.691406 8.304688 L 4.609375 8.25 C 4.609375 8.253906 4.605469 8.253906 4.605469 8.257812 C 4.578125 8.296875 4.578125 8.347656 4.605469 8.386719 C 4.617188 8.402344 4.632812 8.410156 4.644531 8.417969 L 4.648438 8.421875 C 4.65625 8.425781 4.660156 8.4375 4.660156 8.445312 C 4.660156 8.449219 4.660156 8.449219 4.660156 8.453125 C 4.601562 8.449219 4.546875 8.496094 4.542969 8.550781 C 4.539062 8.585938 4.554688 8.613281 4.566406 8.632812 C 4.570312 8.636719 4.574219 8.640625 4.574219 8.644531 C 4.574219 8.648438 4.574219 8.648438 4.574219 8.652344 C 4.570312 8.65625 4.570312 8.65625 4.566406 8.660156 C 4.5625 8.667969 4.558594 8.675781 4.550781 8.683594 L 4.546875 8.691406 C 4.492188 8.769531 4.472656 8.855469 4.457031 8.9375 L 4.445312 8.988281 C 4.429688 9.050781 4.417969 9.117188 4.375 9.144531 C 4.34375 9.171875 4.316406 9.207031 4.304688 9.257812 C 4.296875 9.277344 4.292969 9.300781 4.289062 9.320312 C 4.289062 9.332031 4.285156 9.34375 4.285156 9.355469 C 4.277344 9.386719 4.265625 9.417969 4.253906 9.449219 C 4.25 9.453125 4.25 9.457031 4.25 9.460938 C 4.242188 9.480469 4.234375 9.5 4.230469 9.519531 C 4.226562 9.527344 4.226562 9.53125 4.226562 9.539062 C 4.21875 9.554688 4.214844 9.574219 4.207031 9.585938 C 4.175781 9.632812 4.15625 9.683594 4.136719 9.730469 C 4.117188 9.773438 4.097656 9.820312 4.074219 9.859375 C 4 9.972656 3.929688 10.085938 3.855469 10.199219 C 3.847656 10.210938 3.839844 10.226562 3.828125 10.242188 L 3.808594 10.273438 C 3.789062 10.289062 3.773438 10.3125 3.765625 10.335938 C 3.757812 10.359375 3.757812 10.382812 3.757812 10.402344 C 3.757812 10.476562 3.757812 10.554688 3.757812 10.632812 C 3.757812 10.664062 3.757812 10.695312 3.757812 10.722656 C 3.757812 10.761719 3.757812 10.800781 3.757812 10.84375 C 3.75 10.847656 3.746094 10.851562 3.742188 10.859375 C 3.738281 10.867188 3.734375 10.878906 3.730469 10.890625 C 3.726562 10.914062 3.722656 10.9375 3.722656 10.957031 C 3.722656 10.980469 3.722656 11 3.726562 11.023438 C 3.726562 11.066406 3.730469 11.113281 3.71875 11.144531 C 3.714844 11.152344 3.714844 11.15625 3.710938 11.164062 C 3.675781 11.257812 3.640625 11.347656 3.601562 11.429688 C 3.53125 11.460938 3.480469 11.5 3.453125 11.550781 C 3.421875 11.597656 3.414062 11.652344 3.40625 11.699219 C 3.402344 11.730469 3.40625 11.761719 3.40625 11.792969 C 3.410156 11.808594 3.414062 11.820312 3.421875 11.828125 C 3.457031 11.871094 3.488281 11.910156 3.511719 11.953125 C 3.519531 11.964844 3.527344 11.988281 3.539062 12.015625 C 3.546875 12.042969 3.554688 12.078125 3.558594 12.109375 C 3.558594 12.144531 3.550781 12.175781 3.53125 12.203125 C 3.503906 12.246094 3.480469 12.296875 3.464844 12.351562 C 3.457031 12.382812 3.449219 12.417969 3.449219 12.453125 C 3.449219 12.460938 3.449219 12.464844 3.449219 12.472656 C 3.449219 12.511719 3.453125 12.550781 3.464844 12.585938 C 3.46875 12.609375 3.476562 12.636719 3.492188 12.664062 L 3.625 12.671875 L 3.542969 12.734375 C 3.550781 12.742188 3.558594 12.746094 3.566406 12.753906 C 3.574219 12.757812 3.582031 12.761719 3.585938 12.769531 C 3.589844 12.769531 3.589844 12.773438 3.589844 12.773438 C 3.574219 12.808594 3.582031 12.851562 3.597656 12.882812 C 3.609375 12.90625 3.625 12.921875 3.640625 12.9375 C 3.644531 12.941406 3.648438 12.945312 3.652344 12.949219 C 3.65625 12.953125 3.65625 12.953125 3.660156 12.957031 C 3.636719 12.992188 3.625 13.03125 3.625 13.074219 C 3.628906 13.121094 3.648438 13.171875 3.6875 13.203125 C 3.699219 13.21875 3.714844 13.226562 3.730469 13.238281 C 3.738281 13.242188 3.746094 13.25 3.753906 13.257812 C 3.757812 13.261719 3.761719 13.265625 3.761719 13.265625 C 3.761719 13.273438 3.761719 13.28125 3.761719 13.285156 C 3.761719 13.292969 3.761719 13.304688 3.765625 13.308594 C 3.765625 13.308594 3.765625 13.3125 3.765625 13.316406 C 3.761719 13.324219 3.757812 13.332031 3.753906 13.339844 L 3.75 13.351562 C 3.707031 13.460938 3.703125 13.585938 3.746094 13.691406 C 3.746094 13.695312 3.746094 13.699219 3.75 13.703125 C 3.761719 13.71875 3.777344 13.730469 3.796875 13.734375 C 3.800781 13.734375 3.804688 13.738281 3.808594 13.746094 L 3.8125 13.753906 C 3.824219 13.777344 3.839844 13.800781 3.867188 13.820312 L 3.953125 13.59375 L 4.058594 13.863281 L 4.351562 13.878906 L 4.121094 14.058594 L 4.199219 14.335938 L 3.953125 14.179688 L 3.851562 14.246094 C 3.863281 14.261719 3.875 14.273438 3.886719 14.285156 C 3.894531 14.292969 3.902344 14.300781 3.910156 14.308594 C 3.917969 14.320312 3.921875 14.328125 3.925781 14.332031 C 3.910156 14.382812 3.925781 14.429688 3.941406 14.46875 C 3.972656 14.554688 4.003906 14.640625 4.058594 14.722656 C 4.066406 14.730469 4.074219 14.738281 4.078125 14.75 C 4.097656 14.777344 4.117188 14.800781 4.121094 14.824219 C 4.125 14.835938 4.128906 14.847656 4.136719 14.855469 C 4.179688 14.90625 4.191406 14.976562 4.164062 15.035156 L 4.15625 15.050781 C 4.152344 15.058594 4.148438 15.070312 4.144531 15.078125 L 4.34375 15.070312 L 4.445312 14.800781 L 4.550781 15.070312 L 4.84375 15.085938 L 4.617188 15.265625 L 4.691406 15.542969 L 4.445312 15.386719 L 4.402344 15.414062 C 4.429688 15.425781 4.453125 15.445312 4.46875 15.464844 C 4.484375 15.480469 4.5 15.488281 4.519531 15.488281 C 4.519531 15.488281 4.527344 15.488281 4.53125 15.488281 C 4.542969 15.484375 4.558594 15.484375 4.574219 15.484375 C 4.589844 15.484375 4.59375 15.488281 4.597656 15.488281 C 4.605469 15.492188 4.613281 15.507812 4.621094 15.519531 C 4.625 15.527344 4.628906 15.53125 4.632812 15.539062 C 4.640625 15.550781 4.648438 15.5625 4.65625 15.574219 C 4.667969 15.589844 4.679688 15.605469 4.683594 15.617188 C 4.6875 15.621094 4.6875 15.628906 4.691406 15.636719 C 4.695312 15.65625 4.703125 15.679688 4.722656 15.703125 C 4.75 15.734375 4.78125 15.746094 4.808594 15.753906 L 4.820312 15.757812 C 4.828125 15.761719 4.835938 15.765625 4.835938 15.769531 C 4.839844 15.78125 4.847656 15.792969 4.859375 15.800781 C 4.890625 15.820312 4.921875 15.820312 4.933594 15.820312 C 4.9375 15.820312 4.957031 15.820312 4.960938 15.820312 C 4.972656 15.820312 4.984375 15.828125 4.992188 15.839844 C 4.996094 15.847656 4.996094 15.855469 4.996094 15.859375 C 4.992188 15.863281 4.988281 15.867188 4.988281 15.871094 C 4.964844 15.898438 4.957031 15.933594 4.976562 15.964844 C 4.988281 15.984375 5.007812 15.996094 5.03125 16 C 5.054688 16 5.078125 16 5.101562 16 L 5.136719 16 C 5.160156 16 5.179688 16 5.207031 16 C 5.222656 16 5.238281 15.992188 5.25 15.980469 C 5.253906 15.980469 5.257812 15.984375 5.257812 15.984375 C 5.277344 15.996094 5.289062 16.015625 5.304688 16.039062 L 5.324219 16.0625 C 5.363281 16.113281 5.402344 16.167969 5.402344 16.222656 C 5.402344 16.242188 5.402344 16.261719 5.402344 16.28125 L 5.570312 16.292969 L 5.402344 16.425781 C 5.402344 16.464844 5.402344 16.503906 5.402344 16.542969 C 5.398438 16.574219 5.425781 16.601562 5.457031 16.605469 L 6.167969 16.6875 L 6.226562 16.472656 L 5.996094 16.292969 L 6.289062 16.277344 L 6.394531 16.007812 L 6.5 16.277344 L 6.789062 16.292969 L 6.5625 16.472656 L 6.640625 16.75 L 6.394531 16.59375 L 6.234375 16.695312 L 6.382812 16.714844 C 6.390625 16.714844 6.398438 16.714844 6.414062 16.714844 C 6.433594 16.71875 6.449219 16.71875 6.464844 16.722656 C 6.457031 16.746094 6.449219 16.777344 6.460938 16.8125 C 6.476562 16.851562 6.511719 16.867188 6.527344 16.875 L 6.625 16.925781 C 6.660156 16.945312 6.691406 16.960938 6.722656 16.980469 C 6.773438 17.007812 6.820312 17.035156 6.863281 17.058594 C 6.898438 17.082031 6.933594 17.101562 6.96875 17.121094 L 7.222656 17.273438 C 7.265625 17.296875 7.308594 17.320312 7.351562 17.339844 C 7.402344 17.367188 7.453125 17.394531 7.5 17.425781 L 7.828125 17.628906 C 7.851562 17.644531 7.871094 17.660156 7.894531 17.675781 C 7.90625 17.683594 7.917969 17.691406 7.933594 17.699219 L 7.9375 17.679688 L 7.710938 17.5 L 8.003906 17.484375 L 8.105469 17.214844 L 8.210938 17.484375 L 8.503906 17.5 L 8.273438 17.679688 L 8.3125 17.820312 C 8.34375 17.824219 8.371094 17.828125 8.402344 17.832031 L 8.414062 17.832031 C 8.535156 17.851562 8.660156 17.867188 8.785156 17.878906 C 8.863281 17.886719 8.945312 17.894531 9.039062 17.90625 L 9.046875 17.90625 C 9.050781 17.90625 9.054688 17.90625 9.058594 17.902344 C 9.0625 17.90625 9.070312 17.910156 9.078125 17.910156 C 9.082031 17.910156 9.089844 17.910156 9.09375 17.910156 L 9.15625 17.679688 L 8.929688 17.5 L 9.222656 17.484375 L 9.328125 17.214844 L 9.429688 17.484375 L 9.722656 17.5 L 9.496094 17.679688 L 9.523438 17.777344 L 9.527344 17.714844 C 9.574219 17.714844 9.617188 17.71875 9.660156 17.71875 C 9.78125 17.726562 9.878906 17.734375 9.964844 17.742188 C 10.019531 17.75 10.074219 17.757812 10.132812 17.769531 L 10.148438 17.773438 C 9.902344 17.472656 9.640625 17.183594 9.355469 16.898438 C 9.21875 16.765625 9.078125 16.628906 8.933594 16.496094 "/>
</g>
</g>
</svg>
