<?xml version="1.0" encoding="UTF-8"?>
<svg width="24px" height="13px" viewBox="0 0 24 13" version="1.1" xmlns="http://www.w3.org/2000/svg" xmlns:xlink="http://www.w3.org/1999/xlink">
    <!-- Generator: Sketch 54.1 (76490) - https://sketchapp.com -->
    <title>tabicon-uslist</title>
    <desc>Created with Sketch.</desc>
    <defs>
        <polygon id="path-1" points="0.386719 0.617188 23.613281 0.617188 23.613281 12.957031 0.386719 12.957031"></polygon>
    </defs>
    <g id="Page-1" stroke="none" stroke-width="1" fill="none" fill-rule="evenodd">
        <g id="tabicon-uslist">
            <mask id="mask-2" fill="white">
                <use xlink:href="#path-1"></use>
            </mask>
            <g id="Path"></g>
            <path d="M11.179688,0.625 C11.429688,0.625 11.671875,0.664062 11.898438,0.738281 C12.570312,0.96875 12.824219,1.214844 13.019531,1.820312 C13.128906,2.164062 13.171875,2.238281 13.339844,2.339844 C13.4375,2.402344 13.457031,2.433594 13.425781,2.46875 C13.398438,2.507812 13.398438,2.570312 13.429688,2.71875 C13.449219,2.824219 13.457031,2.957031 13.445312,3.007812 C13.433594,3.0625 13.441406,3.191406 13.464844,3.296875 C13.535156,3.628906 13.753906,4.246094 13.816406,4.292969 C13.886719,4.347656 14.101562,4.355469 14.222656,4.308594 C14.339844,4.265625 14.636719,3.988281 14.699219,3.867188 C14.839844,3.589844 14.867188,3.359375 14.871094,2.484375 C14.875,1.6875 14.882812,1.621094 14.953125,1.46875 C15.109375,1.132812 15.4375,0.929688 15.9375,0.847656 C16.175781,0.8125 16.921875,0.835938 18.054688,0.921875 C18.960938,0.988281 19.984375,1.003906 20.738281,0.960938 C21.722656,0.90625 22.835938,0.820312 23.226562,0.773438 C23.398438,0.75 23.554688,0.746094 23.578125,0.757812 C23.605469,0.777344 23.613281,0.859375 23.601562,1 C23.585938,1.191406 23.558594,1.246094 23.410156,1.441406 C23.316406,1.566406 23.214844,1.6875 23.183594,1.710938 C23.074219,1.792969 22.933594,1.9375 22.933594,1.96875 C22.933594,1.984375 23.023438,2.058594 23.136719,2.132812 C23.46875,2.347656 23.503906,2.378906 23.503906,2.445312 C23.503906,2.625 23.132812,2.832031 22.609375,2.941406 L22.234375,3.023438 L22.222656,3.148438 C22.214844,3.257812 22.230469,3.289062 22.332031,3.367188 C22.398438,3.417969 22.492188,3.46875 22.539062,3.472656 C22.695312,3.496094 22.667969,3.609375 22.453125,3.8125 C22.207031,4.054688 21.96875,4.179688 21.597656,4.273438 C21.207031,4.375 21.167969,4.398438 21.199219,4.519531 C21.210938,4.570312 21.257812,4.652344 21.300781,4.699219 L21.378906,4.785156 L21.269531,4.875 C21.015625,5.089844 20.839844,5.144531 20.289062,5.175781 C20.082031,5.1875 19.914062,5.214844 19.914062,5.234375 C19.914062,5.253906 19.945312,5.273438 19.984375,5.28125 C20.152344,5.308594 20.152344,5.324219 19.984375,5.492188 C19.726562,5.746094 19.566406,5.800781 19.027344,5.824219 C18.621094,5.84375 18.558594,5.855469 18.496094,5.921875 C18.441406,5.980469 18.433594,6.027344 18.449219,6.128906 C18.46875,6.242188 18.460938,6.261719 18.371094,6.308594 C18.3125,6.335938 18.132812,6.363281 17.949219,6.367188 C17.769531,6.371094 17.613281,6.378906 17.601562,6.378906 C17.546875,6.382812 17.574219,6.648438 17.632812,6.714844 C17.722656,6.820312 17.648438,6.863281 17.3125,6.90625 C17.027344,6.945312 17.019531,6.949219 17.007812,7.046875 C16.992188,7.1875 16.808594,7.265625 16.484375,7.269531 C16.25,7.273438 16.230469,7.277344 16.222656,7.359375 C16.214844,7.40625 16.226562,7.460938 16.246094,7.484375 C16.269531,7.503906 16.285156,7.558594 16.285156,7.605469 C16.285156,7.730469 16.074219,7.785156 15.777344,7.730469 C15.652344,7.710938 15.53125,7.691406 15.507812,7.691406 C15.453125,7.691406 15.453125,7.808594 15.511719,7.867188 C15.546875,7.90625 15.535156,7.933594 15.453125,8.003906 C15.378906,8.070312 15.3125,8.089844 15.179688,8.089844 C15.039062,8.089844 14.996094,8.105469 14.964844,8.164062 C14.917969,8.257812 14.765625,8.335938 14.539062,8.386719 C14.441406,8.40625 14.351562,8.4375 14.34375,8.449219 C14.335938,8.460938 14.320312,8.574219 14.308594,8.695312 L14.285156,8.914062 L14.460938,9.03125 C14.699219,9.191406 14.773438,9.328125 14.804688,9.6875 C14.816406,9.851562 14.84375,9.992188 14.863281,10.003906 C14.914062,10.035156 14.898438,10.160156 14.839844,10.195312 C14.789062,10.222656 14.792969,10.273438 14.890625,10.636719 C15.003906,11.066406 15.035156,11.132812 15.152344,11.167969 C15.203125,11.1875 15.21875,11.214844 15.207031,11.285156 C15.1875,11.371094 15.191406,11.375 15.351562,11.355469 C15.445312,11.347656 15.769531,11.292969 16.074219,11.238281 C16.378906,11.183594 16.78125,11.113281 16.964844,11.078125 C17.273438,11.027344 17.308594,11.011719 17.351562,10.921875 C17.398438,10.824219 17.402344,10.820312 17.742188,10.8125 C17.933594,10.808594 18.195312,10.804688 18.324219,10.800781 C18.453125,10.796875 18.640625,10.777344 18.746094,10.753906 C19.058594,10.6875 19.296875,10.703125 19.523438,10.800781 C19.738281,10.898438 19.765625,10.976562 19.589844,10.996094 C19.273438,11.023438 19.246094,11.078125 19.503906,11.164062 C19.65625,11.214844 19.695312,11.214844 19.753906,11.175781 C19.863281,11.09375 20.207031,11.15625 20.445312,11.292969 C20.554688,11.355469 20.644531,11.421875 20.644531,11.441406 C20.644531,11.476562 20.550781,11.503906 20.378906,11.519531 C20.210938,11.535156 20.25,11.585938 20.503906,11.671875 C20.835938,11.789062 20.996094,11.90625 20.902344,11.964844 C20.886719,11.972656 20.710938,12.007812 20.515625,12.042969 C20.019531,12.128906 19.996094,12.171875 20.378906,12.300781 C20.476562,12.332031 20.566406,12.378906 20.582031,12.398438 C20.621094,12.460938 20.503906,12.53125 20.363281,12.53125 C20.253906,12.53125 19.925781,12.621094 19.691406,12.714844 C19.636719,12.734375 19.601562,12.730469 19.570312,12.691406 C19.519531,12.628906 19.445312,12.648438 19.207031,12.789062 C18.945312,12.949219 18.859375,12.925781 18.859375,12.691406 C18.859375,12.644531 18.839844,12.605469 18.820312,12.605469 C18.761719,12.605469 18.316406,12.789062 18.234375,12.847656 C18.117188,12.925781 18.074219,12.90625 18.074219,12.769531 C18.074219,12.609375 18.027344,12.585938 17.664062,12.539062 C17.503906,12.519531 17.359375,12.5 17.339844,12.492188 C17.320312,12.488281 17.257812,12.496094 17.203125,12.511719 C17.132812,12.53125 17.09375,12.527344 17.074219,12.496094 C17.058594,12.472656 16.929688,12.4375 16.78125,12.421875 C16.636719,12.402344 16.484375,12.378906 16.445312,12.371094 C16.375,12.351562 16.039062,12.300781 15.375,12.203125 C15.238281,12.183594 15.074219,12.160156 15.015625,12.148438 C14.914062,12.132812 14.898438,12.140625 14.882812,12.230469 C14.867188,12.289062 14.8125,12.367188 14.738281,12.417969 C14.605469,12.503906 14.539062,12.496094 14.390625,12.363281 C14.339844,12.316406 14.316406,12.324219 14.21875,12.421875 C14.089844,12.554688 14,12.550781 13.9375,12.414062 C13.878906,12.289062 13.835938,12.289062 13.742188,12.40625 C13.644531,12.53125 13.5,12.515625 13.433594,12.375 C13.402344,12.304688 13.367188,12.277344 13.328125,12.292969 C13.296875,12.304688 13.261719,12.296875 13.246094,12.269531 C13.226562,12.238281 13.199219,12.242188 13.144531,12.292969 C13.046875,12.382812 13.011719,12.339844 13.058594,12.203125 C13.117188,12.046875 13.039062,12.0625 12.9375,12.222656 C12.847656,12.363281 12.761719,12.394531 12.800781,12.277344 L12.84375,12.128906 C12.859375,12.074219 12.847656,12.058594 12.789062,12.058594 C12.738281,12.058594 12.695312,12.097656 12.652344,12.183594 C12.585938,12.332031 12.476562,12.398438 12.515625,12.269531 C12.585938,12.023438 12.507812,11.996094 12.398438,12.222656 C12.355469,12.320312 12.300781,12.382812 12.277344,12.375 C12.25,12.367188 12.238281,12.335938 12.246094,12.308594 C12.253906,12.28125 12.265625,12.230469 12.277344,12.195312 C12.308594,12.078125 12.226562,12.128906 12.144531,12.28125 C12.089844,12.375 12.050781,12.417969 12.027344,12.394531 C12.003906,12.371094 12.007812,12.332031 12.03125,12.28125 C12.097656,12.160156 12.011719,12.15625 11.941406,12.277344 C11.871094,12.398438 11.804688,12.417969 11.773438,12.328125 C11.753906,12.285156 11.734375,12.28125 11.679688,12.3125 C11.640625,12.332031 11.601562,12.347656 11.589844,12.347656 C11.5625,12.347656 11.566406,12.238281 11.597656,12.238281 C11.613281,12.238281 11.65625,12.195312 11.691406,12.144531 C11.761719,12.050781 11.761719,12.046875 11.691406,11.996094 C11.628906,11.949219 11.628906,11.941406 11.6875,11.910156 C11.742188,11.875 11.742188,11.863281 11.660156,11.730469 C11.609375,11.652344 11.570312,11.570312 11.570312,11.550781 C11.570312,11.484375 11.015625,11.421875 10.929688,11.476562 C10.847656,11.527344 10.890625,11.542969 11.199219,11.589844 C11.355469,11.609375 11.492188,11.648438 11.507812,11.671875 C11.523438,11.695312 11.535156,11.769531 11.535156,11.839844 C11.535156,11.910156 11.546875,12.03125 11.558594,12.105469 L11.582031,12.246094 L11.371094,12.222656 C11.164062,12.195312 10.71875,12.113281 10.597656,12.074219 C10.554688,12.058594 10.53125,12.085938 10.507812,12.175781 C10.480469,12.273438 10.453125,12.300781 10.339844,12.328125 C10.234375,12.355469 10.183594,12.351562 10.101562,12.300781 C9.96875,12.226562 9.90625,12.222656 9.878906,12.292969 C9.847656,12.375 9.6875,12.363281 9.601562,12.273438 C9.539062,12.207031 9.519531,12.207031 9.46875,12.25 C9.4375,12.277344 9.363281,12.320312 9.308594,12.34375 C9.222656,12.378906 9.195312,12.375 9.113281,12.3125 C9.023438,12.246094 8.996094,12.242188 8.816406,12.28125 C8.710938,12.304688 8.554688,12.371094 8.472656,12.425781 C8.390625,12.484375 8.292969,12.53125 8.253906,12.53125 C8.21875,12.53125 8.117188,12.558594 8.03125,12.589844 C7.796875,12.671875 7.359375,12.667969 7.214844,12.582031 C7.101562,12.515625 7.101562,12.515625 6.964844,12.59375 C6.808594,12.6875 6.28125,12.769531 6.089844,12.734375 C6.019531,12.722656 5.890625,12.648438 5.800781,12.570312 L5.640625,12.425781 L5.480469,12.5 C5.066406,12.683594 4.449219,12.699219 4.085938,12.527344 C3.933594,12.457031 3.847656,12.445312 3.480469,12.441406 C3.035156,12.4375 2.976562,12.414062 3.183594,12.3125 C3.351562,12.230469 3.339844,12.179688 3.132812,12.113281 C2.832031,12.011719 2.703125,11.929688 2.578125,11.773438 C2.511719,11.691406 2.429688,11.617188 2.390625,11.601562 C2.257812,11.558594 2.316406,11.511719 2.476562,11.535156 C2.648438,11.558594 2.890625,11.527344 2.890625,11.480469 C2.890625,11.460938 2.777344,11.355469 2.640625,11.238281 C2.378906,11.023438 2.34375,10.964844 2.457031,10.964844 C2.492188,10.964844 2.683594,10.925781 2.875,10.875 C3.144531,10.804688 3.300781,10.785156 3.53125,10.789062 L3.835938,10.800781 L3.824219,10.710938 C3.816406,10.660156 3.796875,10.59375 3.777344,10.558594 C3.6875,10.386719 3.703125,10.386719 4.433594,10.410156 C4.992188,10.425781 5.144531,10.441406 5.25,10.496094 C5.359375,10.550781 5.449219,10.558594 5.988281,10.542969 L6.605469,10.523438 L6.789062,10.628906 C6.917969,10.699219 7.007812,10.785156 7.09375,10.917969 C7.230469,11.140625 7.238281,11.207031 7.136719,11.296875 C7.09375,11.335938 7.070312,11.386719 7.082031,11.421875 C7.113281,11.507812 7.210938,11.484375 7.234375,11.382812 C7.25,11.3125 7.277344,11.292969 7.359375,11.292969 C7.484375,11.292969 7.488281,11.257812 7.375,11.148438 C7.273438,11.054688 7.140625,10.8125 7.140625,10.726562 C7.140625,10.660156 7.210938,10.660156 7.300781,10.730469 C7.355469,10.773438 7.433594,10.78125 7.660156,10.761719 C8.027344,10.730469 8.269531,10.785156 8.496094,10.941406 C8.664062,11.0625 8.929688,11.136719 9.003906,11.089844 C9.070312,11.050781 9.25,10.738281 9.25,10.664062 C9.25,10.601562 9.230469,10.597656 9.125,10.613281 C8.984375,10.636719 8.964844,10.597656 9.050781,10.472656 C9.078125,10.429688 9.128906,10.25 9.160156,10.070312 C9.238281,9.640625 9.273438,9.53125 9.382812,9.398438 C9.539062,9.179688 9.355469,9.082031 9.308594,8.917969 C9.261719,8.753906 9.25,8.488281 9.25,8.488281 C9.214844,8.484375 9.15625,8.496094 9.0625,8.515625 C8.976562,8.535156 8.964844,8.523438 8.941406,8.394531 C8.910156,8.214844 8.785156,7.980469 8.722656,7.980469 C8.695312,7.980469 8.605469,8.03125 8.523438,8.089844 C8.441406,8.152344 8.332031,8.203125 8.285156,8.210938 C8.199219,8.21875 8.195312,8.207031 8.171875,7.992188 C8.144531,7.761719 8.054688,7.585938 7.964844,7.582031 C7.9375,7.582031 7.8125,7.640625 7.6875,7.707031 C7.339844,7.902344 7.308594,7.890625 7.261719,7.542969 L7.238281,7.355469 L7.109375,7.375 C7.039062,7.386719 6.894531,7.417969 6.792969,7.441406 C6.542969,7.503906 6.515625,7.472656 6.515625,7.117188 L6.515625,6.835938 L6.355469,6.847656 C5.972656,6.882812 5.945312,6.878906 5.933594,6.789062 C5.925781,6.742188 5.953125,6.644531 5.988281,6.570312 C6.027344,6.496094 6.070312,6.378906 6.085938,6.316406 C6.113281,6.179688 6.070312,6.167969 5.867188,6.253906 C5.722656,6.316406 5.261719,6.339844 5.210938,6.285156 C5.1875,6.261719 5.191406,6.175781 5.21875,6.042969 C5.246094,5.910156 5.25,5.824219 5.226562,5.800781 C5.207031,5.785156 5.082031,5.789062 4.925781,5.816406 C4.507812,5.890625 4.359375,5.835938 4.40625,5.609375 C4.5,5.128906 4.503906,5.128906 4.152344,5.222656 C3.765625,5.324219 3.25,5.308594 3.136719,5.191406 C3.0625,5.117188 3.058594,5.101562 3.101562,4.9375 C3.179688,4.632812 3.203125,4.488281 3.167969,4.46875 C3.152344,4.457031 2.957031,4.464844 2.730469,4.488281 C2.4375,4.515625 2.261719,4.515625 2.097656,4.488281 C1.679688,4.417969 1.710938,4.4375 1.710938,4.222656 C1.710938,4.066406 1.734375,3.996094 1.835938,3.832031 C1.929688,3.683594 1.960938,3.601562 1.953125,3.503906 C1.941406,3.386719 1.933594,3.375 1.78125,3.347656 C1.488281,3.292969 1.085938,3.167969 1.023438,3.113281 C0.914062,3.015625 0.945312,2.890625 1.140625,2.675781 C1.378906,2.414062 1.367188,2.351562 1.078125,2.238281 C0.675781,2.082031 0.386719,1.726562 0.390625,1.386719 C0.390625,1.132812 0.609375,1.105469 3.03125,1.105469 C4.550781,1.105469 5.1875,1.089844 5.605469,1.046875 C8.042969,0.808594 8.265625,0.800781 8.550781,0.933594 C8.863281,1.082031 8.945312,1.179688 9.03125,1.496094 C9.117188,1.816406 9.101562,2.089844 8.964844,2.832031 C8.878906,3.308594 8.867188,3.492188 8.957031,3.832031 C9.046875,4.175781 9.367188,4.578125 9.496094,4.574219 C9.625,4.574219 9.875,4.441406 10.050781,4.085938 C10.101562,3.980469 10.222656,3.792969 10.320312,3.667969 C10.535156,3.386719 10.589844,3.277344 10.621094,3.054688 C10.644531,2.90625 10.640625,2.878906 10.597656,2.898438 C10.558594,2.910156 10.5625,2.882812 10.617188,2.765625 C10.707031,2.574219 10.707031,2.269531 10.613281,2.109375 C10.539062,1.980469 10.242188,1.796875 10.101562,1.796875 C9.972656,1.792969 9.882812,1.90625 9.898438,2.050781 C9.917969,2.238281 9.84375,2.191406 9.773438,1.976562 C9.609375,1.460938 9.625,1.265625 9.855469,1.054688 C10.046875,0.875 10.21875,0.792969 10.578125,0.707031 C10.785156,0.65625 10.984375,0.628906 11.179688,0.625 Z M11.171875,0.773438 C10.851562,0.773438 10.714844,0.800781 10.714844,0.867188 C10.714844,0.976562 10.867188,1.03125 11.179688,1.03125 C11.480469,1.03125 11.832031,1.105469 11.878906,1.179688 C11.910156,1.234375 11.785156,1.320312 11.671875,1.320312 C11.597656,1.320312 11.578125,1.308594 11.59375,1.265625 C11.605469,1.238281 11.597656,1.210938 11.578125,1.210938 C11.558594,1.210938 11.53125,1.238281 11.519531,1.269531 C11.507812,1.308594 11.464844,1.324219 11.382812,1.316406 C11.292969,1.304688 11.265625,1.285156 11.257812,1.222656 C11.242188,1.132812 11.140625,1.105469 11.140625,1.191406 C11.140625,1.21875 11.113281,1.253906 11.074219,1.265625 C11.011719,1.285156 11.011719,1.296875 11.09375,1.496094 C11.179688,1.707031 11.203125,1.902344 11.144531,1.902344 C11.125,1.902344 11.03125,1.863281 10.933594,1.8125 C10.835938,1.761719 10.695312,1.722656 10.617188,1.722656 L10.480469,1.722656 L10.582031,1.800781 C10.699219,1.886719 10.820312,2.148438 10.820312,2.304688 C10.820312,2.398438 10.898438,2.523438 10.957031,2.523438 C10.96875,2.523438 10.980469,2.652344 10.980469,2.816406 C10.980469,3.085938 10.972656,3.113281 10.882812,3.199219 C10.792969,3.28125 10.769531,3.332031 10.78125,3.40625 C10.78125,3.421875 10.761719,3.484375 10.730469,3.542969 C10.6875,3.625 10.65625,3.648438 10.609375,3.632812 C10.5625,3.617188 10.539062,3.636719 10.523438,3.691406 C10.503906,3.773438 10.550781,3.90625 10.597656,3.90625 C10.632812,3.90625 10.820312,3.664062 10.820312,3.617188 C10.820312,3.597656 10.898438,3.53125 10.992188,3.46875 C11.082031,3.402344 11.171875,3.328125 11.1875,3.300781 C11.234375,3.21875 11.269531,3.242188 11.332031,3.398438 C11.398438,3.570312 11.433594,3.5625 11.65625,3.328125 L11.796875,3.183594 L11.871094,3.335938 C11.929688,3.449219 11.941406,3.507812 11.914062,3.570312 C11.875,3.671875 11.800781,3.675781 11.75,3.578125 C11.691406,3.46875 11.640625,3.523438 11.679688,3.65625 C11.722656,3.804688 11.8125,3.941406 11.867188,3.941406 C11.894531,3.941406 11.933594,3.886719 11.957031,3.824219 C11.976562,3.757812 12.007812,3.640625 12.019531,3.558594 C12.042969,3.410156 12.082031,3.339844 12.183594,3.257812 C12.234375,3.21875 12.261719,3.222656 12.363281,3.285156 C12.519531,3.382812 12.566406,3.378906 12.59375,3.265625 C12.621094,3.152344 12.558594,2.996094 12.484375,2.996094 C12.425781,2.996094 12.355469,2.890625 12.355469,2.800781 C12.355469,2.769531 12.402344,2.734375 12.464844,2.722656 C12.59375,2.695312 12.597656,2.671875 12.480469,2.5 C12.375,2.339844 12.371094,2.304688 12.464844,2.277344 C12.5625,2.253906 12.554688,2.179688 12.445312,2.09375 C12.308594,1.980469 12.347656,1.832031 12.519531,1.832031 C12.640625,1.832031 12.667969,1.894531 12.691406,2.230469 C12.703125,2.402344 12.722656,2.609375 12.734375,2.695312 C12.753906,2.820312 12.75,2.851562 12.703125,2.851562 C12.621094,2.851562 12.597656,2.910156 12.644531,3.003906 C12.707031,3.117188 12.746094,3.140625 12.90625,3.140625 L13.042969,3.140625 L13.027344,2.996094 C13.015625,2.914062 12.964844,2.789062 12.910156,2.71875 C12.851562,2.640625 12.824219,2.570312 12.839844,2.53125 C12.851562,2.496094 12.847656,2.367188 12.835938,2.238281 C12.816406,2.054688 12.789062,1.972656 12.691406,1.84375 C12.546875,1.652344 12.542969,1.636719 12.660156,1.65625 C12.796875,1.683594 12.800781,1.632812 12.667969,1.480469 C12.257812,1 11.773438,0.769531 11.171875,0.773438 Z M23.242188,0.921875 C23.089844,0.921875 22.144531,1.015625 21.949219,1.046875 C21.824219,1.070312 21.257812,1.117188 20.257812,1.195312 C19.386719,1.261719 19.097656,1.316406 19.269531,1.378906 C19.367188,1.421875 20.648438,1.339844 21.324219,1.253906 C21.492188,1.234375 21.773438,1.195312 21.949219,1.175781 C22.125,1.152344 22.359375,1.121094 22.464844,1.105469 C22.683594,1.074219 22.824219,1.09375 22.824219,1.15625 C22.824219,1.179688 22.769531,1.253906 22.703125,1.316406 C22.59375,1.425781 22.535156,1.449219 22.160156,1.523438 C21.636719,1.628906 20.695312,1.660156 19.507812,1.613281 C18.773438,1.582031 18.578125,1.597656 18.648438,1.667969 C18.660156,1.675781 18.8125,1.707031 18.988281,1.738281 C19.203125,1.769531 19.664062,1.789062 20.414062,1.792969 C21.382812,1.792969 21.574219,1.785156 21.898438,1.722656 C22.550781,1.597656 22.863281,1.488281 23.113281,1.300781 C23.308594,1.152344 23.441406,1.003906 23.410156,0.953125 C23.398438,0.9375 23.324219,0.921875 23.242188,0.921875 Z M16.882812,0.957031 C16.515625,0.953125 16.113281,0.972656 15.742188,1.046875 C15.371094,1.125 15.238281,1.1875 15.117188,1.339844 C14.953125,1.542969 14.917969,1.78125 14.945312,2.464844 C14.984375,3.453125 14.855469,4.058594 14.523438,4.429688 C14.417969,4.546875 14.394531,4.601562 14.394531,4.726562 C14.394531,4.933594 14.429688,5.105469 14.476562,5.105469 C14.496094,5.105469 14.59375,5.054688 14.695312,4.992188 C15.089844,4.742188 15.277344,4.484375 15.511719,3.867188 C15.675781,3.4375 15.699219,2.824219 15.574219,2.269531 C15.554688,2.179688 15.539062,2.09375 15.539062,2.078125 C15.539062,2.066406 15.625,2.007812 15.730469,1.945312 C15.835938,1.886719 15.96875,1.773438 16.03125,1.703125 L16.136719,1.566406 L16.382812,1.597656 C16.515625,1.617188 16.835938,1.628906 17.089844,1.628906 C17.480469,1.625 17.59375,1.609375 17.789062,1.539062 C18.039062,1.449219 18.503906,1.191406 18.503906,1.144531 C18.503906,1.105469 18.285156,1.019531 17.816406,0.996094 C17.582031,0.984375 17.25,0.957031 16.882812,0.957031 Z M10.371094,0.980469 C10.199219,0.972656 10.058594,1.015625 9.984375,1.101562 C9.90625,1.1875 9.824219,1.414062 9.820312,1.550781 C9.820312,1.644531 9.828125,1.648438 9.902344,1.605469 C10.035156,1.53125 10.59375,1.554688 10.804688,1.640625 C11.019531,1.734375 11.070312,1.738281 11.070312,1.664062 C11.070312,1.5625 10.925781,1.316406 10.769531,1.160156 C10.644531,1.03125 10.589844,1 10.449219,0.984375 C10.421875,0.984375 10.398438,0.980469 10.371094,0.980469 Z M17.410156,1.046875 C17.574219,1.046875 17.753906,1.0625 17.902344,1.199219 C17.550781,1.523438 16.71875,1.429688 16.34375,1.371094 C16.132812,1.339844 15.90625,1.324219 15.796875,1.335938 C15.519531,1.367188 15.53125,1.25 15.871094,1.179688 C16.367188,1.078125 16.78125,1.058594 17.257812,1.050781 C17.304688,1.046875 17.355469,1.046875 17.410156,1.046875 Z M7.65625,1.0625 C7.574219,1.066406 7.488281,1.066406 7.410156,1.074219 C6.558594,1.144531 5.527344,1.214844 5.328125,1.214844 C5.039062,1.210938 5.035156,1.265625 5.308594,1.484375 C5.738281,1.828125 6.511719,1.914062 7.160156,1.6875 C7.273438,1.644531 7.371094,1.617188 7.375,1.621094 C7.378906,1.625 7.410156,1.691406 7.445312,1.765625 C7.523438,1.941406 7.695312,2.050781 7.886719,2.050781 C8.050781,2.050781 8.054688,2.0625 7.984375,2.257812 C7.933594,2.394531 7.871094,2.703125 7.84375,2.960938 C7.835938,3.027344 7.859375,3.257812 7.894531,3.46875 C7.949219,3.8125 7.984375,3.941406 8.144531,4.378906 C8.292969,4.789062 8.914062,5.472656 9.089844,5.421875 C9.109375,5.414062 9.125,5.28125 9.125,5.117188 C9.125,4.816406 9.164062,4.707031 9.28125,4.707031 C9.316406,4.707031 9.359375,4.6875 9.382812,4.664062 C9.414062,4.632812 9.390625,4.597656 9.285156,4.519531 C9.117188,4.398438 8.886719,4.054688 8.828125,3.84375 C8.75,3.570312 8.734375,3.242188 8.792969,3.03125 C8.90625,2.621094 8.933594,2.378906 8.921875,2.007812 C8.910156,1.671875 8.894531,1.609375 8.804688,1.457031 C8.738281,1.34375 8.652344,1.253906 8.558594,1.203125 C8.410156,1.125 8.078125,1.070312 7.742188,1.066406 C7.714844,1.066406 7.683594,1.0625 7.65625,1.0625 Z M7.605469,1.183594 C7.910156,1.1875 8.210938,1.277344 8.4375,1.4375 C8.492188,1.476562 8.535156,1.523438 8.535156,1.542969 C8.535156,1.585938 8.402344,1.585938 8.375,1.546875 C8.367188,1.527344 8.234375,1.46875 8.085938,1.414062 C7.765625,1.300781 7.609375,1.308594 6.964844,1.472656 C6.4375,1.605469 5.988281,1.613281 5.640625,1.492188 C5.511719,1.449219 5.410156,1.394531 5.410156,1.375 C5.410156,1.351562 5.703125,1.332031 6.175781,1.320312 C6.753906,1.304688 7.007812,1.285156 7.195312,1.234375 C7.328125,1.199219 7.464844,1.183594 7.605469,1.183594 Z M2.515625,1.277344 C1.632812,1.277344 0.773438,1.28125 0.71875,1.300781 C0.449219,1.390625 0.894531,1.820312 1.425781,1.984375 C1.898438,2.128906 2.710938,2.238281 3.121094,2.210938 C3.242188,2.203125 3.511719,2.1875 3.730469,2.175781 C4.085938,2.15625 4.324219,2.128906 5.097656,2.011719 C5.265625,1.984375 5.355469,1.953125 5.355469,1.921875 C5.355469,1.84375 5.136719,1.679688 5.074219,1.703125 C5,1.734375 4.746094,1.777344 4.371094,1.828125 C4.003906,1.878906 2.664062,1.878906 2.15625,1.832031 C1.617188,1.777344 1.265625,1.65625 1.332031,1.546875 C1.347656,1.519531 1.859375,1.507812 2.882812,1.507812 C3.722656,1.507812 4.457031,1.492188 4.515625,1.476562 C4.691406,1.421875 4.648438,1.34375 4.425781,1.3125 C4.296875,1.292969 3.394531,1.28125 2.515625,1.277344 Z M17.523438,1.789062 C17.5,1.785156 17.472656,1.785156 17.441406,1.789062 C17.410156,1.789062 17.367188,1.789062 17.324219,1.792969 C17,1.804688 16.773438,1.941406 17.074219,1.941406 C17.269531,1.941406 17.246094,2.003906 17.019531,2.09375 C16.886719,2.148438 16.757812,2.167969 16.511719,2.167969 C16.328125,2.167969 16.171875,2.179688 16.160156,2.199219 C16.09375,2.308594 16.328125,2.332031 16.816406,2.269531 C17.179688,2.21875 17.417969,2.125 17.542969,1.984375 C17.667969,1.839844 17.683594,1.792969 17.523438,1.789062 Z M5.609375,1.804688 C5.53125,1.808594 5.535156,1.871094 5.597656,2 C5.636719,2.078125 5.707031,2.183594 5.757812,2.234375 C5.882812,2.375 6.195312,2.523438 6.367188,2.527344 C6.449219,2.527344 6.589844,2.542969 6.675781,2.558594 C6.90625,2.597656 7.363281,2.601562 7.425781,2.558594 C7.472656,2.53125 7.472656,2.515625 7.417969,2.460938 C7.363281,2.402344 7.296875,2.398438 6.890625,2.410156 C6.476562,2.421875 6.398438,2.410156 6.195312,2.339844 C5.832031,2.207031 5.882812,2.160156 6.394531,2.160156 C6.699219,2.160156 6.820312,2.148438 6.8125,2.117188 C6.796875,2.070312 6.355469,1.945312 6.199219,1.941406 C6.140625,1.941406 5.984375,1.90625 5.847656,1.859375 C5.734375,1.824219 5.65625,1.804688 5.609375,1.804688 Z M19.46875,1.984375 C19.257812,1.984375 19.050781,1.992188 18.929688,2.011719 C18.609375,2.058594 18.289062,2.15625 18.289062,2.203125 C18.289062,2.230469 18.355469,2.242188 18.449219,2.238281 L19.140625,2.195312 C19.5,2.171875 19.804688,2.160156 19.8125,2.171875 C19.824219,2.183594 19.796875,2.242188 19.75,2.304688 C19.609375,2.507812 19.519531,2.523438 18.554688,2.527344 C17.835938,2.53125 17.679688,2.539062 17.679688,2.582031 C17.679688,2.609375 17.699219,2.632812 17.726562,2.636719 C18.582031,2.695312 19.199219,2.71875 19.339844,2.699219 C19.4375,2.683594 19.597656,2.628906 19.699219,2.578125 C19.910156,2.472656 20.28125,2.101562 20.230469,2.046875 C20.191406,2.011719 19.820312,1.988281 19.46875,1.984375 Z M22.617188,2.011719 C22.515625,2.011719 22.425781,2.027344 22.414062,2.046875 C22.390625,2.089844 22.613281,2.210938 22.78125,2.25 C22.992188,2.292969 22.917969,2.445312 22.621094,2.574219 C22.480469,2.636719 22.402344,2.640625 21.65625,2.613281 C20.480469,2.574219 20.21875,2.585938 20.21875,2.683594 C20.21875,2.71875 20.285156,2.746094 20.421875,2.761719 C20.535156,2.773438 20.773438,2.804688 20.949219,2.832031 C21.523438,2.914062 22.003906,2.898438 22.449219,2.78125 C22.863281,2.675781 23.039062,2.605469 23.175781,2.484375 C23.269531,2.40625 23.257812,2.316406 23.15625,2.28125 C23.121094,2.265625 23.027344,2.203125 22.945312,2.132812 C22.820312,2.03125 22.765625,2.011719 22.617188,2.011719 Z M17.316406,2.3125 C17.292969,2.3125 17.265625,2.320312 17.226562,2.335938 C17.171875,2.355469 17.0625,2.390625 16.984375,2.410156 C16.796875,2.453125 16.464844,2.585938 16.417969,2.632812 C16.347656,2.703125 16.625,2.667969 16.824219,2.578125 C17.027344,2.488281 17.097656,2.5 17.058594,2.625 C17.019531,2.753906 16.773438,2.828125 16.386719,2.828125 C16.039062,2.832031 15.929688,2.867188 15.984375,2.960938 C16.015625,3.011719 16.542969,2.988281 16.796875,2.921875 C17.007812,2.867188 17.28125,2.65625 17.347656,2.496094 C17.394531,2.375 17.386719,2.3125 17.316406,2.3125 Z M4.289062,2.335938 C4.25,2.335938 4.203125,2.335938 4.160156,2.335938 C3.683594,2.34375 3.570312,2.363281 3.570312,2.441406 C3.570312,2.53125 3.910156,2.839844 4.078125,2.898438 C4.273438,2.96875 4.78125,2.972656 5.09375,2.90625 C5.417969,2.835938 5.535156,2.789062 5.535156,2.726562 C5.535156,2.636719 5.402344,2.625 5.117188,2.6875 C4.773438,2.765625 4.132812,2.75 4.042969,2.660156 C3.949219,2.566406 4.023438,2.523438 4.28125,2.523438 C4.5625,2.523438 4.746094,2.492188 4.746094,2.445312 C4.746094,2.378906 4.582031,2.339844 4.289062,2.335938 Z M1.464844,2.367188 L1.355469,2.589844 C1.296875,2.710938 1.246094,2.820312 1.246094,2.832031 C1.246094,2.875 1.4375,2.96875 1.695312,3.046875 C1.953125,3.128906 2.023438,3.132812 2.480469,3.117188 C2.753906,3.109375 3.097656,3.074219 3.246094,3.046875 C3.394531,3.015625 3.527344,2.980469 3.542969,2.964844 C3.558594,2.945312 3.511719,2.882812 3.4375,2.816406 C3.324219,2.714844 3.289062,2.699219 3.179688,2.71875 C2.511719,2.835938 2.304688,2.851562 2.027344,2.820312 C1.765625,2.785156 1.632812,2.738281 1.679688,2.6875 C1.691406,2.675781 1.777344,2.652344 1.875,2.632812 C2.386719,2.523438 2.476562,2.496094 2.488281,2.457031 C2.496094,2.425781 2.445312,2.414062 2.328125,2.414062 C2.234375,2.414062 2.003906,2.402344 1.8125,2.390625 L1.464844,2.367188 Z M5.910156,2.511719 C5.898438,2.511719 5.886719,2.511719 5.882812,2.515625 C5.820312,2.582031 6.03125,2.929688 6.191406,3.023438 C6.277344,3.070312 6.390625,3.082031 6.390625,3.042969 C6.390625,3.027344 6.34375,2.980469 6.285156,2.941406 C6.136719,2.839844 6.140625,2.761719 6.292969,2.800781 C6.46875,2.847656 6.808594,2.839844 6.859375,2.789062 C6.921875,2.722656 6.898438,2.710938 6.605469,2.667969 C6.457031,2.644531 6.242188,2.597656 6.125,2.558594 C6.035156,2.527344 5.953125,2.511719 5.910156,2.511719 Z M19.550781,2.816406 C19.402344,2.8125 19.164062,2.832031 18.824219,2.871094 C18.296875,2.929688 18.109375,2.976562 18.109375,3.042969 C18.109375,3.066406 18.210938,3.070312 18.40625,3.054688 C19.496094,2.96875 19.527344,2.972656 19.175781,3.160156 C19.003906,3.25 18.960938,3.257812 18.648438,3.246094 C17.894531,3.222656 17.597656,3.230469 17.582031,3.273438 C17.574219,3.300781 17.617188,3.328125 17.6875,3.335938 C18.730469,3.496094 18.964844,3.503906 19.191406,3.386719 C19.441406,3.3125 19.570312,3.109375 19.683594,2.980469 C19.757812,2.902344 19.742188,2.816406 19.550781,2.816406 Z M17.25,2.867188 C17.25,2.867188 17.246094,2.867188 17.242188,2.867188 C17.207031,2.871094 17.09375,2.914062 16.976562,2.972656 C16.84375,3.039062 16.699219,3.109375 16.65625,3.121094 C16.613281,3.132812 16.558594,3.167969 16.535156,3.199219 C16.496094,3.25 16.503906,3.253906 16.628906,3.230469 C16.707031,3.21875 16.804688,3.183594 16.847656,3.15625 C16.960938,3.082031 17.007812,3.09375 16.996094,3.1875 C16.976562,3.324219 16.636719,3.472656 16.292969,3.496094 C15.992188,3.515625 15.90625,3.546875 15.945312,3.609375 C15.976562,3.664062 16.335938,3.664062 16.582031,3.609375 C16.953125,3.53125 17.289062,3.25 17.289062,3.015625 C17.289062,2.945312 17.273438,2.882812 17.253906,2.871094 C17.253906,2.871094 17.253906,2.867188 17.25,2.867188 Z M7.367188,2.996094 C7.320312,2.996094 7.230469,3.023438 7.167969,3.054688 C7.085938,3.101562 6.988281,3.109375 6.761719,3.097656 C6.597656,3.089844 6.464844,3.09375 6.464844,3.109375 C6.464844,3.152344 6.597656,3.167969 7.058594,3.171875 C7.328125,3.175781 7.503906,3.164062 7.519531,3.140625 C7.554688,3.082031 7.464844,2.996094 7.367188,2.996094 Z M21.839844,3.113281 C21.71875,3.109375 21.5625,3.125 21.414062,3.15625 C21.285156,3.1875 21.125,3.214844 21.0625,3.214844 C20.925781,3.214844 20.832031,3.265625 20.894531,3.304688 C20.941406,3.332031 21.675781,3.390625 21.910156,3.382812 C22.109375,3.375 22.109375,3.445312 21.914062,3.636719 C21.664062,3.882812 21.488281,3.949219 21.015625,3.96875 C20.578125,3.988281 20.238281,3.933594 19.84375,3.777344 C19.527344,3.652344 19.414062,3.636719 19.347656,3.707031 C19.269531,3.785156 19.308594,3.859375 19.476562,3.949219 C19.875,4.152344 20.332031,4.261719 20.820312,4.265625 C21.167969,4.269531 21.214844,4.261719 21.515625,4.136719 C22.085938,3.910156 22.496094,3.53125 22.261719,3.453125 C22.222656,3.441406 22.171875,3.386719 22.148438,3.332031 C22.125,3.277344 22.089844,3.207031 22.078125,3.175781 C22.058594,3.136719 21.964844,3.117188 21.839844,3.113281 Z M4.621094,3.121094 L4.085938,3.121094 L4.097656,3.25 C4.109375,3.402344 4.273438,3.566406 4.441406,3.589844 C4.585938,3.613281 5.164062,3.582031 5.472656,3.539062 C5.761719,3.5 5.976562,3.414062 5.953125,3.351562 C5.933594,3.292969 5.816406,3.300781 5.570312,3.375 C5.285156,3.457031 4.726562,3.488281 4.554688,3.425781 C4.324219,3.347656 4.359375,3.300781 4.667969,3.273438 C5.035156,3.246094 5.183594,3.214844 5.164062,3.164062 C5.15625,3.136719 4.980469,3.121094 4.621094,3.121094 Z M6.25,3.179688 C6.222656,3.183594 6.214844,3.199219 6.214844,3.234375 C6.214844,3.414062 6.429688,3.597656 6.714844,3.652344 C6.78125,3.667969 6.839844,3.679688 6.84375,3.683594 C6.847656,3.6875 6.875,3.675781 6.90625,3.664062 C6.992188,3.632812 6.9375,3.578125 6.820312,3.578125 C6.691406,3.578125 6.535156,3.519531 6.535156,3.46875 C6.535156,3.449219 6.605469,3.433594 6.691406,3.433594 C6.894531,3.433594 7.074219,3.394531 7.050781,3.359375 C7.042969,3.34375 6.925781,3.320312 6.792969,3.304688 C6.660156,3.292969 6.492188,3.257812 6.417969,3.230469 C6.332031,3.195312 6.28125,3.179688 6.25,3.179688 Z M12.941406,3.347656 C12.929688,3.34375 12.921875,3.34375 12.917969,3.347656 C12.871094,3.378906 12.910156,3.5625 13,3.769531 C13.089844,3.972656 13.1875,4.007812 13.15625,3.824219 C13.148438,3.757812 13.132812,3.683594 13.121094,3.65625 C13.113281,3.632812 13.125,3.578125 13.144531,3.539062 C13.175781,3.480469 13.164062,3.457031 13.066406,3.398438 C13.019531,3.367188 12.96875,3.347656 12.941406,3.347656 Z M2.550781,3.351562 C2.5,3.351562 2.449219,3.351562 2.402344,3.355469 L2.113281,3.363281 L2.085938,3.535156 C2.074219,3.628906 2.03125,3.769531 1.992188,3.84375 C1.953125,3.921875 1.929688,4.007812 1.9375,4.035156 C1.949219,4.0625 2.035156,4.125 2.128906,4.175781 C2.339844,4.285156 2.667969,4.296875 3.214844,4.214844 C3.710938,4.136719 4.175781,3.976562 4.175781,3.882812 C4.175781,3.855469 4.128906,3.800781 4.070312,3.765625 C3.964844,3.699219 3.957031,3.703125 3.648438,3.804688 C3.21875,3.953125 2.933594,3.972656 2.660156,3.875 C2.214844,3.714844 2.257812,3.597656 2.777344,3.5625 C3.191406,3.53125 3.414062,3.480469 3.363281,3.425781 C3.320312,3.386719 2.90625,3.347656 2.550781,3.351562 Z M12.25,3.472656 C12.226562,3.46875 12.214844,3.5 12.214844,3.566406 C12.214844,3.683594 12.421875,3.890625 12.582031,3.933594 C12.726562,3.972656 12.742188,3.9375 12.644531,3.777344 C12.582031,3.679688 12.550781,3.65625 12.488281,3.671875 C12.429688,3.6875 12.394531,3.664062 12.347656,3.582031 C12.308594,3.511719 12.273438,3.476562 12.25,3.472656 Z M7.519531,3.53125 C7.488281,3.53125 7.449219,3.535156 7.410156,3.542969 C7.332031,3.5625 7.222656,3.585938 7.167969,3.597656 C6.984375,3.632812 7.070312,3.6875 7.316406,3.6875 C7.480469,3.6875 7.574219,3.671875 7.601562,3.636719 C7.652344,3.574219 7.613281,3.53125 7.519531,3.53125 Z M11.539062,3.578125 C11.484375,3.578125 11.429688,3.734375 11.429688,3.882812 C11.429688,3.949219 11.386719,4.089844 11.332031,4.199219 C11.253906,4.359375 11.214844,4.398438 11.132812,4.40625 C11.027344,4.421875 11.015625,4.453125 11.074219,4.5625 C11.125,4.664062 11.171875,4.652344 11.3125,4.496094 C11.476562,4.320312 11.605469,3.605469 11.539062,3.578125 Z M11.070312,3.589844 C11.019531,3.582031 11.023438,3.664062 11.089844,3.820312 C11.152344,3.972656 11.210938,3.964844 11.296875,3.792969 L11.359375,3.667969 L11.257812,3.644531 C11.207031,3.632812 11.132812,3.613281 11.097656,3.597656 C11.089844,3.59375 11.078125,3.589844 11.070312,3.589844 Z M18.375,3.621094 C18.289062,3.621094 18.1875,3.628906 18.042969,3.648438 C17.84375,3.675781 17.679688,3.710938 17.679688,3.726562 C17.679688,3.761719 17.757812,3.769531 18.199219,3.761719 C18.359375,3.757812 18.535156,3.773438 18.589844,3.796875 C18.683594,3.832031 18.6875,3.84375 18.640625,3.890625 C18.574219,3.957031 18.214844,3.96875 17.902344,3.910156 C17.78125,3.886719 17.664062,3.875 17.644531,3.890625 C17.589844,3.925781 17.675781,4.015625 17.765625,4.019531 C17.808594,4.019531 17.914062,4.042969 18.003906,4.066406 C18.214844,4.128906 18.289062,4.132812 18.433594,4.085938 C18.625,4.023438 18.929688,3.855469 18.949219,3.804688 C18.96875,3.746094 18.882812,3.703125 18.621094,3.648438 C18.535156,3.628906 18.460938,3.621094 18.375,3.621094 Z M16.8125,3.6875 C16.804688,3.6875 16.792969,3.6875 16.777344,3.6875 C16.632812,3.6875 16.527344,3.78125 16.613281,3.835938 C16.652344,3.867188 16.640625,3.890625 16.542969,3.976562 C16.425781,4.078125 16.175781,4.160156 16.152344,4.101562 C16.113281,3.984375 16.085938,3.972656 15.949219,4.03125 C15.867188,4.066406 15.824219,4.101562 15.84375,4.121094 C15.933594,4.210938 16.375,4.1875 16.59375,4.085938 C16.738281,4.011719 16.832031,3.910156 16.875,3.769531 C16.894531,3.703125 16.890625,3.691406 16.8125,3.6875 Z M12.136719,3.691406 C12.128906,3.691406 12.117188,3.71875 12.101562,3.777344 C12.027344,4.105469 11.953125,4.332031 11.910156,4.375 C11.839844,4.453125 11.757812,4.398438 11.746094,4.265625 C11.734375,4.148438 11.644531,4.066406 11.644531,4.175781 C11.644531,4.289062 11.816406,4.632812 11.875,4.632812 C11.910156,4.632812 11.964844,4.558594 12.019531,4.4375 C12.066406,4.328125 12.117188,4.128906 12.136719,3.992188 C12.160156,3.8125 12.15625,3.6875 12.136719,3.691406 Z M5.253906,3.710938 C5.066406,3.710938 4.804688,3.730469 4.703125,3.761719 C4.480469,3.839844 4.554688,3.988281 4.859375,4.089844 C5.117188,4.175781 5.363281,4.175781 5.707031,4.09375 C6.070312,4.003906 6.160156,3.957031 6.105469,3.886719 C6.054688,3.828125 5.921875,3.816406 5.871094,3.867188 C5.753906,3.976562 5.007812,4.074219 5.039062,3.972656 C5.046875,3.949219 5.152344,3.894531 5.265625,3.851562 C5.382812,3.808594 5.472656,3.757812 5.460938,3.738281 C5.453125,3.71875 5.367188,3.710938 5.253906,3.710938 Z M10.421875,3.773438 C10.417969,3.773438 10.417969,3.773438 10.414062,3.773438 C10.292969,3.800781 10.269531,4.066406 10.3125,4.160156 C10.332031,4.160156 10.359375,4.117188 10.371094,4.066406 C10.375,3.96875 10.398438,3.882812 10.441406,3.804688 C10.441406,3.792969 10.433594,3.773438 10.421875,3.773438 Z M10.828125,3.796875 C10.808594,3.796875 10.761719,3.894531 10.714844,4.015625 C10.628906,4.257812 10.445312,4.503906 10.371094,4.472656 C10.3125,4.449219 10.273438,4.511719 10.300781,4.582031 C10.332031,4.671875 10.449219,4.636719 10.585938,4.496094 C10.660156,4.421875 10.753906,4.300781 10.789062,4.226562 C10.859375,4.089844 10.882812,3.796875 10.828125,3.796875 Z M6.773438,3.816406 C6.71875,3.816406 6.675781,3.820312 6.667969,3.828125 C6.617188,3.878906 6.761719,4.066406 6.898438,4.132812 C7.125,4.238281 7.242188,4.253906 7.460938,4.210938 C7.65625,4.167969 7.578125,4.125 7.308594,4.125 C7.117188,4.125 7.03125,4.109375 7,4.070312 C6.949219,4.011719 6.960938,4.003906 7.152344,3.960938 C7.203125,3.949219 7.25,3.925781 7.25,3.910156 C7.25,3.875 6.945312,3.824219 6.773438,3.816406 Z M16.488281,3.875 C16.476562,3.871094 16.453125,3.875 16.414062,3.878906 C16.359375,3.882812 16.304688,3.90625 16.296875,3.933594 C16.277344,3.996094 16.367188,3.992188 16.449219,3.921875 C16.492188,3.890625 16.507812,3.875 16.488281,3.875 Z M12.445312,3.996094 C12.429688,3.996094 12.429688,4.035156 12.445312,4.121094 C12.480469,4.273438 12.660156,4.515625 12.757812,4.535156 C12.90625,4.5625 13.019531,4.558594 13.074219,4.523438 C13.117188,4.496094 13.117188,4.480469 13.050781,4.414062 C12.984375,4.34375 12.964844,4.339844 12.898438,4.382812 C12.835938,4.425781 12.8125,4.421875 12.726562,4.355469 C12.671875,4.316406 12.585938,4.210938 12.542969,4.128906 C12.496094,4.042969 12.460938,4 12.445312,3.996094 Z M13.613281,4.050781 L13.414062,4.050781 C13.308594,4.050781 13.210938,4.066406 13.199219,4.082031 C13.175781,4.125 13.550781,4.523438 13.621094,4.523438 C13.652344,4.523438 13.679688,4.511719 13.679688,4.496094 C13.679688,4.480469 13.65625,4.429688 13.625,4.382812 C13.582031,4.328125 13.574219,4.261719 13.589844,4.175781 L13.613281,4.050781 Z M12.371094,4.195312 L12.140625,4.457031 C12.015625,4.597656 11.882812,4.757812 11.847656,4.804688 C11.808594,4.851562 11.773438,4.886719 11.761719,4.875 C11.753906,4.867188 11.714844,4.722656 11.675781,4.554688 C11.636719,4.386719 11.589844,4.238281 11.574219,4.222656 C11.558594,4.203125 11.515625,4.230469 11.484375,4.277344 C11.433594,4.367188 11.410156,4.425781 11.34375,4.523438 C11.25,4.667969 11.160156,4.734375 11.046875,4.863281 L10.96875,4.648438 C10.925781,4.53125 10.894531,4.40625 10.90625,4.371094 C10.933594,4.257812 10.871094,4.296875 10.574219,4.585938 C10.296875,4.847656 10.28125,4.859375 10.230469,4.792969 C10.203125,4.757812 10.167969,4.679688 10.15625,4.625 C10.132812,4.515625 10.089844,4.496094 10.046875,4.574219 C9.992188,4.667969 9.871094,4.707031 9.746094,4.667969 C9.5625,4.617188 9.515625,4.625 9.472656,4.722656 C9.433594,4.808594 9.441406,4.824219 9.5625,4.90625 L9.695312,4.996094 L13.773438,4.996094 C13.851562,4.925781 13.960938,4.855469 14,4.757812 C14,4.714844 13.957031,4.699219 13.675781,4.652344 C13.59375,4.640625 13.488281,4.578125 13.394531,4.488281 C13.308594,4.40625 13.234375,4.34375 13.230469,4.34375 C13.226562,4.34375 13.214844,4.410156 13.199219,4.492188 C13.171875,4.667969 13.046875,4.796875 12.871094,4.832031 C12.703125,4.863281 12.660156,4.820312 12.5,4.480469 L12.371094,4.195312 Z M17.550781,4.199219 C17.511719,4.199219 17.488281,4.203125 17.480469,4.207031 C17.429688,4.257812 17.519531,4.296875 17.742188,4.320312 C18.003906,4.347656 18.097656,4.382812 18.058594,4.445312 C18.007812,4.535156 17.734375,4.53125 17.394531,4.4375 C17.074219,4.351562 16.957031,4.347656 17.027344,4.421875 C17.046875,4.4375 17.179688,4.503906 17.328125,4.5625 C17.644531,4.691406 17.886719,4.691406 18.15625,4.558594 C18.351562,4.460938 18.367188,4.402344 18.214844,4.324219 C18.125,4.277344 17.71875,4.207031 17.550781,4.199219 Z M6.507812,4.222656 C6.464844,4.222656 6.410156,4.246094 6.34375,4.289062 C6.167969,4.414062 5.875,4.523438 5.730469,4.523438 C5.558594,4.523438 5.574219,4.46875 5.769531,4.378906 C5.867188,4.335938 5.925781,4.289062 5.917969,4.261719 C5.910156,4.238281 5.894531,4.222656 5.878906,4.222656 C5.875,4.222656 5.871094,4.222656 5.871094,4.222656 C5.851562,4.226562 5.765625,4.242188 5.675781,4.253906 C5.546875,4.273438 5.417969,4.335938 5.285156,4.441406 C5.277344,4.445312 5.308594,4.492188 5.355469,4.542969 C5.429688,4.621094 5.46875,4.632812 5.695312,4.632812 C5.882812,4.632812 6.011719,4.609375 6.175781,4.542969 C6.453125,4.433594 6.570312,4.355469 6.570312,4.289062 C6.570312,4.246094 6.546875,4.222656 6.507812,4.222656 Z M4.035156,4.304688 C3.898438,4.304688 3.359375,4.398438 3.328125,4.429688 C3.296875,4.464844 3.214844,4.941406 3.238281,4.964844 C3.328125,5.058594 4.160156,5.078125 4.460938,4.996094 C4.617188,4.953125 5.046875,4.703125 5.050781,4.652344 C5.054688,4.570312 4.878906,4.601562 4.664062,4.722656 C4.296875,4.925781 3.773438,4.945312 3.550781,4.761719 C3.449219,4.679688 3.449219,4.671875 3.507812,4.609375 C3.542969,4.574219 3.699219,4.519531 3.875,4.484375 C4.046875,4.449219 4.191406,4.414062 4.203125,4.402344 C4.246094,4.355469 4.160156,4.304688 4.035156,4.304688 Z M16.585938,4.40625 C16.542969,4.40625 16.511719,4.414062 16.503906,4.433594 C16.492188,4.449219 16.574219,4.492188 16.683594,4.527344 C16.792969,4.558594 16.949219,4.621094 17.023438,4.664062 C17.101562,4.707031 17.234375,4.765625 17.320312,4.789062 C17.40625,4.816406 17.484375,4.851562 17.492188,4.875 C17.519531,4.953125 17.390625,4.960938 17.121094,4.902344 C16.820312,4.839844 16.664062,4.78125 16.214844,4.570312 C15.90625,4.421875 15.714844,4.371094 15.679688,4.433594 C15.644531,4.496094 16.355469,4.820312 16.789062,4.941406 C16.917969,4.976562 17.0625,5.019531 17.109375,5.035156 C17.230469,5.074219 17.21875,5.074219 17.429688,5.035156 C17.617188,5 17.785156,4.902344 17.789062,4.828125 C17.789062,4.804688 17.6875,4.769531 17.566406,4.746094 C17.441406,4.71875 17.210938,4.636719 17.046875,4.558594 C16.847656,4.464844 16.679688,4.410156 16.585938,4.40625 Z M7.570312,4.449219 C7.472656,4.449219 7.316406,4.503906 7.136719,4.59375 C6.785156,4.777344 6.257812,4.949219 6.207031,4.894531 C6.179688,4.867188 6.222656,4.824219 6.355469,4.742188 C6.480469,4.660156 6.527344,4.613281 6.503906,4.585938 C6.421875,4.503906 5.824219,4.808594 5.820312,4.933594 C5.820312,5.082031 6.148438,5.109375 6.5625,4.996094 C7.148438,4.835938 7.710938,4.570312 7.65625,4.484375 C7.644531,4.460938 7.613281,4.449219 7.570312,4.449219 Z M21.015625,4.492188 C21,4.492188 20.972656,4.492188 20.941406,4.496094 C20.828125,4.503906 20.808594,4.519531 20.796875,4.605469 C20.789062,4.6875 20.765625,4.707031 20.652344,4.726562 C20.582031,4.738281 20.449219,4.769531 20.363281,4.800781 C19.972656,4.921875 19.679688,4.898438 18.898438,4.6875 C18.636719,4.613281 18.53125,4.605469 18.515625,4.65625 C18.492188,4.71875 18.765625,4.835938 19.164062,4.9375 C19.652344,5.0625 20.101562,5.066406 20.488281,4.945312 C20.644531,4.898438 20.839844,4.824219 20.925781,4.78125 C21.050781,4.710938 21.074219,4.679688 21.074219,4.589844 C21.074219,4.515625 21.074219,4.492188 21.015625,4.492188 Z M20.265625,4.527344 C20.070312,4.523438 19.824219,4.535156 19.628906,4.558594 L19.414062,4.582031 L19.628906,4.609375 C19.746094,4.625 19.859375,4.644531 19.878906,4.652344 C19.941406,4.671875 20.410156,4.664062 20.5,4.636719 C20.550781,4.625 20.59375,4.59375 20.601562,4.570312 C20.609375,4.542969 20.464844,4.53125 20.265625,4.527344 Z M14.183594,4.785156 C14.148438,4.78125 14.09375,4.816406 13.996094,4.890625 L13.859375,5.003906 L13.859375,6.914062 C13.859375,9.058594 13.867188,8.972656 13.597656,9.113281 C13.472656,9.183594 13.367188,9.199219 12.558594,9.292969 C12.128906,9.34375 12.078125,9.363281 11.90625,9.527344 C11.832031,9.597656 11.761719,9.65625 11.75,9.65625 C11.738281,9.65625 11.675781,9.597656 11.609375,9.53125 C11.542969,9.460938 11.4375,9.386719 11.378906,9.367188 C11.21875,9.316406 10.816406,9.261719 10.429688,9.238281 C10.007812,9.210938 9.742188,9.101562 9.679688,8.921875 C9.660156,8.855469 9.628906,8.210938 9.605469,7.367188 C9.585938,6.574219 9.558594,5.722656 9.546875,5.476562 L9.527344,5.027344 L9.414062,4.957031 C9.183594,4.816406 9.1875,4.808594 9.203125,5.589844 C9.210938,6.519531 9.308594,7.503906 9.335938,8.363281 C9.339844,8.535156 9.34375,8.730469 9.390625,8.882812 C9.4375,9.046875 9.527344,9.207031 9.683594,9.28125 C9.878906,9.367188 10.292969,9.472656 10.449219,9.472656 C10.679688,9.476562 11.328125,9.617188 11.484375,9.703125 C11.5625,9.746094 11.65625,9.816406 11.691406,9.863281 C11.777344,9.972656 11.824219,9.96875 11.945312,9.839844 C12.074219,9.703125 12.171875,9.671875 12.679688,9.601562 C13.34375,9.511719 13.714844,9.402344 13.917969,9.230469 C14.078125,9.089844 14.109375,8.992188 14.144531,8.46875 C14.183594,7.914062 14.25,4.898438 14.222656,4.824219 C14.214844,4.796875 14.203125,4.785156 14.183594,4.785156 Z M15.984375,4.882812 C15.953125,4.882812 15.9375,4.886719 15.941406,4.902344 C15.957031,4.953125 16.542969,5.179688 16.71875,5.203125 C17.046875,5.25 17.097656,5.308594 16.871094,5.390625 C16.644531,5.472656 16.511719,5.480469 16.335938,5.421875 C16.144531,5.351562 16.074219,5.347656 16.074219,5.398438 C16.074219,5.441406 16.300781,5.546875 16.46875,5.578125 C16.644531,5.609375 17.023438,5.5625 17.117188,5.496094 C17.257812,5.402344 17.363281,5.285156 17.351562,5.242188 C17.34375,5.21875 17.1875,5.171875 17,5.140625 C16.816406,5.105469 16.59375,5.050781 16.507812,5.019531 C16.308594,4.941406 16.078125,4.886719 15.984375,4.882812 Z M7.878906,4.882812 C7.832031,4.882812 7.78125,4.90625 7.699219,4.964844 C7.460938,5.125 6.914062,5.359375 6.773438,5.359375 C6.726562,5.359375 6.667969,5.335938 6.640625,5.308594 C6.605469,5.261719 6.617188,5.246094 6.699219,5.214844 C6.933594,5.128906 7,5.097656 7.042969,5.042969 C7.082031,4.996094 7.066406,4.992188 6.925781,5.015625 C6.644531,5.0625 6.285156,5.164062 6.242188,5.210938 C6.175781,5.273438 6.355469,5.4375 6.523438,5.46875 C6.6875,5.5 6.816406,5.484375 7.035156,5.410156 C7.390625,5.285156 7.648438,5.171875 7.820312,5.0625 C7.917969,5 8,4.945312 8,4.9375 C8,4.929688 7.964844,4.910156 7.921875,4.894531 C7.90625,4.886719 7.890625,4.886719 7.878906,4.882812 Z M5.066406,4.984375 C5.03125,4.984375 4.925781,5.007812 4.8125,5.046875 L4.570312,5.125 L4.570312,5.292969 C4.570312,5.382812 4.582031,5.472656 4.597656,5.488281 C4.613281,5.5 4.800781,5.503906 5.015625,5.492188 C5.320312,5.472656 5.460938,5.445312 5.632812,5.371094 C5.757812,5.320312 5.855469,5.265625 5.855469,5.25 C5.855469,5.183594 5.636719,5.191406 5.375,5.269531 C5.011719,5.375 4.75,5.414062 4.75,5.367188 C4.75,5.34375 4.820312,5.28125 4.90625,5.21875 C5.058594,5.113281 5.128906,5.015625 5.078125,4.984375 C5.074219,4.984375 5.070312,4.984375 5.066406,4.984375 Z M13.671875,5.171875 L9.6875,5.171875 L9.707031,5.628906 C9.714844,5.855469 9.738281,6.640625 9.757812,7.375 C9.777344,8.152344 9.808594,8.75 9.828125,8.808594 C9.886719,8.976562 10.128906,9.078125 10.519531,9.101562 C10.878906,9.125 11.25,9.175781 11.398438,9.222656 C11.453125,9.238281 11.546875,9.308594 11.609375,9.371094 C11.671875,9.4375 11.730469,9.488281 11.742188,9.488281 C11.75,9.488281 11.816406,9.433594 11.882812,9.371094 C12.042969,9.21875 12.089844,9.199219 12.484375,9.15625 C13.234375,9.066406 13.328125,9.050781 13.449219,8.988281 C13.699219,8.859375 13.6875,8.933594 13.6875,6.957031 L13.671875,5.171875 Z M8.140625,5.21875 C8.105469,5.214844 8.0625,5.230469 8.050781,5.265625 C8.019531,5.351562 7.265625,5.835938 7.164062,5.835938 C7.03125,5.835938 7.050781,5.765625 7.222656,5.609375 C7.359375,5.488281 7.367188,5.472656 7.292969,5.472656 C7.15625,5.46875 6.785156,5.59375 6.785156,5.644531 C6.785156,5.707031 6.882812,5.941406 6.933594,6.003906 C6.984375,6.066406 7.226562,6.066406 7.398438,6.003906 C7.65625,5.90625 8.253906,5.34375 8.195312,5.246094 C8.183594,5.230469 8.164062,5.21875 8.140625,5.21875 Z M15.128906,5.296875 C15.082031,5.292969 15.050781,5.296875 15.035156,5.3125 C15,5.351562 15.113281,5.402344 15.824219,5.660156 C16.167969,5.785156 16.222656,5.820312 16.144531,5.871094 C16.058594,5.925781 15.890625,5.914062 15.648438,5.832031 C15.527344,5.789062 15.417969,5.761719 15.40625,5.773438 C15.371094,5.8125 15.472656,5.910156 15.644531,6 C15.871094,6.125 16.078125,6.105469 16.296875,5.941406 C16.390625,5.871094 16.464844,5.796875 16.464844,5.773438 C16.46875,5.714844 16.375,5.667969 16.210938,5.640625 C16.136719,5.632812 15.945312,5.5625 15.785156,5.492188 C15.523438,5.375 15.265625,5.300781 15.128906,5.296875 Z M19.710938,5.296875 C19.679688,5.296875 19.636719,5.300781 19.589844,5.308594 C19.472656,5.324219 19.21875,5.34375 19.023438,5.347656 C18.472656,5.359375 18.460938,5.359375 18.648438,5.421875 C18.742188,5.453125 18.910156,5.46875 19.058594,5.460938 C19.277344,5.453125 19.304688,5.460938 19.296875,5.515625 C19.28125,5.609375 19.382812,5.597656 19.589844,5.480469 C19.789062,5.367188 19.835938,5.304688 19.738281,5.296875 C19.730469,5.296875 19.71875,5.296875 19.710938,5.296875 Z M17.863281,5.40625 C17.785156,5.40625 17.796875,5.429688 17.867188,5.480469 C18.132812,5.65625 19.007812,5.757812 19.167969,5.636719 C19.230469,5.585938 19.21875,5.582031 19.039062,5.582031 C18.929688,5.582031 18.625,5.539062 18.363281,5.488281 C18.097656,5.433594 17.9375,5.410156 17.863281,5.40625 Z M8.730469,5.507812 C8.710938,5.503906 8.679688,5.535156 8.652344,5.59375 C8.582031,5.746094 8.316406,6.03125 8.113281,6.171875 C7.890625,6.324219 7.863281,6.332031 7.835938,6.253906 C7.824219,6.222656 7.886719,6.117188 7.996094,5.988281 C8.191406,5.757812 8.234375,5.628906 8.101562,5.671875 C8.003906,5.707031 7.605469,6.011719 7.582031,6.078125 C7.574219,6.105469 7.609375,6.183594 7.660156,6.257812 C7.832031,6.484375 8.023438,6.511719 8.21875,6.332031 C8.359375,6.207031 8.75,5.636719 8.75,5.554688 C8.75,5.527344 8.742188,5.511719 8.730469,5.507812 Z M14.644531,5.523438 C14.625,5.523438 14.609375,5.527344 14.601562,5.539062 C14.5625,5.578125 14.792969,5.761719 15.191406,6.015625 C15.492188,6.207031 15.523438,6.300781 15.25,6.183594 C15.015625,6.089844 14.96875,6.082031 14.96875,6.140625 C14.96875,6.226562 15.214844,6.378906 15.351562,6.378906 C15.414062,6.378906 15.523438,6.355469 15.59375,6.328125 C15.757812,6.257812 15.75,6.195312 15.566406,6.089844 C15.480469,6.042969 15.296875,5.917969 15.152344,5.808594 C14.910156,5.625 14.730469,5.523438 14.644531,5.523438 Z M5.902344,5.59375 C5.882812,5.59375 5.859375,5.59375 5.828125,5.601562 C5.707031,5.632812 5.40625,5.785156 5.375,5.832031 C5.367188,5.851562 5.382812,5.894531 5.417969,5.925781 C5.46875,5.980469 5.523438,5.988281 5.769531,5.96875 C5.929688,5.957031 6.125,5.921875 6.207031,5.886719 C6.351562,5.828125 6.402344,5.746094 6.3125,5.714844 C6.289062,5.707031 6.238281,5.714844 6.199219,5.734375 C6.058594,5.808594 5.660156,5.902344 5.628906,5.871094 C5.585938,5.828125 5.589844,5.824219 5.796875,5.730469 C5.941406,5.667969 5.984375,5.59375 5.902344,5.59375 Z M17.597656,5.757812 C17.511719,5.753906 17.449219,5.765625 17.441406,5.789062 C17.433594,5.8125 17.492188,5.839844 17.601562,5.851562 C17.816406,5.882812 17.980469,5.945312 17.945312,5.984375 C17.894531,6.035156 17.492188,6.03125 17.316406,5.980469 C17.109375,5.917969 17.058594,5.957031 17.195312,6.074219 C17.316406,6.183594 17.574219,6.191406 17.910156,6.105469 C18.152344,6.042969 18.371094,5.921875 18.339844,5.867188 C18.332031,5.851562 18.261719,5.835938 18.1875,5.835938 C18.117188,5.832031 17.992188,5.816406 17.914062,5.800781 C17.800781,5.773438 17.683594,5.757812 17.597656,5.757812 Z M9.035156,5.90625 C8.835938,5.90625 8.460938,6.226562 8.40625,6.4375 C8.363281,6.617188 8.398438,6.652344 8.601562,6.644531 C8.816406,6.636719 8.882812,6.605469 9.074219,6.429688 C9.144531,6.375 9.1875,6.339844 9.164062,6.25 C9.148438,6.179688 9.09375,6.226562 8.867188,6.425781 C8.707031,6.566406 8.664062,6.589844 8.625,6.523438 C8.589844,6.464844 8.703125,6.316406 8.914062,6.152344 C9.117188,5.992188 9.160156,5.90625 9.035156,5.90625 Z M14.476562,5.984375 C14.445312,5.984375 14.429688,6.011719 14.429688,6.070312 C14.429688,6.167969 14.53125,6.261719 14.746094,6.359375 C14.828125,6.398438 14.894531,6.441406 14.894531,6.453125 C14.894531,6.5 14.75,6.523438 14.570312,6.5 C14.382812,6.476562 14.351562,6.511719 14.457031,6.621094 C14.503906,6.667969 14.558594,6.675781 14.730469,6.65625 C14.847656,6.644531 14.980469,6.609375 15.027344,6.578125 C15.140625,6.503906 15.132812,6.445312 14.992188,6.363281 C14.929688,6.328125 14.800781,6.226562 14.703125,6.136719 C14.59375,6.039062 14.519531,5.988281 14.476562,5.984375 Z M6.402344,6.125 C6.300781,6.128906 6.210938,6.222656 6.179688,6.351562 C6.164062,6.417969 6.140625,6.507812 6.128906,6.550781 C6.105469,6.621094 6.117188,6.632812 6.222656,6.644531 C6.347656,6.65625 6.457031,6.632812 6.628906,6.558594 C6.761719,6.496094 6.980469,6.3125 6.953125,6.285156 C6.941406,6.273438 6.792969,6.328125 6.625,6.414062 C6.460938,6.496094 6.3125,6.5625 6.304688,6.5625 C6.253906,6.5625 6.296875,6.433594 6.375,6.335938 C6.480469,6.210938 6.492188,6.125 6.402344,6.125 Z M16.75,6.3125 C16.675781,6.316406 16.757812,6.378906 16.917969,6.421875 C17.179688,6.488281 17.152344,6.539062 16.867188,6.519531 C16.722656,6.507812 16.601562,6.511719 16.589844,6.527344 C16.566406,6.566406 16.648438,6.625 16.753906,6.644531 C16.847656,6.667969 17.21875,6.644531 17.351562,6.609375 C17.40625,6.597656 17.433594,6.5625 17.433594,6.511719 C17.433594,6.441406 17.402344,6.425781 17.191406,6.390625 C17.058594,6.367188 16.894531,6.335938 16.828125,6.320312 C16.792969,6.3125 16.769531,6.3125 16.75,6.3125 Z M6.980469,6.5625 C6.972656,6.5625 6.882812,6.601562 6.789062,6.652344 L6.617188,6.742188 L6.632812,6.933594 C6.640625,7.039062 6.65625,7.148438 6.664062,7.175781 C6.683594,7.242188 6.855469,7.207031 7.097656,7.085938 C7.316406,6.972656 7.671875,6.660156 7.621094,6.625 C7.601562,6.613281 7.496094,6.667969 7.382812,6.746094 C6.902344,7.085938 6.675781,7.109375 6.910156,6.796875 C6.992188,6.6875 7.03125,6.5625 6.980469,6.5625 Z M15.949219,6.609375 C15.894531,6.605469 15.945312,6.632812 16.144531,6.726562 C16.488281,6.898438 16.445312,6.953125 16.042969,6.851562 C15.753906,6.773438 15.664062,6.777344 15.746094,6.859375 C15.867188,6.984375 16.3125,7.066406 16.570312,7.011719 C16.632812,7 16.683594,6.96875 16.683594,6.941406 C16.683594,6.871094 16.234375,6.648438 16.039062,6.621094 C16,6.617188 15.96875,6.609375 15.949219,6.609375 Z M8.3125,6.847656 C8.265625,6.847656 8.191406,6.890625 8.113281,6.980469 C7.992188,7.121094 7.675781,7.363281 7.613281,7.363281 C7.546875,7.363281 7.566406,7.234375 7.644531,7.164062 C7.707031,7.101562 7.742188,7 7.695312,7 C7.644531,7 7.320312,7.277344 7.320312,7.320312 C7.320312,7.417969 7.398438,7.507812 7.484375,7.507812 C7.53125,7.507812 7.644531,7.480469 7.742188,7.449219 C7.957031,7.375 8.199219,7.199219 8.304688,7.039062 C8.386719,6.917969 8.375,6.847656 8.3125,6.847656 Z M15.09375,6.9375 C15.054688,6.941406 15.082031,6.988281 15.171875,7.042969 C15.261719,7.101562 15.429688,7.132812 15.429688,7.089844 C15.429688,7.070312 15.261719,6.980469 15.15625,6.945312 C15.125,6.9375 15.105469,6.933594 15.09375,6.9375 Z M9.007812,7.035156 C8.96875,7.035156 8.90625,7.113281 8.839844,7.238281 C8.730469,7.449219 8.484375,7.691406 8.378906,7.691406 C8.308594,7.691406 8.308594,7.6875 8.375,7.558594 C8.425781,7.460938 8.449219,7.253906 8.410156,7.253906 C8.359375,7.253906 8.109375,7.441406 8.109375,7.480469 C8.109375,7.558594 8.300781,7.910156 8.34375,7.910156 C8.367188,7.910156 8.433594,7.886719 8.492188,7.863281 C8.671875,7.785156 8.890625,7.554688 8.984375,7.339844 C9.085938,7.097656 9.09375,7.035156 9.007812,7.035156 Z M15.058594,7.164062 C15.046875,7.164062 15.039062,7.164062 15.03125,7.167969 C14.988281,7.195312 15.167969,7.363281 15.246094,7.367188 C15.277344,7.367188 15.363281,7.390625 15.433594,7.417969 C15.609375,7.488281 15.980469,7.488281 16.039062,7.417969 C16.109375,7.332031 16.03125,7.273438 15.851562,7.285156 C15.476562,7.300781 15.402344,7.292969 15.242188,7.222656 C15.167969,7.191406 15.097656,7.167969 15.058594,7.164062 Z M14.445312,7.195312 C14.410156,7.191406 14.394531,7.207031 14.394531,7.234375 C14.394531,7.296875 14.613281,7.445312 14.882812,7.566406 C15.214844,7.71875 15.152344,7.785156 14.796875,7.660156 C14.6875,7.621094 14.597656,7.605469 14.585938,7.625 C14.578125,7.644531 14.574219,7.664062 14.578125,7.667969 C14.867188,7.839844 15.234375,7.894531 15.328125,7.777344 C15.371094,7.726562 15.371094,7.710938 15.324219,7.683594 C15.296875,7.667969 15.117188,7.554688 14.929688,7.4375 C14.675781,7.28125 14.519531,7.199219 14.445312,7.195312 Z M9.035156,7.703125 C9.03125,7.703125 9.027344,7.703125 9.023438,7.703125 C9.007812,7.707031 8.984375,7.726562 8.945312,7.765625 C8.835938,7.871094 8.835938,7.898438 8.949219,8.105469 C9.050781,8.289062 9.128906,8.316406 9.230469,8.203125 C9.3125,8.113281 9.28125,7.984375 9.199219,8.054688 C9.101562,8.136719 9.03125,8.070312 9.058594,7.929688 C9.070312,7.859375 9.070312,7.773438 9.058594,7.742188 C9.050781,7.71875 9.042969,7.707031 9.035156,7.703125 Z M14.441406,7.921875 C14.414062,7.921875 14.394531,7.933594 14.394531,7.957031 C14.394531,7.988281 14.429688,8.023438 14.46875,8.035156 C14.558594,8.066406 14.558594,8.128906 14.46875,8.128906 C14.425781,8.128906 14.394531,8.152344 14.394531,8.183594 C14.394531,8.25 14.429688,8.25 14.570312,8.179688 C14.699219,8.113281 14.707031,8.085938 14.621094,8.011719 C14.558594,7.957031 14.484375,7.925781 14.441406,7.921875 Z M14.34375,9.074219 C14.273438,9.074219 14.273438,9.179688 14.339844,9.207031 C14.417969,9.238281 14.566406,9.480469 14.589844,9.621094 C14.601562,9.707031 14.59375,9.773438 14.5625,9.820312 C14.515625,9.882812 14.507812,9.882812 14.40625,9.777344 C14.351562,9.71875 14.269531,9.625 14.230469,9.566406 C14.121094,9.414062 14.058594,9.480469 14.152344,9.648438 C14.273438,9.863281 14.433594,10.035156 14.554688,10.082031 C14.742188,10.15625 14.765625,10.144531 14.738281,9.992188 C14.726562,9.917969 14.703125,9.746094 14.691406,9.609375 C14.671875,9.386719 14.65625,9.347656 14.535156,9.21875 C14.457031,9.136719 14.371094,9.074219 14.34375,9.074219 Z M9.558594,9.363281 C9.476562,9.363281 9.316406,9.644531 9.292969,9.824219 C9.269531,10.050781 9.320312,10.015625 9.480469,9.691406 C9.621094,9.414062 9.632812,9.363281 9.558594,9.363281 Z M13.878906,9.496094 C13.875,9.492188 13.875,9.492188 13.871094,9.496094 C13.863281,9.496094 13.859375,9.496094 13.851562,9.503906 C13.835938,9.519531 13.839844,9.578125 13.859375,9.632812 C13.898438,9.742188 13.910156,10.269531 13.875,10.363281 C13.835938,10.460938 13.703125,10.429688 13.613281,10.304688 C13.566406,10.242188 13.496094,10.078125 13.453125,9.9375 C13.351562,9.601562 13.265625,9.558594 13.300781,9.859375 C13.332031,10.132812 13.441406,10.359375 13.632812,10.554688 C13.835938,10.761719 13.933594,10.765625 14.015625,10.558594 C14.113281,10.3125 14.132812,9.980469 14.054688,9.773438 C13.996094,9.609375 13.925781,9.503906 13.878906,9.496094 Z M9.964844,9.527344 C9.90625,9.527344 9.863281,9.734375 9.863281,10.054688 C9.859375,10.285156 9.898438,10.25 9.960938,9.964844 C10.027344,9.664062 10.027344,9.527344 9.964844,9.527344 Z M10.53125,9.585938 C10.527344,9.585938 10.519531,9.585938 10.515625,9.59375 C10.503906,9.605469 10.449219,9.75 10.390625,9.917969 C10.234375,10.367188 10.140625,10.546875 10.046875,10.558594 C9.90625,10.582031 9.964844,10.785156 10.113281,10.785156 C10.144531,10.785156 10.210938,10.738281 10.257812,10.683594 C10.382812,10.53125 10.492188,10.253906 10.539062,9.960938 C10.574219,9.753906 10.570312,9.585938 10.53125,9.585938 Z M10.75,9.621094 C10.699219,9.621094 10.710938,10.121094 10.769531,10.367188 C10.835938,10.664062 11.027344,10.835938 11.140625,10.695312 C11.214844,10.605469 11.324219,10.152344 11.316406,9.953125 C11.3125,9.71875 11.277344,9.769531 11.214844,10.109375 C11.144531,10.507812 11.007812,10.652344 10.933594,10.410156 C10.914062,10.347656 10.882812,10.171875 10.859375,10.019531 C10.808594,9.679688 10.792969,9.621094 10.75,9.621094 Z M9.753906,9.691406 C9.742188,9.691406 9.671875,9.816406 9.59375,9.96875 C9.453125,10.25 9.375,10.324219 9.320312,10.234375 C9.300781,10.203125 9.277344,10.199219 9.257812,10.222656 C9.214844,10.269531 9.175781,10.441406 9.203125,10.46875 C9.230469,10.496094 9.398438,10.429688 9.484375,10.351562 C9.675781,10.179688 9.730469,10.085938 9.75,9.890625 C9.761719,9.78125 9.765625,9.691406 9.753906,9.691406 Z M13.101562,9.699219 C13.097656,9.699219 13.09375,9.699219 13.085938,9.699219 C13.042969,9.707031 13.015625,9.777344 12.984375,9.964844 C12.867188,10.648438 12.65625,10.671875 12.648438,10 C12.644531,9.773438 12.601562,9.695312 12.523438,9.761719 C12.445312,9.828125 12.453125,10.136719 12.53125,10.328125 C12.613281,10.527344 12.761719,10.746094 12.8125,10.746094 C12.835938,10.746094 12.917969,10.609375 13,10.441406 C13.121094,10.183594 13.144531,10.097656 13.144531,9.910156 C13.144531,9.746094 13.136719,9.699219 13.101562,9.699219 Z M12.261719,9.800781 C12.105469,9.804688 12.101562,9.820312 12.109375,10.746094 C12.113281,11.449219 12.125,11.652344 12.164062,11.734375 C12.230469,11.859375 12.304688,11.875 12.269531,11.757812 C12.230469,11.628906 12.230469,11.613281 12.277344,11.597656 C12.300781,11.585938 12.351562,11.660156 12.398438,11.765625 C12.503906,12.015625 12.59375,11.992188 12.515625,11.734375 C12.476562,11.601562 12.5625,11.671875 12.648438,11.84375 C12.710938,11.972656 12.78125,12.019531 12.832031,11.964844 C12.84375,11.953125 12.835938,11.890625 12.8125,11.820312 C12.78125,11.714844 12.769531,11.707031 12.734375,11.753906 C12.699219,11.804688 12.6875,11.800781 12.632812,11.714844 C12.589844,11.648438 12.546875,11.621094 12.503906,11.632812 C12.441406,11.648438 12.4375,11.605469 12.417969,10.972656 C12.390625,10.035156 12.359375,9.800781 12.261719,9.800781 Z M11.5,9.8125 C11.488281,9.8125 11.476562,9.820312 11.472656,9.828125 C11.457031,9.851562 11.445312,10.097656 11.4375,10.371094 C11.433594,10.648438 11.421875,10.976562 11.410156,11.097656 C11.386719,11.308594 11.394531,11.324219 11.488281,11.417969 C11.542969,11.46875 11.601562,11.511719 11.613281,11.511719 C11.625,11.511719 11.644531,11.378906 11.65625,11.210938 C11.671875,11.046875 11.679688,10.6875 11.679688,10.414062 C11.679688,9.914062 11.679688,9.914062 11.589844,9.851562 C11.546875,9.824219 11.519531,9.8125 11.5,9.8125 Z M14.273438,10.144531 C14.265625,10.144531 14.253906,10.148438 14.242188,10.160156 C14.171875,10.230469 14.199219,10.671875 14.285156,10.890625 C14.363281,11.082031 14.390625,11.121094 14.566406,11.246094 C14.691406,11.335938 15.039062,11.398438 15.039062,11.332031 C15.039062,11.285156 14.851562,11.003906 14.820312,11.003906 C14.808594,11.003906 14.785156,11.027344 14.773438,11.0625 C14.761719,11.09375 14.722656,11.113281 14.675781,11.105469 C14.535156,11.085938 14.425781,10.824219 14.300781,10.207031 C14.292969,10.164062 14.285156,10.144531 14.273438,10.144531 Z M11.941406,10.203125 C11.9375,10.203125 11.933594,10.203125 11.929688,10.203125 C11.90625,10.203125 11.878906,10.226562 11.839844,10.253906 C11.777344,10.300781 11.769531,10.351562 11.769531,10.878906 L11.769531,11.453125 L11.859375,11.476562 C11.910156,11.492188 11.960938,11.492188 11.976562,11.484375 C11.992188,11.476562 12.003906,11.1875 12.003906,10.835938 C12.003906,10.363281 12,10.210938 11.941406,10.203125 Z M13.222656,10.3125 C13.160156,10.3125 13.113281,10.511719 13.089844,10.875 C13.078125,11.074219 13.042969,11.324219 13.015625,11.429688 C12.992188,11.535156 12.976562,11.671875 12.988281,11.738281 L13.007812,11.859375 L12.933594,11.765625 L12.855469,11.675781 L12.929688,11.832031 C13.023438,12.023438 13.074219,12.03125 13.046875,11.84375 C13.03125,11.707031 13.035156,11.703125 13.144531,11.675781 C13.292969,11.644531 13.460938,11.46875 13.585938,11.210938 C13.703125,10.972656 13.730469,10.773438 13.640625,10.757812 C13.601562,10.75 13.5625,10.804688 13.507812,10.957031 C13.417969,11.210938 13.308594,11.398438 13.234375,11.425781 C13.140625,11.460938 13.132812,11.414062 13.195312,11.191406 C13.257812,10.96875 13.277344,10.3125 13.222656,10.3125 Z M10.601562,10.375 C10.542969,10.382812 10.523438,10.597656 10.574219,10.804688 C10.632812,11.050781 10.925781,11.378906 11.070312,11.359375 C11.121094,11.355469 11.164062,11.324219 11.164062,11.296875 C11.164062,11.265625 11.128906,11.234375 11.089844,11.222656 C10.894531,11.167969 10.738281,10.921875 10.699219,10.597656 C10.6875,10.503906 10.65625,10.40625 10.628906,10.386719 C10.617188,10.375 10.609375,10.375 10.601562,10.375 Z M3.957031,10.472656 C3.941406,10.472656 3.929688,10.476562 3.921875,10.484375 C3.90625,10.503906 3.898438,10.546875 3.914062,10.578125 C3.9375,10.648438 4.105469,10.660156 4.105469,10.59375 C4.105469,10.539062 4.011719,10.472656 3.957031,10.472656 Z M4.757812,10.535156 C4.753906,10.535156 4.75,10.535156 4.75,10.535156 C4.722656,10.539062 4.722656,10.59375 4.734375,10.703125 C4.769531,10.976562 4.769531,10.984375 4.871094,10.945312 C4.957031,10.910156 4.941406,10.714844 4.851562,10.613281 C4.808594,10.566406 4.777344,10.539062 4.757812,10.535156 Z M4.296875,10.585938 C4.285156,10.585938 4.273438,10.585938 4.261719,10.59375 C4.242188,10.609375 4.210938,10.65625 4.199219,10.703125 C4.175781,10.773438 4.1875,10.785156 4.265625,10.785156 C4.316406,10.785156 4.367188,10.757812 4.378906,10.726562 C4.402344,10.671875 4.347656,10.59375 4.296875,10.585938 Z M9.773438,10.636719 C9.746094,10.636719 9.695312,10.679688 9.664062,10.730469 C9.546875,10.910156 9.464844,10.976562 9.410156,10.929688 C9.371094,10.898438 9.367188,10.867188 9.398438,10.816406 C9.417969,10.777344 9.429688,10.726562 9.421875,10.703125 C9.40625,10.664062 9.097656,11.109375 9.050781,11.238281 C9.03125,11.292969 9.039062,11.296875 9.113281,11.277344 C9.160156,11.261719 9.253906,11.214844 9.324219,11.175781 C9.585938,11.019531 9.90625,10.636719 9.773438,10.636719 Z M6.621094,10.640625 C6.582031,10.632812 6.597656,10.703125 6.695312,10.835938 C6.796875,10.96875 6.8125,11.09375 6.734375,11.125 C6.679688,11.144531 6.65625,11.222656 6.699219,11.222656 C6.710938,11.222656 6.777344,11.195312 6.84375,11.160156 C6.992188,11.089844 6.980469,11.027344 6.792969,10.792969 C6.714844,10.691406 6.652344,10.644531 6.621094,10.640625 Z M4.570312,10.648438 C4.550781,10.644531 4.535156,10.660156 4.535156,10.710938 C4.535156,10.765625 4.496094,10.804688 4.410156,10.84375 C4.339844,10.871094 4.292969,10.910156 4.304688,10.929688 C4.332031,10.980469 4.371094,10.976562 4.519531,10.914062 C4.628906,10.867188 4.644531,10.84375 4.636719,10.761719 C4.628906,10.695312 4.597656,10.652344 4.570312,10.648438 Z M5.066406,10.675781 C5.042969,10.675781 5.035156,10.714844 5.054688,10.753906 C5.078125,10.789062 5.085938,10.789062 5.097656,10.753906 C5.109375,10.726562 5.105469,10.699219 5.09375,10.683594 C5.082031,10.675781 5.074219,10.671875 5.066406,10.675781 Z M11.308594,10.691406 C11.300781,10.691406 11.289062,10.695312 11.269531,10.710938 C11.214844,10.757812 11.195312,10.96875 11.242188,11.015625 C11.28125,11.058594 11.320312,10.953125 11.324219,10.808594 C11.324219,10.730469 11.320312,10.699219 11.308594,10.691406 Z M6.167969,10.703125 L6.1875,10.8125 C6.207031,10.898438 6.191406,10.9375 6.125,10.996094 C6.011719,11.097656 6.007812,11.167969 6.117188,11.109375 C6.160156,11.085938 6.238281,11.035156 6.292969,10.996094 C6.402344,10.917969 6.394531,10.851562 6.257812,10.765625 L6.167969,10.703125 Z M6.429688,10.710938 C6.40625,10.707031 6.394531,10.714844 6.394531,10.734375 C6.394531,10.746094 6.421875,10.800781 6.453125,10.855469 C6.507812,10.953125 6.507812,10.964844 6.453125,11.019531 C6.355469,11.121094 6.386719,11.152344 6.523438,11.09375 C6.59375,11.0625 6.660156,11.039062 6.667969,11.039062 C6.703125,11.039062 6.628906,10.871094 6.5625,10.792969 C6.519531,10.746094 6.464844,10.714844 6.429688,10.710938 Z M10.390625,10.726562 C10.367188,10.726562 10.339844,10.742188 10.300781,10.773438 C10.054688,10.996094 10.082031,10.988281 9.992188,10.902344 C9.933594,10.847656 9.894531,10.835938 9.859375,10.859375 C9.8125,10.886719 9.824219,10.910156 9.917969,11.007812 C10.023438,11.117188 10.035156,11.117188 10.113281,11.0625 C10.246094,10.96875 10.351562,10.988281 10.429688,11.121094 C10.46875,11.1875 10.5,11.28125 10.5,11.332031 C10.503906,11.484375 10.546875,11.507812 10.652344,11.414062 C10.738281,11.335938 10.734375,11.3125 10.617188,11.160156 C10.5625,11.085938 10.503906,10.960938 10.484375,10.878906 C10.457031,10.773438 10.429688,10.726562 10.390625,10.726562 Z M12.578125,10.730469 C12.578125,10.730469 12.574219,10.730469 12.570312,10.730469 C12.535156,10.753906 12.527344,11.296875 12.558594,11.46875 C12.582031,11.582031 12.625,11.609375 12.777344,11.617188 C12.832031,11.621094 12.863281,11.589844 12.894531,11.503906 C12.917969,11.4375 12.945312,11.273438 12.957031,11.140625 L12.976562,10.894531 L12.871094,10.914062 C12.777344,10.933594 12.75,10.921875 12.683594,10.824219 C12.644531,10.769531 12.601562,10.730469 12.578125,10.730469 Z M5.296875,10.757812 C5.277344,10.75 5.230469,10.796875 5.199219,10.863281 C5.152344,10.957031 5.152344,10.984375 5.1875,11.007812 C5.25,11.050781 5.269531,11.046875 5.320312,10.988281 C5.371094,10.925781 5.355469,10.777344 5.296875,10.757812 Z M14.089844,10.761719 C14.070312,10.761719 14.058594,10.78125 14.035156,10.832031 C14.003906,10.90625 13.972656,10.925781 13.914062,10.910156 C13.855469,10.894531 13.828125,10.914062 13.796875,10.984375 C13.738281,11.113281 13.742188,11.175781 13.816406,11.21875 C13.894531,11.265625 13.96875,11.269531 13.96875,11.222656 C13.96875,11.207031 14.023438,11.15625 14.09375,11.113281 C14.199219,11.042969 14.214844,11.019531 14.195312,10.9375 C14.183594,10.882812 14.152344,10.816406 14.125,10.789062 C14.109375,10.769531 14.097656,10.761719 14.089844,10.761719 Z M19.109375,10.785156 C18.820312,10.785156 18.71875,10.828125 18.71875,10.960938 C18.71875,11.140625 18.765625,11.148438 19.109375,11.035156 C19.238281,10.988281 19.367188,10.9375 19.390625,10.917969 C19.476562,10.851562 19.332031,10.785156 19.109375,10.785156 Z M6.035156,10.785156 C6.015625,10.785156 5.96875,10.816406 5.929688,10.855469 C5.808594,10.980469 5.851562,11.046875 6.003906,10.964844 C6.074219,10.925781 6.101562,10.785156 6.035156,10.785156 Z M3.433594,10.886719 C3.394531,10.890625 3.394531,10.933594 3.445312,11.015625 C3.476562,11.0625 3.488281,11.109375 3.476562,11.125 C3.464844,11.136719 3.464844,11.171875 3.476562,11.203125 C3.507812,11.289062 3.644531,11.203125 3.644531,11.097656 C3.644531,11.050781 3.601562,10.984375 3.535156,10.9375 C3.492188,10.902344 3.457031,10.886719 3.433594,10.886719 Z M3.140625,10.898438 C3.113281,10.894531 3.097656,10.914062 3.082031,10.953125 C3.070312,10.988281 3.082031,11.027344 3.117188,11.046875 C3.152344,11.0625 3.179688,11.117188 3.179688,11.164062 C3.179688,11.292969 3.234375,11.328125 3.3125,11.25 C3.386719,11.175781 3.363281,11.050781 3.261719,10.96875 C3.207031,10.925781 3.167969,10.898438 3.140625,10.898438 Z M17.964844,10.898438 C17.925781,10.898438 17.882812,10.898438 17.835938,10.902344 L17.523438,10.910156 L17.511719,11.050781 C17.488281,11.34375 17.554688,11.359375 17.902344,11.140625 C18.195312,10.953125 18.222656,10.902344 17.964844,10.898438 Z M7.84375,10.902344 C7.820312,10.898438 7.800781,10.90625 7.789062,10.925781 C7.773438,10.953125 7.765625,11 7.777344,11.027344 C7.800781,11.09375 7.949219,11.074219 7.949219,11.007812 C7.949219,10.953125 7.890625,10.90625 7.84375,10.902344 Z M8.171875,10.929688 C8.15625,10.929688 8.144531,10.972656 8.144531,11.019531 C8.144531,11.085938 8.164062,11.113281 8.214844,11.113281 C8.253906,11.113281 8.289062,11.089844 8.289062,11.066406 C8.289062,11.011719 8.214844,10.929688 8.171875,10.929688 Z M4.035156,10.945312 C3.996094,10.941406 3.984375,10.976562 3.984375,11.046875 C3.980469,11.152344 3.894531,11.175781 3.867188,11.078125 C3.855469,11.039062 3.828125,11.003906 3.800781,11.003906 C3.734375,11.003906 3.730469,11.207031 3.792969,11.230469 C3.855469,11.257812 4.035156,11.21875 4.152344,11.160156 C4.277344,11.09375 4.277344,11.054688 4.140625,10.984375 C4.09375,10.960938 4.058594,10.945312 4.035156,10.945312 Z M5.503906,11.003906 C5.457031,11.003906 5.425781,11.058594 5.453125,11.089844 C5.492188,11.128906 5.535156,11.113281 5.535156,11.058594 C5.535156,11.027344 5.519531,11.003906 5.503906,11.003906 Z M2.847656,11.003906 C2.757812,11.003906 2.769531,11.066406 2.878906,11.167969 C2.988281,11.269531 3.070312,11.285156 3.070312,11.199219 C3.070312,11.128906 2.933594,11.003906 2.847656,11.003906 Z M9.828125,11.082031 C9.796875,11.078125 9.773438,11.109375 9.734375,11.183594 C9.652344,11.34375 9.65625,12.046875 9.738281,12.140625 C9.8125,12.222656 9.863281,12.207031 9.921875,12.09375 C9.988281,11.957031 9.980469,11.257812 9.910156,11.15625 C9.878906,11.109375 9.851562,11.082031 9.828125,11.082031 Z M5.71875,11.089844 C5.699219,11.089844 5.683594,11.09375 5.671875,11.105469 C5.613281,11.167969 5.667969,11.265625 5.757812,11.25 C5.800781,11.246094 5.839844,11.21875 5.847656,11.195312 C5.863281,11.148438 5.78125,11.09375 5.71875,11.089844 Z M4.765625,11.097656 C4.753906,11.097656 4.746094,11.101562 4.742188,11.105469 C4.714844,11.132812 4.730469,11.175781 4.78125,11.238281 C4.875,11.363281 4.847656,11.425781 4.640625,11.53125 C4.457031,11.628906 4.410156,11.671875 4.449219,11.734375 C4.484375,11.792969 4.609375,11.734375 4.78125,11.582031 C4.867188,11.503906 4.953125,11.4375 4.96875,11.4375 C5.03125,11.4375 4.996094,11.34375 4.890625,11.207031 C4.832031,11.140625 4.792969,11.101562 4.765625,11.097656 Z M5.082031,11.113281 C5.015625,11.109375 5.027344,11.1875 5.109375,11.292969 C5.144531,11.34375 5.175781,11.394531 5.179688,11.410156 C5.179688,11.421875 5.097656,11.484375 5,11.546875 C4.902344,11.605469 4.820312,11.675781 4.820312,11.695312 C4.820312,11.78125 4.996094,11.71875 5.15625,11.574219 C5.324219,11.425781 5.328125,11.417969 5.28125,11.3125 C5.230469,11.191406 5.152344,11.113281 5.082031,11.113281 Z M10.277344,11.117188 C10.269531,11.117188 10.265625,11.117188 10.257812,11.117188 C10.132812,11.144531 10.074219,11.355469 10.09375,11.726562 C10.105469,11.917969 10.121094,12.113281 10.128906,12.160156 C10.152344,12.277344 10.25,12.25 10.339844,12.09375 C10.398438,11.988281 10.410156,11.90625 10.410156,11.621094 C10.40625,11.277344 10.367188,11.121094 10.277344,11.117188 Z M4.464844,11.148438 C4.441406,11.148438 4.429688,11.171875 4.449219,11.210938 C4.464844,11.246094 4.476562,11.320312 4.476562,11.375 C4.472656,11.484375 4.503906,11.496094 4.609375,11.4375 C4.699219,11.390625 4.695312,11.335938 4.601562,11.230469 C4.546875,11.175781 4.492188,11.144531 4.464844,11.148438 Z M9.558594,11.152344 C9.53125,11.152344 9.5,11.167969 9.488281,11.203125 C9.472656,11.238281 9.492188,11.257812 9.539062,11.257812 C9.578125,11.257812 9.609375,11.234375 9.609375,11.203125 C9.609375,11.167969 9.585938,11.152344 9.558594,11.152344 Z M17.042969,11.199219 C16.949219,11.203125 16.632812,11.25 16.269531,11.3125 C15.859375,11.386719 15.460938,11.453125 15.386719,11.464844 C15.3125,11.476562 15.242188,11.503906 15.230469,11.523438 C15.203125,11.566406 15.46875,11.550781 16.433594,11.457031 C16.757812,11.429688 17.042969,11.394531 17.066406,11.386719 C17.125,11.363281 17.125,11.222656 17.066406,11.203125 C17.0625,11.199219 17.054688,11.199219 17.042969,11.199219 Z M19.117188,11.210938 C19.042969,11.214844 19.003906,11.269531 19.003906,11.367188 C19.003906,11.5 19.0625,11.507812 19.339844,11.398438 C19.449219,11.355469 19.542969,11.308594 19.542969,11.292969 C19.542969,11.265625 19.402344,11.238281 19.148438,11.210938 C19.136719,11.210938 19.125,11.207031 19.117188,11.210938 Z M14.199219,11.230469 C14.15625,11.222656 14.089844,11.257812 14.039062,11.3125 C13.957031,11.402344 13.949219,11.429688 13.957031,11.792969 C13.964844,12.34375 14.078125,12.558594 14.203125,12.253906 C14.238281,12.167969 14.257812,11.976562 14.261719,11.679688 C14.269531,11.261719 14.269531,11.238281 14.199219,11.230469 Z M18.519531,11.246094 C18.488281,11.242188 18.457031,11.242188 18.425781,11.246094 C18.011719,11.253906 17.921875,11.304688 18.085938,11.441406 C18.171875,11.511719 18.175781,11.507812 17.976562,11.570312 C17.910156,11.589844 17.925781,11.695312 17.996094,11.695312 C18.03125,11.695312 18.203125,11.609375 18.382812,11.5 C18.558594,11.394531 18.691406,11.292969 18.683594,11.273438 C18.675781,11.261719 18.609375,11.25 18.519531,11.246094 Z M20.066406,11.257812 C19.914062,11.257812 19.898438,11.265625 19.898438,11.34375 C19.898438,11.390625 19.910156,11.4375 19.921875,11.453125 C19.953125,11.480469 20.230469,11.484375 20.304688,11.453125 C20.460938,11.394531 20.296875,11.261719 20.066406,11.257812 Z M4.207031,11.265625 C4.15625,11.265625 4.121094,11.304688 4.101562,11.378906 C4.074219,11.480469 4.078125,11.484375 4.1875,11.460938 C4.25,11.449219 4.316406,11.421875 4.339844,11.402344 C4.363281,11.375 4.351562,11.34375 4.304688,11.308594 C4.265625,11.28125 4.234375,11.265625 4.207031,11.265625 Z M14.421875,11.292969 C14.371094,11.292969 14.40625,12.164062 14.460938,12.265625 C14.523438,12.378906 14.636719,12.375 14.667969,12.257812 C14.695312,12.144531 14.667969,11.921875 14.59375,11.621094 C14.53125,11.382812 14.488281,11.292969 14.421875,11.292969 Z M17.355469,11.355469 C17.34375,11.355469 17.335938,11.355469 17.324219,11.355469 C17.273438,11.359375 17.269531,11.386719 17.261719,11.488281 C17.238281,11.769531 17.292969,11.789062 17.589844,11.613281 C17.699219,11.550781 17.789062,11.484375 17.789062,11.46875 C17.789062,11.4375 17.570312,11.375 17.398438,11.359375 C17.382812,11.359375 17.367188,11.355469 17.355469,11.355469 Z M6.777344,11.367188 C6.738281,11.363281 6.714844,11.386719 6.734375,11.429688 C6.75,11.464844 6.765625,11.542969 6.773438,11.601562 C6.785156,11.769531 6.789062,11.769531 6.894531,11.621094 C6.96875,11.515625 6.96875,11.507812 6.910156,11.4375 C6.867188,11.390625 6.816406,11.367188 6.777344,11.367188 Z M9.410156,11.367188 C9.308594,11.367188 9.25,11.5625 9.25,11.902344 C9.25,12.238281 9.292969,12.277344 9.476562,12.113281 C9.566406,12.03125 9.574219,12.003906 9.574219,11.738281 C9.574219,11.4375 9.542969,11.367188 9.410156,11.367188 Z M8.359375,11.367188 C8.304688,11.363281 8.308594,11.4375 8.402344,11.558594 C8.488281,11.660156 8.609375,11.691406 8.609375,11.609375 C8.609375,11.582031 8.5625,11.519531 8.507812,11.464844 C8.441406,11.398438 8.390625,11.371094 8.359375,11.367188 Z M13.761719,11.378906 C13.757812,11.378906 13.753906,11.378906 13.746094,11.378906 C13.695312,11.386719 13.652344,11.484375 13.597656,11.695312 C13.550781,11.890625 13.515625,12.246094 13.535156,12.359375 C13.542969,12.402344 13.632812,12.390625 13.675781,12.335938 C13.742188,12.257812 13.816406,11.957031 13.835938,11.6875 C13.851562,11.5 13.847656,11.4375 13.804688,11.402344 C13.789062,11.386719 13.773438,11.378906 13.761719,11.378906 Z M9.15625,11.390625 C9.140625,11.390625 9.121094,11.398438 9.101562,11.40625 C9.042969,11.441406 9.035156,11.453125 9.078125,11.480469 C9.140625,11.519531 9.171875,11.519531 9.199219,11.476562 C9.230469,11.425781 9.203125,11.386719 9.15625,11.390625 Z M6.449219,11.398438 C6.394531,11.390625 6.398438,11.445312 6.464844,11.5625 C6.515625,11.644531 6.527344,11.695312 6.503906,11.710938 C6.460938,11.738281 6.453125,11.839844 6.492188,11.839844 C6.507812,11.839844 6.554688,11.785156 6.597656,11.71875 C6.707031,11.558594 6.703125,11.53125 6.554688,11.445312 C6.507812,11.417969 6.472656,11.398438 6.449219,11.398438 Z M8.875,11.402344 C8.773438,11.402344 8.765625,11.429688 8.847656,11.519531 C8.917969,11.601562 8.945312,11.605469 8.917969,11.53125 C8.90625,11.5 8.914062,11.476562 8.929688,11.476562 C8.949219,11.476562 8.964844,11.460938 8.964844,11.4375 C8.964844,11.417969 8.925781,11.402344 8.875,11.402344 Z M8.085938,11.441406 C8.070312,11.441406 8.058594,11.441406 8.050781,11.449219 C8.039062,11.460938 8.050781,11.503906 8.070312,11.546875 C8.113281,11.628906 8.21875,11.636719 8.242188,11.558594 C8.253906,11.519531 8.144531,11.449219 8.085938,11.441406 Z M6.1875,11.445312 C6.160156,11.445312 6.164062,11.492188 6.199219,11.589844 C6.242188,11.71875 6.242188,11.746094 6.195312,11.816406 C6.121094,11.921875 6.128906,11.960938 6.214844,11.914062 C6.257812,11.890625 6.316406,11.8125 6.351562,11.742188 C6.410156,11.613281 6.410156,11.613281 6.308594,11.527344 C6.25,11.472656 6.207031,11.445312 6.1875,11.445312 Z M3.714844,11.449219 C3.667969,11.453125 3.660156,11.53125 3.714844,11.566406 C3.734375,11.578125 3.75,11.636719 3.75,11.691406 C3.75,11.746094 3.757812,11.800781 3.769531,11.8125 C3.789062,11.832031 3.992188,11.785156 4.023438,11.753906 C4.066406,11.710938 3.875,11.507812 3.734375,11.453125 C3.730469,11.453125 3.726562,11.453125 3.722656,11.449219 C3.722656,11.449219 3.71875,11.449219 3.714844,11.449219 Z M7.746094,11.476562 C7.703125,11.476562 7.679688,11.492188 7.679688,11.527344 C7.679688,11.558594 7.632812,11.617188 7.574219,11.664062 C7.515625,11.707031 7.464844,11.757812 7.464844,11.773438 C7.464844,11.835938 7.605469,11.796875 7.746094,11.695312 C7.90625,11.574219 7.925781,11.53125 7.835938,11.5 C7.800781,11.484375 7.769531,11.476562 7.746094,11.476562 Z M3.402344,11.476562 C3.34375,11.476562 3.339844,11.554688 3.429688,11.667969 C3.46875,11.71875 3.5,11.777344 3.5,11.800781 C3.5,11.851562 3.546875,11.851562 3.597656,11.796875 C3.664062,11.730469 3.652344,11.65625 3.550781,11.5625 C3.488281,11.503906 3.433594,11.476562 3.402344,11.476562 Z M5.949219,11.496094 C5.910156,11.492188 5.902344,11.527344 5.9375,11.605469 C5.96875,11.675781 5.964844,11.707031 5.917969,11.761719 C5.84375,11.84375 5.839844,11.875 5.914062,11.875 C5.941406,11.875 6.007812,11.832031 6.054688,11.78125 C6.164062,11.660156 6.164062,11.644531 6.050781,11.550781 C6.007812,11.515625 5.972656,11.5 5.949219,11.496094 Z M4.347656,11.511719 C4.269531,11.511719 4.167969,11.605469 4.195312,11.652344 C4.226562,11.707031 4.25,11.703125 4.328125,11.632812 C4.402344,11.5625 4.414062,11.511719 4.347656,11.511719 Z M7.394531,11.53125 C7.367188,11.53125 7.339844,11.546875 7.332031,11.574219 C7.324219,11.601562 7.347656,11.621094 7.394531,11.621094 C7.441406,11.621094 7.464844,11.601562 7.457031,11.574219 C7.449219,11.546875 7.421875,11.53125 7.394531,11.53125 Z M5.363281,11.558594 C5.308594,11.550781 5.242188,11.613281 5.265625,11.65625 C5.300781,11.714844 5.410156,11.6875 5.410156,11.625 C5.410156,11.597656 5.394531,11.570312 5.375,11.5625 C5.371094,11.5625 5.367188,11.558594 5.363281,11.558594 Z M11.984375,11.585938 C11.921875,11.585938 11.917969,11.601562 11.96875,11.695312 C12.019531,11.789062 12.039062,11.785156 12.039062,11.675781 C12.039062,11.621094 12.019531,11.585938 11.984375,11.585938 Z M17.023438,11.59375 C16.953125,11.589844 16.847656,11.597656 16.710938,11.617188 C16.191406,11.679688 16.183594,11.730469 16.691406,11.730469 C16.953125,11.730469 17.117188,11.714844 17.132812,11.691406 C17.167969,11.628906 17.140625,11.597656 17.023438,11.59375 Z M10.773438,11.601562 C10.726562,11.601562 10.707031,11.617188 10.679688,11.648438 C10.644531,11.683594 10.605469,11.773438 10.59375,11.84375 L10.570312,11.976562 L10.8125,12.019531 C10.949219,12.042969 11.136719,12.074219 11.234375,12.089844 C11.332031,12.109375 11.429688,12.117188 11.449219,12.113281 C11.46875,12.109375 11.480469,12.042969 11.472656,11.964844 C11.46875,11.886719 11.445312,11.804688 11.421875,11.78125 C11.398438,11.753906 11.234375,11.703125 11.058594,11.660156 C10.90625,11.625 10.824219,11.605469 10.773438,11.601562 Z M7.105469,11.628906 C7.070312,11.625 7.019531,11.65625 7.007812,11.703125 C6.996094,11.773438 7.003906,11.777344 7.085938,11.746094 C7.117188,11.734375 7.144531,11.699219 7.144531,11.671875 C7.144531,11.640625 7.128906,11.628906 7.105469,11.628906 Z M3.242188,11.65625 C3.226562,11.65625 3.214844,11.703125 3.214844,11.757812 C3.214844,11.8125 3.199219,11.882812 3.179688,11.910156 C3.160156,11.941406 3.15625,11.976562 3.167969,11.996094 C3.195312,12.039062 3.359375,11.875 3.359375,11.804688 C3.359375,11.742188 3.292969,11.65625 3.242188,11.65625 Z M2.957031,11.65625 C2.914062,11.65625 2.921875,11.785156 2.972656,11.832031 C3.03125,11.894531 3.070312,11.886719 3.097656,11.816406 C3.117188,11.761719 3.027344,11.65625 2.957031,11.65625 Z M20.195312,11.699219 C20.125,11.703125 20.082031,11.730469 19.992188,11.816406 C19.824219,11.972656 19.832031,12.078125 20.015625,12.046875 C20.078125,12.035156 20.265625,12.007812 20.425781,11.980469 C20.589844,11.957031 20.722656,11.917969 20.722656,11.898438 C20.71875,11.847656 20.441406,11.730469 20.265625,11.707031 C20.25,11.703125 20.238281,11.703125 20.222656,11.699219 C20.214844,11.699219 20.203125,11.699219 20.195312,11.699219 Z M8.003906,11.703125 C7.988281,11.703125 7.96875,11.703125 7.941406,11.710938 C7.847656,11.734375 7.789062,11.789062 7.789062,11.847656 C7.785156,11.898438 7.90625,11.878906 7.972656,11.816406 C8.042969,11.75 8.054688,11.707031 8.003906,11.703125 Z M8.839844,11.710938 C8.832031,11.710938 8.824219,11.710938 8.816406,11.710938 C8.792969,11.710938 8.765625,11.71875 8.742188,11.726562 C8.6875,11.75 8.652344,11.78125 8.664062,11.804688 C8.695312,11.855469 8.976562,11.851562 8.957031,11.796875 C8.941406,11.742188 8.898438,11.714844 8.839844,11.710938 Z M19.242188,11.710938 C19.054688,11.707031 18.941406,11.746094 19.050781,11.785156 C19.09375,11.804688 19.101562,11.828125 19.078125,11.894531 C19.058594,11.941406 19.054688,12.011719 19.066406,12.050781 C19.085938,12.132812 19.09375,12.128906 19.605469,11.882812 C19.8125,11.785156 19.753906,11.75 19.328125,11.71875 C19.296875,11.714844 19.269531,11.710938 19.242188,11.710938 Z M13.234375,11.730469 C13.117188,11.730469 13.109375,11.734375 13.148438,11.808594 C13.191406,11.886719 13.195312,11.886719 13.242188,11.820312 C13.292969,11.746094 13.296875,11.75 13.359375,11.871094 C13.414062,11.980469 13.445312,11.949219 13.398438,11.828125 C13.367188,11.75 13.339844,11.730469 13.234375,11.730469 Z M8.265625,11.730469 C8.226562,11.730469 8.179688,11.75 8.167969,11.78125 C8.15625,11.808594 8.160156,11.84375 8.167969,11.851562 C8.195312,11.882812 8.324219,11.808594 8.324219,11.765625 C8.324219,11.746094 8.304688,11.734375 8.28125,11.730469 C8.273438,11.730469 8.269531,11.730469 8.265625,11.730469 Z M18.578125,11.789062 C18.527344,11.785156 18.472656,11.792969 18.417969,11.808594 C18.359375,11.824219 18.265625,11.839844 18.210938,11.839844 C18.089844,11.839844 18.042969,11.933594 18.128906,11.996094 C18.195312,12.046875 18.167969,12.167969 18.089844,12.167969 C18.0625,12.167969 18.042969,12.199219 18.042969,12.238281 C18.042969,12.28125 18.054688,12.3125 18.070312,12.3125 C18.089844,12.3125 18.238281,12.222656 18.402344,12.109375 C18.566406,11.996094 18.707031,11.882812 18.710938,11.859375 C18.722656,11.820312 18.660156,11.792969 18.578125,11.789062 Z M16.648438,11.839844 C16.175781,11.839844 16.019531,11.890625 16.371094,11.929688 C16.472656,11.941406 16.605469,11.953125 16.664062,11.960938 C16.910156,11.992188 17.09375,11.96875 17.105469,11.902344 C17.117188,11.84375 17.074219,11.839844 16.648438,11.839844 Z M4.28125,11.84375 C4.253906,11.84375 4.21875,11.847656 4.160156,11.855469 C3.945312,11.890625 3.820312,11.9375 3.820312,11.984375 C3.820312,12.035156 3.917969,12.03125 3.949219,11.984375 C3.960938,11.960938 4.046875,11.949219 4.136719,11.957031 C4.277344,11.964844 4.304688,11.957031 4.316406,11.898438 C4.324219,11.859375 4.320312,11.84375 4.28125,11.84375 Z M5.167969,11.847656 C5.097656,11.835938 5.164062,11.941406 5.285156,12.011719 C5.453125,12.109375 5.460938,12.160156 5.339844,12.304688 C5.265625,12.398438 5.253906,12.457031 5.316406,12.457031 C5.328125,12.457031 5.398438,12.398438 5.472656,12.324219 C5.546875,12.25 5.609375,12.167969 5.609375,12.140625 C5.609375,12.066406 5.5,11.964844 5.375,11.921875 C5.316406,11.902344 5.242188,11.871094 5.207031,11.859375 C5.191406,11.851562 5.175781,11.847656 5.167969,11.847656 Z M4.613281,11.875 C4.535156,11.875 4.488281,11.925781 4.527344,11.964844 C4.5625,12 4.652344,11.972656 4.671875,11.921875 C4.679688,11.894531 4.65625,11.875 4.613281,11.875 Z M3.488281,11.929688 C3.449219,11.925781 3.394531,11.957031 3.394531,11.988281 C3.394531,12.027344 3.476562,12.035156 3.511719,12 C3.523438,11.984375 3.527344,11.960938 3.515625,11.945312 C3.511719,11.9375 3.5,11.933594 3.488281,11.929688 Z M7.074219,11.949219 C6.964844,11.949219 6.984375,12.007812 7.109375,12.058594 C7.183594,12.089844 7.226562,12.136719 7.238281,12.210938 C7.25,12.265625 7.265625,12.3125 7.273438,12.3125 C7.28125,12.3125 7.3125,12.261719 7.34375,12.199219 C7.375,12.136719 7.394531,12.082031 7.386719,12.078125 C7.335938,12.03125 7.132812,11.949219 7.074219,11.949219 Z M8.472656,11.953125 C8.429688,11.953125 8.429688,12 8.472656,12.09375 C8.527344,12.222656 8.621094,12.226562 8.636719,12.101562 C8.648438,12.046875 8.625,12.011719 8.558594,11.980469 C8.519531,11.960938 8.492188,11.953125 8.472656,11.953125 Z M7.558594,11.988281 C7.503906,11.988281 7.496094,12.019531 7.519531,12.09375 C7.546875,12.1875 7.578125,12.1875 7.660156,12.097656 C7.722656,12.027344 7.722656,12.023438 7.628906,12 C7.601562,11.992188 7.578125,11.988281 7.558594,11.988281 Z M8.164062,12 C8.125,12 8.117188,12.039062 8.160156,12.101562 C8.207031,12.171875 8.203125,12.191406 8.105469,12.304688 C7.984375,12.445312 7.992188,12.523438 8.125,12.472656 C8.15625,12.460938 8.179688,12.433594 8.179688,12.410156 C8.179688,12.386719 8.222656,12.328125 8.269531,12.28125 C8.382812,12.171875 8.382812,12.117188 8.269531,12.042969 C8.226562,12.015625 8.1875,12 8.164062,12 Z M5,12.011719 C4.929688,12.007812 4.921875,12.066406 4.996094,12.167969 L5.074219,12.277344 L5.003906,12.375 C4.910156,12.492188 4.910156,12.53125 4.996094,12.53125 C5.03125,12.53125 5.101562,12.464844 5.15625,12.382812 C5.28125,12.1875 5.277344,12.121094 5.132812,12.050781 C5.078125,12.023438 5.03125,12.011719 5,12.011719 Z M4.066406,12.058594 C4.007812,12.058594 3.996094,12.074219 4.015625,12.140625 C4.027344,12.183594 4.035156,12.234375 4.035156,12.25 C4.035156,12.300781 4.097656,12.277344 4.121094,12.21875 C4.160156,12.113281 4.144531,12.058594 4.066406,12.058594 Z M17.488281,12.078125 L17.203125,12.078125 L17.1875,12.179688 C17.167969,12.359375 17.25,12.445312 17.34375,12.355469 C17.363281,12.335938 17.46875,12.289062 17.578125,12.25 C17.871094,12.140625 17.835938,12.078125 17.488281,12.078125 Z M6.902344,12.09375 C6.875,12.09375 6.859375,12.101562 6.859375,12.113281 C6.859375,12.136719 7.007812,12.347656 7.023438,12.347656 C7.03125,12.347656 7.050781,12.316406 7.074219,12.273438 C7.105469,12.210938 7.101562,12.1875 7.046875,12.148438 C7.007812,12.117188 6.945312,12.097656 6.902344,12.09375 Z M6.15625,12.09375 C6.09375,12.09375 5.929688,12.230469 5.929688,12.285156 C5.929688,12.335938 6.082031,12.316406 6.148438,12.253906 C6.230469,12.175781 6.234375,12.09375 6.15625,12.09375 Z M7.941406,12.09375 C7.925781,12.09375 7.914062,12.097656 7.90625,12.105469 C7.894531,12.117188 7.894531,12.152344 7.90625,12.183594 C7.933594,12.257812 8.039062,12.257812 8.039062,12.183594 C8.039062,12.140625 7.984375,12.097656 7.941406,12.09375 Z M4.679688,12.101562 C4.621094,12.101562 4.621094,12.167969 4.71875,12.273438 C4.789062,12.347656 4.789062,12.359375 4.734375,12.417969 C4.667969,12.496094 4.664062,12.53125 4.722656,12.53125 C4.75,12.53125 4.808594,12.46875 4.851562,12.398438 L4.9375,12.261719 L4.835938,12.179688 C4.769531,12.125 4.714844,12.101562 4.679688,12.101562 Z M3.800781,12.136719 C3.746094,12.140625 3.726562,12.238281 3.773438,12.289062 C3.816406,12.332031 3.875,12.292969 3.875,12.21875 C3.875,12.179688 3.847656,12.144531 3.8125,12.136719 C3.808594,12.136719 3.804688,12.136719 3.800781,12.136719 Z M6.511719,12.167969 C6.460938,12.164062 6.429688,12.175781 6.429688,12.203125 C6.429688,12.21875 6.480469,12.246094 6.539062,12.257812 C6.65625,12.285156 6.660156,12.296875 6.589844,12.523438 C6.558594,12.621094 6.609375,12.628906 6.710938,12.539062 C6.75,12.503906 6.792969,12.429688 6.808594,12.375 C6.828125,12.285156 6.816406,12.269531 6.703125,12.222656 C6.628906,12.191406 6.5625,12.171875 6.511719,12.167969 Z M16.636719,12.203125 C16.214844,12.203125 16.414062,12.28125 16.992188,12.34375 C17.015625,12.347656 17.046875,12.332031 17.058594,12.3125 C17.09375,12.253906 16.90625,12.203125 16.636719,12.203125 Z M19.804688,12.238281 C19.726562,12.238281 19.746094,12.308594 19.832031,12.320312 C19.949219,12.335938 19.949219,12.398438 19.828125,12.472656 C19.769531,12.507812 19.71875,12.550781 19.71875,12.570312 C19.71875,12.613281 19.800781,12.613281 19.847656,12.574219 C19.863281,12.554688 19.988281,12.511719 20.125,12.476562 C20.257812,12.441406 20.355469,12.398438 20.339844,12.382812 C20.304688,12.355469 19.886719,12.238281 19.804688,12.238281 Z M19.164062,12.28125 C19.09375,12.28125 19.070312,12.292969 19.066406,12.316406 C19.058594,12.34375 19.03125,12.425781 19.011719,12.5 C18.972656,12.613281 18.984375,12.75 19.027344,12.75 C19.035156,12.75 19.152344,12.695312 19.285156,12.625 C19.746094,12.386719 19.753906,12.335938 19.335938,12.292969 C19.257812,12.285156 19.203125,12.28125 19.164062,12.28125 Z M4.523438,12.289062 C4.402344,12.289062 4.265625,12.40625 4.324219,12.480469 C4.367188,12.53125 4.492188,12.507812 4.582031,12.429688 C4.660156,12.359375 4.660156,12.324219 4.574219,12.296875 C4.558594,12.289062 4.539062,12.289062 4.523438,12.289062 Z M6.375,12.355469 C6.34375,12.359375 6.320312,12.390625 6.308594,12.4375 C6.296875,12.488281 6.269531,12.53125 6.25,12.53125 C6.230469,12.53125 6.214844,12.554688 6.214844,12.585938 C6.214844,12.671875 6.308594,12.648438 6.390625,12.542969 C6.472656,12.4375 6.472656,12.375 6.386719,12.355469 C6.382812,12.355469 6.378906,12.355469 6.375,12.355469 Z M18.359375,12.394531 C18.308594,12.394531 18.265625,12.398438 18.242188,12.40625 C18.183594,12.429688 18.15625,12.640625 18.210938,12.691406 C18.242188,12.726562 18.367188,12.691406 18.5625,12.597656 C18.648438,12.558594 18.71875,12.503906 18.71875,12.476562 C18.71875,12.4375 18.503906,12.398438 18.359375,12.394531 Z" id="Shape" fill="#FFFFFF" fill-rule="nonzero" mask="url(#mask-2)"></path>
        </g>
    </g>
</svg>